<mxfile host="Electron" modified="2023-09-11T15:29:30.777Z" agent="Mozilla/5.0 (X11; Linux x86_64) AppleWebKit/537.36 (KHTML, like Gecko) draw.io/21.6.8 Chrome/114.0.5735.134 Electron/25.6.0 Safari/537.36" etag="LqJS9N6Mc5wJodc9VGP1" version="21.6.8" type="device">
  <diagram name="Page-1" id="4rwVAWIiQpRLF1cc4Q_Y">
    <mxGraphModel dx="1591" dy="1191" grid="1" gridSize="10" guides="1" tooltips="1" connect="1" arrows="1" fold="1" page="1" pageScale="1" pageWidth="850" pageHeight="1100" math="0" shadow="0">
      <root>
        <mxCell id="0" />
        <mxCell id="1" parent="0" />
        <mxCell id="9XsZ4Fnl_TqAU3Pvs2_y-9" value="" style="rounded=0;whiteSpace=wrap;html=1;dashed=1;" vertex="1" parent="1">
          <mxGeometry x="143.74" y="200" width="150" height="211" as="geometry" />
        </mxCell>
        <mxCell id="9XsZ4Fnl_TqAU3Pvs2_y-8" value="" style="editableCssRules=.*;html=1;shape=image;verticalLabelPosition=bottom;labelBackgroundColor=#ffffff;verticalAlign=top;aspect=fixed;imageAspect=0;image=data:image/svg+xml,PHN2ZyB4bWxucz0iaHR0cDovL3d3dy53My5vcmcvMjAwMC9zdmciIHhtbG5zOnY9Imh0dHBzOi8vdmVjdGEuaW8vbmFubyIgd2lkdGg9IjE0LjAwMDI5OTQ1MzczNTM1MiIgaGVpZ2h0PSIxNS45OTI5MjI3ODI4OTc5NSIgdmlld0JveD0iLTAuMDAwMTQ5NjA4NDAwNTMzOTA3MTIgLTAuMDAwNDYxNzIyMDgzODU1NDIwMzUgMTQuMDAwMjk5NDUzNzM1MzUyIDE1Ljk5MjkyMjc4Mjg5Nzk1Ij4mI3hhOwk8c3R5bGUgdHlwZT0idGV4dC9jc3MiPiYjeGE7CS5zdDB7ZmlsbDojNDI4NWY0O30mI3hhOwk8L3N0eWxlPiYjeGE7CTxwYXRoIGNsYXNzPSJzdDAiIGQ9Ik0xMy42NyAzLjczNkw3LjM2LjA5NmEuNzIuNzIgMCAwIDAtLjcyIDBMLjMzIDMuNzM2YS43Mi43MiAwIDAgMC0uMzMuNjJ2Ny4yOGEuNzIuNzIgMCAwIDAgLjM2LjYybDYuMjggMy42NGEuNzIuNzIgMCAwIDAgLjcyIDBsNi4zMS0zLjY0YS43Mi43MiAwIDAgMCAuMzMtLjYydi03LjI4YS43Mi43MiAwIDAgMC0uMzMtLjYyem0tLjg3IDcuMmwtMi4yLTEuMjd2LTMuMzRsLTMuMjUgMS44N3YzLjhsMi45LTEuNjcgMi4yIDEuMjctNS40NSAzLjEtNS40NS0zLjE1IDIuMi0xLjI3IDIuOSAxLjcydi0zLjhMMy40IDYuMzI2djMuMzRsLTIuMiAxLjI3di02LjI5bDUuNDUtMy4xNHYyLjQ5bC0yLjkgMS43Mkw3IDcuNTg2bDMuMjUtMS44OC0yLjktMS43MXYtMi40OWw1LjQ1IDMuMTR6Ii8+JiN4YTs8L3N2Zz4=;" vertex="1" parent="1">
          <mxGeometry x="191.86" y="255" width="53.75" height="61.43" as="geometry" />
        </mxCell>
        <mxCell id="9XsZ4Fnl_TqAU3Pvs2_y-10" value="" style="image;aspect=fixed;perimeter=ellipsePerimeter;html=1;align=center;shadow=0;dashed=0;spacingTop=3;image=img/lib/active_directory/internet_cloud.svg;" vertex="1" parent="1">
          <mxGeometry x="594.34" y="62.5" width="134.92" height="85" as="geometry" />
        </mxCell>
        <mxCell id="9XsZ4Fnl_TqAU3Pvs2_y-12" value="" style="rounded=0;whiteSpace=wrap;html=1;dashed=1;" vertex="1" parent="1">
          <mxGeometry x="510" y="200" width="330" height="340" as="geometry" />
        </mxCell>
        <mxCell id="9XsZ4Fnl_TqAU3Pvs2_y-14" value="" style="shape=image;imageAspect=0;aspect=fixed;verticalLabelPosition=bottom;verticalAlign=top;image=data:image/svg+xml,PHN2ZyB4bWxucz0iaHR0cDovL3d3dy53My5vcmcvMjAwMC9zdmciIGZpbGw9Im5vbmUiIHZpZXdCb3g9IjAgMCAxMzcgODQiIGhlaWdodD0iODQiIHdpZHRoPSIxMzciPiYjeGE7PHBhdGggZmlsbD0iIzA5QkFDOCIgZD0iTTc4LjIxOTEgMTIuMTA3NEg3NC4yMDYxVjE2LjExMzZINzguMjE5MVYxMi4xMDc0WiIvPiYjeGE7PHBhdGggZmlsbD0iIzA5QkFDOCIgZD0iTTY4LjI2MTggNDYuMTc2OEg2MC4yMjlWNTAuMTgyOUg2OC4yNjE4VjQ2LjE3NjhaIi8+JiN4YTs8cGF0aCBmaWxsPSIjMDlCQUM4IiBkPSJNMTA0LjQwNiA0Ni4xNzY4SDk2LjM3MzVWNTAuMTgyOUgxMDQuNDA2VjQ2LjE3NjhaIi8+JiN4YTs8cGF0aCBmaWxsPSIjMDlCQUM4IiBkPSJNMTMyLjQ5NyA3Mi4xNTIxVjQ4LjEwMTRIMTI4LjQ5OFY3Mi4xNTIxSDEyNC40OTlWMzIuMDY5OUgxMTYuNDQ1VjBIMjAuMDg1NVYzMi4wNjk5SDEyLjAzOVY3Mi4xNTIxSDguMDM5NjVWNDguMTAxNEgzLjk5OTM0VjcyLjE1MjFIMFY4MC4wMDc1SDguMDMyODJWODRIMjAuMDc4NlY4MC4wMDc1SDI0LjA3OFY4NEgzNi4xMjM4VjgwLjAwNzVIMTAwLjM3M1Y4NEgxMTIuNDE5VjgwLjAwNzVIMTE2LjQxOFY4NEgxMjguNDY0VjgwLjAwNzVIMTM2LjQ5N1Y3Mi4xNTIxSDEzMi40OTdaTTkwLjI2NTIgNC4wODgwN0gxMTAuMzQ0VjEyLjEwNzJIMTA0LjM5OVYyOC4xNDU2SDk2LjM3MzRWMTIuMTA3Mkg5MC4yNzJWNC4wODgwN0g5MC4yNjUyWk0yNi4wMjMxIDIwLjEyNjRWNC4wODgwN0g0Mi4wODg3VjEwLjAxODhIMzQuMDU1OVYxNC4wMTE0SDQyLjA4ODdWMjAuMTE5NkgzNC4wNTU5VjI4LjEzODhIMjYuMDIzMVYyMC4xMjY0Wk00NC4xODM5IDQ2LjE3NjhWNTAuMTY5M0gzMi4xMjQ1VjU4LjE4ODVINDQuMTcwM1Y3MC4yMTM5SDIwLjA3ODZWMzguMTU3Nkg0NC4xNzAzTDQ0LjE4MzkgNDYuMTc2OFpNNDYuMTA4NSAyOC4xNDU2VjQuMDk0OUg1NC4xNDE0VjIwLjEzMzJINjIuMTc0MlYyOC4xNTI0SDQ2LjA5NDlINDYuMTA4NVYyOC4xNDU2Wk04MC4zMDc4IDQ2LjE3NjhWNzAuMjI3NUg2OC4yNjE5VjU4LjIwMjJINjAuMjI5MVY3MC4yMjc1SDQ4LjE4MzNWNDIuMTcwNkg1Mi4xODI2VjM4LjE3ODFINzYuMjc0M1Y0Mi4xNzA2SDgwLjI3MzZMODAuMzA3OCA0Ni4xNzY4Wk03OC4yMTk0IDI4LjE0NTZWMjAuMTI2NEg3NC4yMlYyOC4xNDU2SDY2LjE4MDRWOC4xMDEwN0g3MC4xNzk3VjQuMTA4NTVIODIuMjI1NVY4LjEwMTA3SDg2LjIyNDlWMjguMTQ1Nkg3OC4yMTk0Wk0xMTYuNDQ1IDQ2LjE3NjhWNTguMjAyMkgxMTIuNDQ2VjYyLjE5NDdIMTE2LjQ0NVY3MC4yMTM5SDEwNC4zOTlWNjIuMjA4M0gxMDAuNFY1OC4yMTU4SDk2LjQwMDdWNzAuMjQxMUg4NC4zNDEyVjM4LjE2NDRIMTE2LjQ0NVY0Ni4xNzY4WiIvPiYjeGE7PC9zdmc+;" vertex="1" parent="1">
          <mxGeometry x="528.3000000000001" y="252.5" width="57.08" height="35" as="geometry" />
        </mxCell>
        <mxCell id="9XsZ4Fnl_TqAU3Pvs2_y-15" value="" style="shape=image;imageAspect=0;aspect=fixed;verticalLabelPosition=bottom;verticalAlign=top;image=data:image/svg+xml,PHN2ZyB4bWxucz0iaHR0cDovL3d3dy53My5vcmcvMjAwMC9zdmciIGZpbGw9Im5vbmUiIHZpZXdCb3g9IjAgMCAxMzcgODQiIGhlaWdodD0iODQiIHdpZHRoPSIxMzciPiYjeGE7PHBhdGggZmlsbD0iIzA5QkFDOCIgZD0iTTc4LjIxOTEgMTIuMTA3NEg3NC4yMDYxVjE2LjExMzZINzguMjE5MVYxMi4xMDc0WiIvPiYjeGE7PHBhdGggZmlsbD0iIzA5QkFDOCIgZD0iTTY4LjI2MTggNDYuMTc2OEg2MC4yMjlWNTAuMTgyOUg2OC4yNjE4VjQ2LjE3NjhaIi8+JiN4YTs8cGF0aCBmaWxsPSIjMDlCQUM4IiBkPSJNMTA0LjQwNiA0Ni4xNzY4SDk2LjM3MzVWNTAuMTgyOUgxMDQuNDA2VjQ2LjE3NjhaIi8+JiN4YTs8cGF0aCBmaWxsPSIjMDlCQUM4IiBkPSJNMTMyLjQ5NyA3Mi4xNTIxVjQ4LjEwMTRIMTI4LjQ5OFY3Mi4xNTIxSDEyNC40OTlWMzIuMDY5OUgxMTYuNDQ1VjBIMjAuMDg1NVYzMi4wNjk5SDEyLjAzOVY3Mi4xNTIxSDguMDM5NjVWNDguMTAxNEgzLjk5OTM0VjcyLjE1MjFIMFY4MC4wMDc1SDguMDMyODJWODRIMjAuMDc4NlY4MC4wMDc1SDI0LjA3OFY4NEgzNi4xMjM4VjgwLjAwNzVIMTAwLjM3M1Y4NEgxMTIuNDE5VjgwLjAwNzVIMTE2LjQxOFY4NEgxMjguNDY0VjgwLjAwNzVIMTM2LjQ5N1Y3Mi4xNTIxSDEzMi40OTdaTTkwLjI2NTIgNC4wODgwN0gxMTAuMzQ0VjEyLjEwNzJIMTA0LjM5OVYyOC4xNDU2SDk2LjM3MzRWMTIuMTA3Mkg5MC4yNzJWNC4wODgwN0g5MC4yNjUyWk0yNi4wMjMxIDIwLjEyNjRWNC4wODgwN0g0Mi4wODg3VjEwLjAxODhIMzQuMDU1OVYxNC4wMTE0SDQyLjA4ODdWMjAuMTE5NkgzNC4wNTU5VjI4LjEzODhIMjYuMDIzMVYyMC4xMjY0Wk00NC4xODM5IDQ2LjE3NjhWNTAuMTY5M0gzMi4xMjQ1VjU4LjE4ODVINDQuMTcwM1Y3MC4yMTM5SDIwLjA3ODZWMzguMTU3Nkg0NC4xNzAzTDQ0LjE4MzkgNDYuMTc2OFpNNDYuMTA4NSAyOC4xNDU2VjQuMDk0OUg1NC4xNDE0VjIwLjEzMzJINjIuMTc0MlYyOC4xNTI0SDQ2LjA5NDlINDYuMTA4NVYyOC4xNDU2Wk04MC4zMDc4IDQ2LjE3NjhWNzAuMjI3NUg2OC4yNjE5VjU4LjIwMjJINjAuMjI5MVY3MC4yMjc1SDQ4LjE4MzNWNDIuMTcwNkg1Mi4xODI2VjM4LjE3ODFINzYuMjc0M1Y0Mi4xNzA2SDgwLjI3MzZMODAuMzA3OCA0Ni4xNzY4Wk03OC4yMTk0IDI4LjE0NTZWMjAuMTI2NEg3NC4yMlYyOC4xNDU2SDY2LjE4MDRWOC4xMDEwN0g3MC4xNzk3VjQuMTA4NTVIODIuMjI1NVY4LjEwMTA3SDg2LjIyNDlWMjguMTQ1Nkg3OC4yMTk0Wk0xMTYuNDQ1IDQ2LjE3NjhWNTguMjAyMkgxMTIuNDQ2VjYyLjE5NDdIMTE2LjQ0NVY3MC4yMTM5SDEwNC4zOTlWNjIuMjA4M0gxMDAuNFY1OC4yMTU4SDk2LjQwMDdWNzAuMjQxMUg4NC4zNDEyVjM4LjE2NDRIMTE2LjQ0NVY0Ni4xNzY4WiIvPiYjeGE7PC9zdmc+;" vertex="1" parent="1">
          <mxGeometry x="648.3000000000001" y="255" width="57.08" height="35" as="geometry" />
        </mxCell>
        <mxCell id="9XsZ4Fnl_TqAU3Pvs2_y-17" value="" style="shape=image;imageAspect=0;aspect=fixed;verticalLabelPosition=bottom;verticalAlign=top;image=data:image/svg+xml,PHN2ZyB4bWxucz0iaHR0cDovL3d3dy53My5vcmcvMjAwMC9zdmciIGZpbGw9Im5vbmUiIHZpZXdCb3g9IjAgMCAxMzcgODQiIGhlaWdodD0iODQiIHdpZHRoPSIxMzciPiYjeGE7PHBhdGggZmlsbD0iIzA5QkFDOCIgZD0iTTc4LjIxOTEgMTIuMTA3NEg3NC4yMDYxVjE2LjExMzZINzguMjE5MVYxMi4xMDc0WiIvPiYjeGE7PHBhdGggZmlsbD0iIzA5QkFDOCIgZD0iTTY4LjI2MTggNDYuMTc2OEg2MC4yMjlWNTAuMTgyOUg2OC4yNjE4VjQ2LjE3NjhaIi8+JiN4YTs8cGF0aCBmaWxsPSIjMDlCQUM4IiBkPSJNMTA0LjQwNiA0Ni4xNzY4SDk2LjM3MzVWNTAuMTgyOUgxMDQuNDA2VjQ2LjE3NjhaIi8+JiN4YTs8cGF0aCBmaWxsPSIjMDlCQUM4IiBkPSJNMTMyLjQ5NyA3Mi4xNTIxVjQ4LjEwMTRIMTI4LjQ5OFY3Mi4xNTIxSDEyNC40OTlWMzIuMDY5OUgxMTYuNDQ1VjBIMjAuMDg1NVYzMi4wNjk5SDEyLjAzOVY3Mi4xNTIxSDguMDM5NjVWNDguMTAxNEgzLjk5OTM0VjcyLjE1MjFIMFY4MC4wMDc1SDguMDMyODJWODRIMjAuMDc4NlY4MC4wMDc1SDI0LjA3OFY4NEgzNi4xMjM4VjgwLjAwNzVIMTAwLjM3M1Y4NEgxMTIuNDE5VjgwLjAwNzVIMTE2LjQxOFY4NEgxMjguNDY0VjgwLjAwNzVIMTM2LjQ5N1Y3Mi4xNTIxSDEzMi40OTdaTTkwLjI2NTIgNC4wODgwN0gxMTAuMzQ0VjEyLjEwNzJIMTA0LjM5OVYyOC4xNDU2SDk2LjM3MzRWMTIuMTA3Mkg5MC4yNzJWNC4wODgwN0g5MC4yNjUyWk0yNi4wMjMxIDIwLjEyNjRWNC4wODgwN0g0Mi4wODg3VjEwLjAxODhIMzQuMDU1OVYxNC4wMTE0SDQyLjA4ODdWMjAuMTE5NkgzNC4wNTU5VjI4LjEzODhIMjYuMDIzMVYyMC4xMjY0Wk00NC4xODM5IDQ2LjE3NjhWNTAuMTY5M0gzMi4xMjQ1VjU4LjE4ODVINDQuMTcwM1Y3MC4yMTM5SDIwLjA3ODZWMzguMTU3Nkg0NC4xNzAzTDQ0LjE4MzkgNDYuMTc2OFpNNDYuMTA4NSAyOC4xNDU2VjQuMDk0OUg1NC4xNDE0VjIwLjEzMzJINjIuMTc0MlYyOC4xNTI0SDQ2LjA5NDlINDYuMTA4NVYyOC4xNDU2Wk04MC4zMDc4IDQ2LjE3NjhWNzAuMjI3NUg2OC4yNjE5VjU4LjIwMjJINjAuMjI5MVY3MC4yMjc1SDQ4LjE4MzNWNDIuMTcwNkg1Mi4xODI2VjM4LjE3ODFINzYuMjc0M1Y0Mi4xNzA2SDgwLjI3MzZMODAuMzA3OCA0Ni4xNzY4Wk03OC4yMTk0IDI4LjE0NTZWMjAuMTI2NEg3NC4yMlYyOC4xNDU2SDY2LjE4MDRWOC4xMDEwN0g3MC4xNzk3VjQuMTA4NTVIODIuMjI1NVY4LjEwMTA3SDg2LjIyNDlWMjguMTQ1Nkg3OC4yMTk0Wk0xMTYuNDQ1IDQ2LjE3NjhWNTguMjAyMkgxMTIuNDQ2VjYyLjE5NDdIMTE2LjQ0NVY3MC4yMTM5SDEwNC4zOTlWNjIuMjA4M0gxMDAuNFY1OC4yMTU4SDk2LjQwMDdWNzAuMjQxMUg4NC4zNDEyVjM4LjE2NDRIMTE2LjQ0NVY0Ni4xNzY4WiIvPiYjeGE7PC9zdmc+;" vertex="1" parent="1">
          <mxGeometry x="768.3000000000001" y="255" width="57.08" height="35" as="geometry" />
        </mxCell>
        <mxCell id="9XsZ4Fnl_TqAU3Pvs2_y-26" value="" style="shape=image;imageAspect=0;aspect=fixed;verticalLabelPosition=bottom;verticalAlign=top;image=data:image/svg+xml,PHN2ZyB4bWxucz0iaHR0cDovL3d3dy53My5vcmcvMjAwMC9zdmciIGZpbGw9Im5vbmUiIHZpZXdCb3g9IjAgMCAxMzcgODQiIGhlaWdodD0iODQiIHdpZHRoPSIxMzciPiYjeGE7PHBhdGggZmlsbD0iIzA5QkFDOCIgZD0iTTc4LjIxOTEgMTIuMTA3NEg3NC4yMDYxVjE2LjExMzZINzguMjE5MVYxMi4xMDc0WiIvPiYjeGE7PHBhdGggZmlsbD0iIzA5QkFDOCIgZD0iTTY4LjI2MTggNDYuMTc2OEg2MC4yMjlWNTAuMTgyOUg2OC4yNjE4VjQ2LjE3NjhaIi8+JiN4YTs8cGF0aCBmaWxsPSIjMDlCQUM4IiBkPSJNMTA0LjQwNiA0Ni4xNzY4SDk2LjM3MzVWNTAuMTgyOUgxMDQuNDA2VjQ2LjE3NjhaIi8+JiN4YTs8cGF0aCBmaWxsPSIjMDlCQUM4IiBkPSJNMTMyLjQ5NyA3Mi4xNTIxVjQ4LjEwMTRIMTI4LjQ5OFY3Mi4xNTIxSDEyNC40OTlWMzIuMDY5OUgxMTYuNDQ1VjBIMjAuMDg1NVYzMi4wNjk5SDEyLjAzOVY3Mi4xNTIxSDguMDM5NjVWNDguMTAxNEgzLjk5OTM0VjcyLjE1MjFIMFY4MC4wMDc1SDguMDMyODJWODRIMjAuMDc4NlY4MC4wMDc1SDI0LjA3OFY4NEgzNi4xMjM4VjgwLjAwNzVIMTAwLjM3M1Y4NEgxMTIuNDE5VjgwLjAwNzVIMTE2LjQxOFY4NEgxMjguNDY0VjgwLjAwNzVIMTM2LjQ5N1Y3Mi4xNTIxSDEzMi40OTdaTTkwLjI2NTIgNC4wODgwN0gxMTAuMzQ0VjEyLjEwNzJIMTA0LjM5OVYyOC4xNDU2SDk2LjM3MzRWMTIuMTA3Mkg5MC4yNzJWNC4wODgwN0g5MC4yNjUyWk0yNi4wMjMxIDIwLjEyNjRWNC4wODgwN0g0Mi4wODg3VjEwLjAxODhIMzQuMDU1OVYxNC4wMTE0SDQyLjA4ODdWMjAuMTE5NkgzNC4wNTU5VjI4LjEzODhIMjYuMDIzMVYyMC4xMjY0Wk00NC4xODM5IDQ2LjE3NjhWNTAuMTY5M0gzMi4xMjQ1VjU4LjE4ODVINDQuMTcwM1Y3MC4yMTM5SDIwLjA3ODZWMzguMTU3Nkg0NC4xNzAzTDQ0LjE4MzkgNDYuMTc2OFpNNDYuMTA4NSAyOC4xNDU2VjQuMDk0OUg1NC4xNDE0VjIwLjEzMzJINjIuMTc0MlYyOC4xNTI0SDQ2LjA5NDlINDYuMTA4NVYyOC4xNDU2Wk04MC4zMDc4IDQ2LjE3NjhWNzAuMjI3NUg2OC4yNjE5VjU4LjIwMjJINjAuMjI5MVY3MC4yMjc1SDQ4LjE4MzNWNDIuMTcwNkg1Mi4xODI2VjM4LjE3ODFINzYuMjc0M1Y0Mi4xNzA2SDgwLjI3MzZMODAuMzA3OCA0Ni4xNzY4Wk03OC4yMTk0IDI4LjE0NTZWMjAuMTI2NEg3NC4yMlYyOC4xNDU2SDY2LjE4MDRWOC4xMDEwN0g3MC4xNzk3VjQuMTA4NTVIODIuMjI1NVY4LjEwMTA3SDg2LjIyNDlWMjguMTQ1Nkg3OC4yMTk0Wk0xMTYuNDQ1IDQ2LjE3NjhWNTguMjAyMkgxMTIuNDQ2VjYyLjE5NDdIMTE2LjQ0NVY3MC4yMTM5SDEwNC4zOTlWNjIuMjA4M0gxMDAuNFY1OC4yMTU4SDk2LjQwMDdWNzAuMjQxMUg4NC4zNDEyVjM4LjE2NDRIMTE2LjQ0NVY0Ni4xNzY4WiIvPiYjeGE7PC9zdmc+;" vertex="1" parent="1">
          <mxGeometry x="528.3000000000001" y="390" width="57.08" height="35" as="geometry" />
        </mxCell>
        <mxCell id="9XsZ4Fnl_TqAU3Pvs2_y-27" value="" style="shape=image;imageAspect=0;aspect=fixed;verticalLabelPosition=bottom;verticalAlign=top;image=data:image/svg+xml,PHN2ZyB4bWxucz0iaHR0cDovL3d3dy53My5vcmcvMjAwMC9zdmciIGZpbGw9Im5vbmUiIHZpZXdCb3g9IjAgMCAxMzcgODQiIGhlaWdodD0iODQiIHdpZHRoPSIxMzciPiYjeGE7PHBhdGggZmlsbD0iIzA5QkFDOCIgZD0iTTc4LjIxOTEgMTIuMTA3NEg3NC4yMDYxVjE2LjExMzZINzguMjE5MVYxMi4xMDc0WiIvPiYjeGE7PHBhdGggZmlsbD0iIzA5QkFDOCIgZD0iTTY4LjI2MTggNDYuMTc2OEg2MC4yMjlWNTAuMTgyOUg2OC4yNjE4VjQ2LjE3NjhaIi8+JiN4YTs8cGF0aCBmaWxsPSIjMDlCQUM4IiBkPSJNMTA0LjQwNiA0Ni4xNzY4SDk2LjM3MzVWNTAuMTgyOUgxMDQuNDA2VjQ2LjE3NjhaIi8+JiN4YTs8cGF0aCBmaWxsPSIjMDlCQUM4IiBkPSJNMTMyLjQ5NyA3Mi4xNTIxVjQ4LjEwMTRIMTI4LjQ5OFY3Mi4xNTIxSDEyNC40OTlWMzIuMDY5OUgxMTYuNDQ1VjBIMjAuMDg1NVYzMi4wNjk5SDEyLjAzOVY3Mi4xNTIxSDguMDM5NjVWNDguMTAxNEgzLjk5OTM0VjcyLjE1MjFIMFY4MC4wMDc1SDguMDMyODJWODRIMjAuMDc4NlY4MC4wMDc1SDI0LjA3OFY4NEgzNi4xMjM4VjgwLjAwNzVIMTAwLjM3M1Y4NEgxMTIuNDE5VjgwLjAwNzVIMTE2LjQxOFY4NEgxMjguNDY0VjgwLjAwNzVIMTM2LjQ5N1Y3Mi4xNTIxSDEzMi40OTdaTTkwLjI2NTIgNC4wODgwN0gxMTAuMzQ0VjEyLjEwNzJIMTA0LjM5OVYyOC4xNDU2SDk2LjM3MzRWMTIuMTA3Mkg5MC4yNzJWNC4wODgwN0g5MC4yNjUyWk0yNi4wMjMxIDIwLjEyNjRWNC4wODgwN0g0Mi4wODg3VjEwLjAxODhIMzQuMDU1OVYxNC4wMTE0SDQyLjA4ODdWMjAuMTE5NkgzNC4wNTU5VjI4LjEzODhIMjYuMDIzMVYyMC4xMjY0Wk00NC4xODM5IDQ2LjE3NjhWNTAuMTY5M0gzMi4xMjQ1VjU4LjE4ODVINDQuMTcwM1Y3MC4yMTM5SDIwLjA3ODZWMzguMTU3Nkg0NC4xNzAzTDQ0LjE4MzkgNDYuMTc2OFpNNDYuMTA4NSAyOC4xNDU2VjQuMDk0OUg1NC4xNDE0VjIwLjEzMzJINjIuMTc0MlYyOC4xNTI0SDQ2LjA5NDlINDYuMTA4NVYyOC4xNDU2Wk04MC4zMDc4IDQ2LjE3NjhWNzAuMjI3NUg2OC4yNjE5VjU4LjIwMjJINjAuMjI5MVY3MC4yMjc1SDQ4LjE4MzNWNDIuMTcwNkg1Mi4xODI2VjM4LjE3ODFINzYuMjc0M1Y0Mi4xNzA2SDgwLjI3MzZMODAuMzA3OCA0Ni4xNzY4Wk03OC4yMTk0IDI4LjE0NTZWMjAuMTI2NEg3NC4yMlYyOC4xNDU2SDY2LjE4MDRWOC4xMDEwN0g3MC4xNzk3VjQuMTA4NTVIODIuMjI1NVY4LjEwMTA3SDg2LjIyNDlWMjguMTQ1Nkg3OC4yMTk0Wk0xMTYuNDQ1IDQ2LjE3NjhWNTguMjAyMkgxMTIuNDQ2VjYyLjE5NDdIMTE2LjQ0NVY3MC4yMTM5SDEwNC4zOTlWNjIuMjA4M0gxMDAuNFY1OC4yMTU4SDk2LjQwMDdWNzAuMjQxMUg4NC4zNDEyVjM4LjE2NDRIMTE2LjQ0NVY0Ni4xNzY4WiIvPiYjeGE7PC9zdmc+;" vertex="1" parent="1">
          <mxGeometry x="648.3000000000001" y="392.5" width="57.08" height="35" as="geometry" />
        </mxCell>
        <mxCell id="9XsZ4Fnl_TqAU3Pvs2_y-29" value="" style="shape=image;imageAspect=0;aspect=fixed;verticalLabelPosition=bottom;verticalAlign=top;image=data:image/svg+xml,PHN2ZyB4bWxucz0iaHR0cDovL3d3dy53My5vcmcvMjAwMC9zdmciIGZpbGw9Im5vbmUiIHZpZXdCb3g9IjAgMCAxMzcgODQiIGhlaWdodD0iODQiIHdpZHRoPSIxMzciPiYjeGE7PHBhdGggZmlsbD0iIzA5QkFDOCIgZD0iTTc4LjIxOTEgMTIuMTA3NEg3NC4yMDYxVjE2LjExMzZINzguMjE5MVYxMi4xMDc0WiIvPiYjeGE7PHBhdGggZmlsbD0iIzA5QkFDOCIgZD0iTTY4LjI2MTggNDYuMTc2OEg2MC4yMjlWNTAuMTgyOUg2OC4yNjE4VjQ2LjE3NjhaIi8+JiN4YTs8cGF0aCBmaWxsPSIjMDlCQUM4IiBkPSJNMTA0LjQwNiA0Ni4xNzY4SDk2LjM3MzVWNTAuMTgyOUgxMDQuNDA2VjQ2LjE3NjhaIi8+JiN4YTs8cGF0aCBmaWxsPSIjMDlCQUM4IiBkPSJNMTMyLjQ5NyA3Mi4xNTIxVjQ4LjEwMTRIMTI4LjQ5OFY3Mi4xNTIxSDEyNC40OTlWMzIuMDY5OUgxMTYuNDQ1VjBIMjAuMDg1NVYzMi4wNjk5SDEyLjAzOVY3Mi4xNTIxSDguMDM5NjVWNDguMTAxNEgzLjk5OTM0VjcyLjE1MjFIMFY4MC4wMDc1SDguMDMyODJWODRIMjAuMDc4NlY4MC4wMDc1SDI0LjA3OFY4NEgzNi4xMjM4VjgwLjAwNzVIMTAwLjM3M1Y4NEgxMTIuNDE5VjgwLjAwNzVIMTE2LjQxOFY4NEgxMjguNDY0VjgwLjAwNzVIMTM2LjQ5N1Y3Mi4xNTIxSDEzMi40OTdaTTkwLjI2NTIgNC4wODgwN0gxMTAuMzQ0VjEyLjEwNzJIMTA0LjM5OVYyOC4xNDU2SDk2LjM3MzRWMTIuMTA3Mkg5MC4yNzJWNC4wODgwN0g5MC4yNjUyWk0yNi4wMjMxIDIwLjEyNjRWNC4wODgwN0g0Mi4wODg3VjEwLjAxODhIMzQuMDU1OVYxNC4wMTE0SDQyLjA4ODdWMjAuMTE5NkgzNC4wNTU5VjI4LjEzODhIMjYuMDIzMVYyMC4xMjY0Wk00NC4xODM5IDQ2LjE3NjhWNTAuMTY5M0gzMi4xMjQ1VjU4LjE4ODVINDQuMTcwM1Y3MC4yMTM5SDIwLjA3ODZWMzguMTU3Nkg0NC4xNzAzTDQ0LjE4MzkgNDYuMTc2OFpNNDYuMTA4NSAyOC4xNDU2VjQuMDk0OUg1NC4xNDE0VjIwLjEzMzJINjIuMTc0MlYyOC4xNTI0SDQ2LjA5NDlINDYuMTA4NVYyOC4xNDU2Wk04MC4zMDc4IDQ2LjE3NjhWNzAuMjI3NUg2OC4yNjE5VjU4LjIwMjJINjAuMjI5MVY3MC4yMjc1SDQ4LjE4MzNWNDIuMTcwNkg1Mi4xODI2VjM4LjE3ODFINzYuMjc0M1Y0Mi4xNzA2SDgwLjI3MzZMODAuMzA3OCA0Ni4xNzY4Wk03OC4yMTk0IDI4LjE0NTZWMjAuMTI2NEg3NC4yMlYyOC4xNDU2SDY2LjE4MDRWOC4xMDEwN0g3MC4xNzk3VjQuMTA4NTVIODIuMjI1NVY4LjEwMTA3SDg2LjIyNDlWMjguMTQ1Nkg3OC4yMTk0Wk0xMTYuNDQ1IDQ2LjE3NjhWNTguMjAyMkgxMTIuNDQ2VjYyLjE5NDdIMTE2LjQ0NVY3MC4yMTM5SDEwNC4zOTlWNjIuMjA4M0gxMDAuNFY1OC4yMTU4SDk2LjQwMDdWNzAuMjQxMUg4NC4zNDEyVjM4LjE2NDRIMTE2LjQ0NVY0Ni4xNzY4WiIvPiYjeGE7PC9zdmc+;" vertex="1" parent="1">
          <mxGeometry x="768.3000000000001" y="392.5" width="57.08" height="35" as="geometry" />
        </mxCell>
        <mxCell id="9XsZ4Fnl_TqAU3Pvs2_y-31" value="" style="sketch=0;html=1;dashed=0;whitespace=wrap;fillColor=#2875E2;strokeColor=#ffffff;points=[[0.005,0.63,0],[0.1,0.2,0],[0.9,0.2,0],[0.5,0,0],[0.995,0.63,0],[0.72,0.99,0],[0.5,1,0],[0.28,0.99,0]];verticalLabelPosition=bottom;align=center;verticalAlign=top;shape=mxgraph.kubernetes.icon;prIcon=master" vertex="1" parent="1">
          <mxGeometry x="511.84000000000003" y="290" width="90" height="68" as="geometry" />
        </mxCell>
        <mxCell id="9XsZ4Fnl_TqAU3Pvs2_y-32" value="" style="sketch=0;html=1;dashed=0;whitespace=wrap;fillColor=#2875E2;strokeColor=#ffffff;points=[[0.005,0.63,0],[0.1,0.2,0],[0.9,0.2,0],[0.5,0,0],[0.995,0.63,0],[0.72,0.99,0],[0.5,1,0],[0.28,0.99,0]];verticalLabelPosition=bottom;align=center;verticalAlign=top;shape=mxgraph.kubernetes.icon;prIcon=node" vertex="1" parent="1">
          <mxGeometry x="759.3399999999999" y="430" width="75" height="68" as="geometry" />
        </mxCell>
        <mxCell id="9XsZ4Fnl_TqAU3Pvs2_y-34" value="" style="sketch=0;html=1;dashed=0;whitespace=wrap;fillColor=#2875E2;strokeColor=#ffffff;points=[[0.005,0.63,0],[0.1,0.2,0],[0.9,0.2,0],[0.5,0,0],[0.995,0.63,0],[0.72,0.99,0],[0.5,1,0],[0.28,0.99,0]];verticalLabelPosition=bottom;align=center;verticalAlign=top;shape=mxgraph.kubernetes.icon;prIcon=master" vertex="1" parent="1">
          <mxGeometry x="631.84" y="290" width="90" height="68" as="geometry" />
        </mxCell>
        <mxCell id="9XsZ4Fnl_TqAU3Pvs2_y-35" value="" style="sketch=0;html=1;dashed=0;whitespace=wrap;fillColor=#2875E2;strokeColor=#ffffff;points=[[0.005,0.63,0],[0.1,0.2,0],[0.9,0.2,0],[0.5,0,0],[0.995,0.63,0],[0.72,0.99,0],[0.5,1,0],[0.28,0.99,0]];verticalLabelPosition=bottom;align=center;verticalAlign=top;shape=mxgraph.kubernetes.icon;prIcon=master" vertex="1" parent="1">
          <mxGeometry x="751.84" y="290" width="90" height="68" as="geometry" />
        </mxCell>
        <mxCell id="9XsZ4Fnl_TqAU3Pvs2_y-36" value="" style="sketch=0;html=1;dashed=0;whitespace=wrap;fillColor=#2875E2;strokeColor=#ffffff;points=[[0.005,0.63,0],[0.1,0.2,0],[0.9,0.2,0],[0.5,0,0],[0.995,0.63,0],[0.72,0.99,0],[0.5,1,0],[0.28,0.99,0]];verticalLabelPosition=bottom;align=center;verticalAlign=top;shape=mxgraph.kubernetes.icon;prIcon=node" vertex="1" parent="1">
          <mxGeometry x="519.34" y="425" width="75" height="68" as="geometry" />
        </mxCell>
        <mxCell id="9XsZ4Fnl_TqAU3Pvs2_y-37" value="" style="sketch=0;html=1;dashed=0;whitespace=wrap;fillColor=#2875E2;strokeColor=#ffffff;points=[[0.005,0.63,0],[0.1,0.2,0],[0.9,0.2,0],[0.5,0,0],[0.995,0.63,0],[0.72,0.99,0],[0.5,1,0],[0.28,0.99,0]];verticalLabelPosition=bottom;align=center;verticalAlign=top;shape=mxgraph.kubernetes.icon;prIcon=node" vertex="1" parent="1">
          <mxGeometry x="639.34" y="427.5" width="75" height="68" as="geometry" />
        </mxCell>
        <mxCell id="9XsZ4Fnl_TqAU3Pvs2_y-2" value="" style="editableCssRules=.*;html=1;shape=image;verticalLabelPosition=bottom;labelBackgroundColor=#ffffff;verticalAlign=top;aspect=fixed;imageAspect=0;image=data:image/svg+xml,PHN2ZyB4bWxucz0iaHR0cDovL3d3dy53My5vcmcvMjAwMC9zdmciIHhtbG5zOnY9Imh0dHBzOi8vdmVjdGEuaW8vbmFubyIgd2lkdGg9IjcwMi44NDYzMTM0NzY1NjI1IiBoZWlnaHQ9IjY4MS45NjcxMDIwNTA3ODEyIiB2aWV3Qm94PSIxMC4wMDEwMjYxNTM1NjQ0NTMgMTAuMDAwOTMzNjQ3MTU1NzYyIDcwMi44NDYzMTM0NzY1NjI1IDY4MS45NjcxMDIwNTA3ODEyIj4mI3hhOwk8c3R5bGUgdHlwZT0idGV4dC9jc3MiPiYjeGE7CS5zdDB7ZmlsbDojMzI2Y2U1O30mI3hhOwkuc3Qxe2ZpbGw6I2ZmZjt9JiN4YTsJPC9zdHlsZT4mI3hhOwk8cGF0aCBjbGFzcz0ic3QwIiBkPSJNMzU4Ljk4NyAxMC4wNmMtNi4yMTMuMzEzLTEyLjMwMSAxLjg1NC0xNy45MDYgNC41MzFMOTYuNzM3IDEzMS4zNDJjLTEyLjgxMSA2LjExOC0yMi4xMTYgMTcuNjg5LTI1LjI4MSAzMS40MzhsLTYwLjI4MSAyNjIuMjVjLTIuODEyIDEyLjIwNy0uNTI0IDI1LjAyNCA2LjM0NCAzNS41MzFhNDYuMzUgNDYuMzUgMCAwIDAgMi42NTYgMy42ODhsMTY5LjEyNSAyMTAuMjgxYzguODY4IDExLjAyMiAyMi4zMTMgMTcuNDQgMzYuNTMxIDE3LjQzOGwyNzEuMjE5LS4wNjJjMTQuMjEyLjAxIDI3LjY1Ny02LjM5NiAzNi41MzEtMTcuNDA2bDE2OS4wNjMtMjEwLjMxM2M4Ljg3My0xMS4wMjggMTIuMTk3LTI1LjQ2NCA5LjAzMS0zOS4yMTlsLTYwLjM3NS0yNjIuMjVjLTMuMTY1LTEzLjc0OC0xMi40Ny0yNS4zMTktMjUuMjgxLTMxLjQzN0wzODEuNjQzIDE0LjU5MmMtNy4wNS0zLjM2OC0xNC44NDEtNC45MjYtMjIuNjU2LTQuNTMxeiIvPiYjeGE7CTxwYXRoIGNsYXNzPSJzdDEgc3QyIiBkPSJNMzYxLjQwOCA5OS4zMDhjLTguMDc3LjAwMS0xNC42MjYgNy4yNzYtMTQuNjI1IDE2LjI1IDAgLjEzOC4wMjguMjY5LjAzMS40MDYtLjAxMiAxLjIxOS0uMDcxIDIuNjg4LS4wMzEgMy43NS4xOTMgNS4xNzYgMS4zMjEgOS4xMzcgMiAxMy45MDYgMS4yMyAxMC4yMDcgMi4yNjEgMTguNjY3IDEuNjI1IDI2LjUzMS0uNjE5IDIuOTY1LTIuODAzIDUuNjc3LTQuNzUgNy41NjNsLS4zNDQgNi4xODhjLTguNzc3LjcyNy0xNy42MTIgMi4wNTktMjYuNDM3IDQuMDYzLTM3Ljk3NSA4LjYyMi03MC42NyAyOC4xODMtOTUuNTYyIDU0LjU5NC0xLjYxNS0xLjEwMi00LjQ0MS0zLjEyOS01LjI4MS0zLjc1LTIuNjExLjM1My01LjI1IDEuMTU4LTguNjg3LS44NDQtNi41NDUtNC40MDYtMTIuNTA2LTEwLjQ4Ny0xOS43MTktMTcuODEyLTMuMzA1LTMuNTA0LTUuNjk4LTYuODQxLTkuNjI1LTEwLjIxOS0uODkyLS43NjctMi4yNTMtMS44MDUtMy4yNS0yLjU5NC0zLjA3LTIuNDQ4LTYuNjkxLTMuNzI0LTEwLjE4Ny0zLjg0NC00LjQ5Ni0uMTU0LTguODI0IDEuNjA0LTExLjY1NiA1LjE1Ni01LjAzNSA2LjMxNS0zLjQyMyAxNS45NjggMy41OTQgMjEuNTYzLjA3MS4wNTcuMTQ3LjEwMS4yMTkuMTU2Ljk2NC43ODIgMi4xNDUgMS43ODMgMy4wMzEgMi40MzggNC4xNjcgMy4wNzcgNy45NzMgNC42NTEgMTIuMTI1IDcuMDk0IDguNzQ3IDUuNDAyIDE1Ljk5OCA5Ljg4MSAyMS43NSAxNS4yODEgMi4yNDYgMi4zOTQgMi42MzkgNi42MTMgMi45MzggOC40MzhsNC42ODggNC4xODhjLTI1LjA5MyAzNy43NjQtMzYuNzA3IDg0LjQwOS0yOS44NDQgMTMxLjkzOGwtNi4xMjUgMS43ODFjLTEuNjE0IDIuMDg1LTMuODk1IDUuMzY1LTYuMjgxIDYuMzQ0LTcuNTI1IDIuMzctMTUuOTk0IDMuMjQxLTI2LjIxOSA0LjMxMy00LjguMzk5LTguOTQyLjE2MS0xNC4wMzEgMS4xMjUtMS4xMi4yMTItMi42ODEuNjE5LTMuOTA2LjkwNi0uMDQzLjAwOS0uMDgyLjAyMi0uMTI1LjAzMS0uMDY3LjAxNS0uMTU1LjA0OC0uMjE5LjA2My04LjYyIDIuMDgzLTE0LjE1OCAxMC4wMDYtMTIuMzc1IDE3LjgxM3MxMC4yMDMgMTIuNTU3IDE4Ljg3NSAxMC42ODhjLjA2My0uMDE0LjE1NC0uMDE3LjIxOS0uMDMxLjA5OC0uMDIyLjE4NC0uMDcuMjgxLS4wOTQgMS4yMDktLjI2NSAyLjcyNC0uNTYxIDMuNzgxLS44NDQgNS4wMDMtMS4zNCA4LjYyNy0zLjMwOCAxMy4xMjUtNS4wMzEgOS42NzctMy40NzEgMTcuNjkyLTYuMzcgMjUuNS03LjUgMy4yNjEtLjI1NSA2LjY5NyAyLjAxMiA4LjQwNiAyLjk2OWw2LjM3NS0xLjA5NGMxNC42NyA0NS40ODMgNDUuNDE0IDgyLjI0NSA4NC4zNDQgMTA1LjMxMmwtMi42NTYgNi4zNzVjLjk1NyAyLjQ3NSAyLjAxMyA1LjgyNSAxLjMgOC4yNjktMi44MzkgNy4zNjEtNy43MDEgMTUuMTMxLTEzLjIzOCAyMy43OTMtMi42ODEgNC4wMDItNS40MjUgNy4xMDgtNy44NDQgMTEuNjg4LS41NzkgMS4wOTYtMS4zMTYgMi43NzktMS44NzUgMy45MzgtMy43NTkgOC4wNDItMS4wMDIgMTcuMzA1IDYuMjE5IDIwLjc4MSA3LjI2NiAzLjQ5OCAxNi4yODQtLjE5MSAyMC4xODctOC4yNS4wMDYtLjAxMS4wMjYtLjAyLjAzMS0uMDMxcy0uMDA0LS4wMjMgMC0uMDMxYy41NTYtMS4xNDMgMS4zNDQtMi42NDQgMS44MTMtMy43MTkgMi4wNzItNC43NDcgMi43NjItOC44MTUgNC4yMTktMTMuNDA2IDMuODctOS43MiA1Ljk5Ni0xOS45MTkgMTEuMzIzLTI2LjI3NCAxLjQ1OS0xLjc0IDMuODM3LTIuNDA5IDYuMzAyLTMuMDdsMy4zMTMtNmMzMy45MzggMTMuMDI3IDcxLjkyNyAxNi41MjIgMTA5Ljg3NSA3LjkwNmExODkuNzcgMTg5Ljc3IDAgMCAwIDI1LjA5NC03LjU2MmwzLjEyNSA1LjYyNWMyLjUwNi44MTUgNS4yNCAxLjIzNiA3LjQ2OSA0LjUzMSAzLjk4NSA2LjgwOSA2LjcxMSAxNC44NjQgMTAuMDMxIDI0LjU5NCAxLjQ1NyA0LjU5MSAyLjE3OCA4LjY1OSA0LjI1IDEzLjQwNi40NzIgMS4wODIgMS4yNTYgMi42MDUgMS44MTMgMy43NSAzLjg5NSA4LjA4NSAxMi45NDIgMTEuNzg3IDIwLjIxOSA4LjI4MSA3LjIxOS0zLjQ3OCA5Ljk4LTEyLjc0IDYuMjE5LTIwLjc4MWwtMS45MDYtMy45MzdjLTIuNDE5LTQuNTgtNS4xNjMtNy42NTQtNy44NDQtMTEuNjU2LTUuNTM3LTguNjYyLTEwLjEzLTE1Ljg1OC0xMi45NjktMjMuMjE5LTEuMTg3LTMuNzk3LjItNi4xNTggMS4xMjUtOC42MjUtLjU1NC0uNjM1LTEuNzM5LTQuMjItMi40MzctNS45MDYgNDAuNDU3LTIzLjg4OCA3MC4yOTktNjIuMDIxIDg0LjMxMy0xMDYuMDYyIDEuODkyLjI5NyA1LjE4Mi44NzkgNi4yNSAxLjA5NCAyLjItMS40NTEgNC4yMjItMy4zNDQgOC4xODgtMy4wMzEgNy44MDggMS4xMjkgMTUuODIzIDQuMDMgMjUuNSA3LjUgNC40OTggMS43MjMgOC4xMjIgMy43MjMgMTMuMTI1IDUuMDYzIDEuMDU3LjI4MyAyLjU3Mi41NDcgMy43ODEuODEzLjA5Ny4wMjQuMTgzLjA3MS4yODEuMDk0LjA2NS4wMTUuMTU2LjAxNy4yMTkuMDMxIDguNjcyIDEuODY3IDE3LjA5NC0yLjg3OSAxOC44NzUtMTAuNjg3cy0zLjc1NC0xNS43MzItMTIuMzc1LTE3LjgxMmMtMS4yNTQtLjI4NS0zLjAzMi0uNzY5LTQuMjUtMS01LjA4OS0uOTY0LTkuMjMxLS43MjYtMTQuMDMxLTEuMTI1LTEwLjIyNS0xLjA3MS0xOC42OTMtMS45NDMtMjYuMjE5LTQuMzEyLTMuMDY4LTEuMTktNS4yNTEtNC44NDEtNi4zMTMtNi4zNDRsLTUuOTA2LTEuNzE5YzMuMDYyLTIyLjE1NCAyLjIzNy00NS4yMTEtMy4wNjItNjguMjgxLTUuMzQ4LTIzLjI4NS0xNC44LTQ0LjU4MS0yNy40MDYtNjMuMzQ0bDUuMTg4LTQuNjU2Yy4yMzctMi42MjQuMDMzLTUuMzc2IDIuNzUtOC4yODEgNS43NTEtNS40MDEgMTMuMDAzLTkuODc5IDIxLjc1LTE1LjI4MSA0LjE1Mi0yLjQ0MyA3Ljk5LTQuMDE3IDEyLjE1Ni03LjA5NC45NDItLjY5NiAyLjIyOS0xLjc5OCAzLjIxOS0yLjU5NCA3LjAxNS01LjU5NiA4LjYzMS0xNS4yNDggMy41OTQtMjEuNTYycy0xNC43OTctNi45MDktMjEuODEyLTEuMzEyYy0uOTk5Ljc5MS0yLjM1NCAxLjgyMy0zLjI1IDIuNTk0LTMuOTI3IDMuMzc4LTYuMzUxIDYuNzE0LTkuNjU2IDEwLjIxOS03LjIxMiA3LjMyNi0xMy4xNzQgMTMuNDM4LTE5LjcxOSAxNy44NDQtMi44MzYgMS42NTEtNi45OSAxLjA4LTguODc1Ljk2OWwtNS41NjIgMy45NjljLTMxLjcxOS0zMy4yNjEtNzQuOTA1LTU0LjUyNS0xMjEuNDA2LTU4LjY1NmwtLjM0NC02LjUzMWMtMS45MDQtMS44MjItNC4yMDMtMy4zNzctNC43ODEtNy4zMTItLjYzNi03Ljg2NC40MjYtMTYuMzI1IDEuNjU2LTI2LjUzMS42NzktNC43NjkgMS44MDctOC43MyAyLTEzLjkwNi4wNDQtMS4xNzctLjAyNi0yLjg4NC0uMDMxLTQuMTU2LS4wMDEtOC45NzQtNi41NDgtMTYuMjUxLTE0LjYyNS0xNi4yNXptLTE4LjMxMiAxMTMuNDM4bC00LjM0NCA3Ni43MTktLjMxMi4xNTZjLS4yOTEgNi44NjMtNS45NCAxMi4zNDQtMTIuODc1IDEyLjM0NGExMi44MiAxMi44MiAwIDAgMS03LjU5NC0yLjQ2OWwtLjEyNS4wNjMtNjIuOTA2LTQ0LjU5NGMxOS4zMzQtMTkuMDExIDQ0LjA2My0zMy4wNiA3Mi41NjItMzkuNTMxIDUuMjA2LTEuMTgyIDEwLjQxLTIuMDU5IDE1LjU5NC0yLjY4N3ptMzYuNjU2IDBjMzMuMjczIDQuMDkyIDY0LjA0NSAxOS4xNTkgODcuNjI1IDQyLjI1bC02Mi41IDQ0LjMxMy0uMjE5LS4wOTRhMTIuOTEgMTIuOTEgMCAwIDEtMTcuNjg3LTIuMzc1Yy0xLjc3MS0yLjIyMS0yLjcwMS00LjgzMi0yLjgxMi03LjQ2OWwtLjA2Mi0uMDMxek0yMzIuMTI2IDI4My42Mmw1Ny40MzcgNTEuMzc1LS4wNjIuMzEzYTEyLjg4IDEyLjg4IDAgMCAxIDEuNjI1IDE3Ljc1IDEyLjg5IDEyLjg5IDAgMCAxLTYuNjg3IDQuNDA2bC0uMDYyLjI1LTczLjYyNSAyMS4yNWMtMy43NDctMzQuMjY1IDQuMzI5LTY3LjU3NCAyMS4zNzUtOTUuMzQ0em0yNTguMTU2LjAzMWM4LjUzNCAxMy44MzMgMTQuOTk3IDI5LjI4MiAxOC44NDQgNDYuMDMxIDMuODAxIDE2LjU0OCA0Ljc1NSAzMy4wNjcgMy4xODggNDkuMDMxbC03NC0yMS4zMTItLjA2Mi0uMzEyYy02LjYyNy0xLjgxMS0xMC42OTktOC41NTItOS4xNTYtMTUuMzEyLjYzMi0yLjc3IDIuMTAyLTUuMTEzIDQuMDk0LTYuODQ0bC0uMDMxLS4xNTYgNTcuMTI1LTUxLjEyNXptLTE0MC42NTYgNTUuMzEzaDIzLjUzMWwxNC42MjUgMTguMjgxLTUuMjUgMjIuODEzLTIxLjEyNSAxMC4xNTYtMjEuMTg3LTEwLjE4Ny01LjI1LTIyLjgxMnptNzUuNDM4IDYyLjU2M2ExMi44MyAxMi44MyAwIDAgMSAyLjk2OS4yMTlsLjEyNS0uMTU2IDc2LjE1NiAxMi44NzVjLTExLjE0NiAzMS4zMTMtMzIuNDczIDU4LjQ0LTYwLjk2OSA3Ni41OTRsLTI5LjU2Mi03MS40MDYuMDk0LS4xMjVjLTIuNzE2LTYuMzEuMDAyLTEzLjcxIDYuMjUtMTYuNzE5IDEuNi0uNzcgMy4yNzEtMS4xOTcgNC45MzgtMS4yODF6bS0xMjcuOTA2LjMxM2ExMi45IDEyLjkgMCAwIDEgMTIuMzc1IDEwLjAzMSAxMi43NyAxMi43NyAwIDAgMS0uNzE5IDcuOTM4bC4yMTkuMjgxLTI5LjI1IDcwLjY4OGMtMjcuMzQ3LTE3LjU0OS00OS4xMjktNDMuODI0LTYwLjc4MS03Ni4wNjJsNzUuNS0xMi44MTIuMTI1LjE1NmMuODQ1LS4xNTUgMS43MDEtLjIzIDIuNTMxLS4yMTl6bTYzLjc4MSAzMC45NjljMi4wMjQtLjA3NCA0LjA3OS4zNDEgNi4wMzEgMS4yODEgMi41NiAxLjIzMyA0LjUzNyAzLjE3MyA1Ljc4MSA1LjVoLjI4MWwzNy4yMTkgNjcuMjVjLTQuODMgMS42MTktOS43OTYgMy4wMDMtMTQuODc1IDQuMTU2LTI4LjQ2NSA2LjQ2My01Ni44MzkgNC41MDUtODIuNTMxLTQuMjVsMzcuMTI1LTY3LjEyNWguMDYzYTEyLjkxIDEyLjkxIDAgMCAxIDEwLjkwNi02LjgxMnoiIHN0cm9rZT0ibm9uZSIgc3Ryb2tlLXdpZHRoPSIuMjUiLz4mI3hhOzwvc3ZnPg==;fontColor=default;" vertex="1" parent="1">
          <mxGeometry x="492.4599999999999" y="187.71" width="50" height="47.5" as="geometry" />
        </mxCell>
        <mxCell id="9XsZ4Fnl_TqAU3Pvs2_y-42" value="" style="image;aspect=fixed;perimeter=ellipsePerimeter;html=1;align=center;shadow=0;dashed=0;spacingTop=3;image=img/lib/active_directory/firewall.svg;" vertex="1" parent="1">
          <mxGeometry x="385.08" y="80" width="30.5" height="50" as="geometry" />
        </mxCell>
        <mxCell id="9XsZ4Fnl_TqAU3Pvs2_y-44" value="" style="shape=image;imageAspect=0;aspect=fixed;verticalLabelPosition=bottom;verticalAlign=top;image=data:image/png,iVBORw0KGgoAAAANSUhEUgAAB9AAAAJTCAYAAABQJI2oAAAACXBIWXMAAAfPAAAHzwGGUVlPAAAAGXRFWHRTb2Z0d2FyZQB3d3cuaW5rc2NhcGUub3Jnm+48GgAAIABJREFUeJzs3Wt4XWWBt/H7WTtJD1AolEKhTdIW6oGqyMET8IrYygiIpU0akdOIjKCgjiOOOPOKdjyMoqOjCCqoqBwc2UkKvFUEbMUZwdEBPFJAS2mTlGMpFFraJs1ez/uhOIqc0mbv/ezs3L/r6pU2Tda62ybph3/WWgFJw/PtVWPZvbA7/XEiFHYlxImEOBHYFeJEQjYR4kQiYwhhJyLjII4FJhBoIDIRyAhMfMaxI2OA8c88adxACIN/9bY58DgwSGADkS3AZuBJQhggxieI9AOPk4X1kK8n5zEIjxPDehrCegoDj/Pgo49y5iFby/y3JEmSJEmSJEmSJNW8kDpAqkk3xQYevW8K+WALhKmEbC/IJxPCXkT2AiYDe0KcAmFC6twKWAc8DKwlhIeI8SEIayE+TOQBMu6HfA0LWh8khJg6VpIkSZIkSZIkSSoHB3SNTteunUB//75kcV+ILURaIEwjy6cSQwswBSikzhwBBoD7Cawh0gvxPmANkXspxJU8Hldx2owtqSMlSZIkSZIkSZKkoXBAV/26smc3GgsvIZRmEdiXwL7ATCL7Qtgzdd4oEYH7CKwkPvUjYyXkK2hqupvj9tmUOlCSJEmSJEmSJEn6Ewd0jXxX9uxGI7MpsD9kM4nMhrg/MAM/xmvdA8ByCPdCfieB5TSUfs+8mQ+lDpMkSZIkSZIkSdLo47iokePi2xqZPGV/SqUDCOGVEF8J4QBg99RpKrv7IP6WEH5DHn9DyH7DHdNWsijkqcMkSZIkSZIkSZJUvxzQVZu+vWosOzUeSCEeAvFAIgcALwOaUqcpmY0QfkeMv4HwawrhVnabupwjw2DqMEmSJEmSJEmSJNUHB3TVhu6emeQcTsgOhngwcDAwNnWWat5WAr8jhluI+e0Ebqet5U5CiKnDJEmSJEmSJEmSNPI4oKv6rl07gYHNryPjcGI8HDgEwoTUWaoX8WHI/oeY30zGzZQ23krH7IHUVZIkSZIkSZIkSap9DuiqvMX37Ene+BpCdthTg/mr8Fbsqp5tV6kTlhLzW+jnZk5qfSx1lCRJkiRJkiRJkmqPA7rKr9i3OxlHQpwD4UiIL0mdJP2FEvBrYvwJhGWMbbiZ4/bZlDpKkiRJkiRJkiRJ6Tmga/iKfeMo5Idte4Z5OAw4AmhMnSUN0SCB30JYCvlSShv/y1u+S5IkSZIkSZIkjU4O6NoxXT2zITuGyJsJ8VBgbOokqUweB24ixutpbLiO46f2pQ6SJEmSJEmSJElSdTiga2j+dJU52VxifjyEF6dOkqrkXgg/IORLvDpdkiRJkiRJkiSpvjmg67ldc18zg6W3AscCbwDGpQ2SEgs8RuRGQvwhW/gBJ7U+ljpJkiRJkiRJkiRJ5eOArqfr7plJ5DgIC4FD8WNEei4l4BcQOwmFbtqmrUkdJEmSJEmSJEmSpOFxHNW255lHFhLCQmD/1DnSCHUnMXZSiFexYPpdqWMkSZIkSZIkSZK0/RzQR6uu3kOInECgA2hOnSPVmd8DV1Hg+8xvWZk6RpIkSZIkSZIkSUPjgD6a/PlK87cDL0qdI40S265MbwiXO6ZLkiRJkiRJkiTVNgf0etfdMxPCiUTeBrwsdY40iuUEfk7k+ww0XMWJ+zySOkiSJEmSJEmSJElP54Bej65YsQtjmo4nhFOAOfjvLNWaEnATMV5OzDrpaN6cOkiSJEmSJEmSJEkOq/VjUczYv/dQsuwUiCcBO6VOkjQk6yEUyfPLWdhyCyHE1EGSJEmSJEmSJEmjlQP6SNfVN4uY/x0hnARMTZ0jaVjuIoTv0LD1u8yb+VDqGEmSJEmSJEmSpNHGAX0kKi5vIuw8jxDOwFu0S/XoT7d4v4TYspiOUEodJEmSJEmSJEmSNBo4vI4kXX2zCJxOzE+DsGfqHElVsYYQrqSQXcTxU/tSx0iSJEmSJEmSJNUzB/Rad/Ftjeyx5wIi7waOwH8zabTaCiwhxK+xoGWZz0qXJEmSJEmSJEkqP8fYWrX4nj0pNZ5GCGcBLalzJNWUFcT4LRryi5k/Y33qGEmSJEmSJEmSpHrhgF5rij0Hk2VnQDwFGJc6R1JNewLC98nzL9PRemfqGEmSJEmSJEmSpJHOAb0WXHxbI5P2ehshvo/Iq1PnSBpxcojXQ7iAtuYbvb27JEmSJEmSJEnSjnFAT+natRPYuumdEM4BmlPnSKoLKyBexIb8Yk6bsSV1jCRJkiRJkiRJ0kjigJ5CcdUUQvZusvB+IrulzpFUhyIPQfw6MbuAjuZHU+dIkiRJkiRJkiSNBA7o1bR4zQHk8RyIJwCNqXMkjQobIVxK2PpF2mb2pI6RJEmSJEmSJEmqZQ7o1dDdcxgx+wjEY/HvXFIaOSF0E0ofZ8H0u1LHSJIkSZIkSZIk1SLH3Eoq9hxOlp0L8S2pUyTpKTmE68jzRXS03p46RpIkSZIkSZIkqZY4oFdCd89cYvgk8NrUKZL0PJYSsvNom/aL1CGSJEmSJEmSJEm1wAG9XGIMdK2ZT4gfAw5InSNJ2+FGYv4vLJz+89QhkiRJkiRJkiRJKTmgl8O2K84/AxySOkWShmEpgX+mreXW1CGSJEmSJEmSJEkpOKAPR7HncArhU0SOSJ0iSWW0lJCfS9v0X6UOkSRJkiRJkiRJqiYH9B1RXPM6svhJiHNSp0hShURC6KKUnUfH1D+kjpEkSZIkSZIkSaoGB/Tt0dX3CoifBY5OnSJJVVICvkvIPk7btDWpYyRJkiRJkiRJkirJAX0outdMI8bzIJ4OFFLnSFICAxC+TmHw48yfsT51jCRJkiRJkiRJUiU4oD+fK3t2Y2x2LjG+HxiXOkeSasCjxPg5NuZf5rQZW1LHSJIkSZIkSZIklZMD+rMpLm+isPM7iOFTwOTUOZJUg/oI8VOUWr5FRyiljpEkSZIkSZIkSSoHB/S/1tVzHIQvAzNSp0jSCPArIh9gYcvPUodIkiRJkiRJkiQNlwP6n3StPhCyLwGvT50iSSNP+AGFwfcxf8bq1CWSJEmSJEmSJEk7ygF98ZpJ5PFjEM8GCqlzJGkE20wIF1Aa8yk69tyYOkaSJEmSJEmSJGl7jd4Bvbi8iTDh/QQ+CuyaOkeS6kgfkQ/T3nwVIcTUMZIkSZIkSZIkSUM1Ogf0zr43EOJFwP6pUySpjv2MjLNY0HJH6hBJkiRJkiRJkqShGF0DevfqvYmF8yGezGj7s0tSGoMQvkrj2I8yb/KG1DGSJEmSJEmSJEnPZ3SMyDfFBtb1ng3hE8AuqXMkadSJ3A/xn1jYelnqFEmSJEmSJEmSpOdS/wN6sedwsnAR8IrUKZKkeBNZPJsF0+9KXSJJkiRJkiRJkvTX6ndAv3rVRPLs88RwOvX855SkkaefyKeJG86nY/ZA6hhJkiRJkiRJkqQ/qc9huavnOAhfBaalTpEkPac7CNm7aJv2i9QhkiRJkiRJkiRJUG8DenHVFELDVwixPXWKJGlIIoRv0Dj2Q8ybvCF1jCRJkiRJkiRJGt3qY0CPMdDVewoh/Duwe+ocSdJ2itxP4GzaW65JnSJJkiRJkiRJkkavkT+gX927LznfInJE6hQJ2Ag8CKwDHgfWQ1hPzNeTsZ48PE4ITxDzfgrZBmI+SInHoFCiUHoCgFK+ia1Z/zOOXBozQKG/6Rmvb8zGU8jHbHsbdiPLGgj5BIhjyMN4AuMJ2S7kcSKwK4GJxLArIU4ksBuRycBkYFyF/k6koQvxSkrZ++lofjR1iiRJkiRJkiRJGn1G7oAeY6C77yzgfGCn1Dmqe2uB+yH0QVxD4D5gDeRrKRXWQuFBKK2lo3lz6tAdVnx4Z+ifQijtCdlksrgXOfsQQjMwFZgGNAO7pA3VKPAAxDNpb12SOkSSJEmSJEmSJI0uI3NAv3rVdErZpRCOTJ2iehE3QLgXWAlxJZGVFLiXwWwVTw6u4bQZW1IX1oxr106gf1MzhTiDGPaFbF8i+xLiTGAmMCZ1ourGdymUPsD8GetTh0iSJEmSJEmSpNFhZA3o2551fgaBz0OYkDpHI1HogfgHIndCvJss3EUYuJsF+z2cuqwuxBjofKCZhq0vJmd/Qngp8BIi+7PtNvHS9lpDFt7FgubrU4dIkiRJkiRJkqT6N3IG9Gvua2aw9E3gqNQpGhGeIPA7Ir8hht8S4m/Ix95Nx54bU4eNWovXTCLmsyEcQIwHEHglkZfhFet6YZEQv0XD+A8yb/KG1DGSJEmSJEmSJKl+jYwBvbv3bUS+DkxMnaIaFHiMyK3ArRB+TSH+huOb7yWEmDpNL+Cm2MDaNS8l4wCIBwGvBg4ExicuU21aRZ6dRMe0/04dIkmSJEmSJEmS6lNtD+hXrNiFsWMvhHhK6hTVjC0QfgXcSuRWAv9D27R7HMvryE2xgbX3vYwsvoqQv5oYXg3MBgqp01QTBonx0+zR8imODIOpYyRJkiRJkiRJUn2p3QG9q+81EK8A9kudoqQ2Ar8gxlvIuJkn8ps5bcaW1FGqsuLDO1PY/FpyDieEw4DDgHGps5RQ4H+I4WTam1ekTpEkSZIkSZIkSfWj9gb0m2ID63rPg/B/8YrT0ehR4KcQbgL+izum3cGikCduUq25bsUYNjcdAryePBxJ4HAc1EehuIEQ3k9by3dSl0iSJEmSJEmSpPpQWwP61aumUyr8B/Da1Cmqmk3AzYSwjFK+jDtbfu1gru123YoxbB53KDGfQ4hvJIZXAQ2ps1QlIXRSGngXHfs+njpFkiRJkiRJkiSNbLUzoHf2LSDEbwETU6eo4u4EriNk1zFu8885ZlZ/6iDVmStW7MLYMW+EeAyEo4FpqZNUcfcCb6O95bbUIZIkSZIkSZIkaeRKP6Bft2IMm8Z+DuL7aqJHlbAZuAXiDwila2ib2ZM6SKNMd89MIsdBeAvweqApdZIqYpAYP0p7y+cIIaaOkSRJkiRJkiRJI0/awbrYtx+F+H0iByftUCWsBf4fMV7Dxnwpp83YkjpIAuDKnt0Ykx0L+fEQ3gzslDpJZXcN/fGdnNT6WOoQSZIkSZIkSZI0sqQb0Lv75hPjpXjL9joSeoBrCfkSdm/5KUeGwdRF0vP69qqx7JIdTsyOg9gBTEmdpLLpI8S309Z6S+oQSZIkSZIkSZI0clR/QC8ubyKb8EXg7KqfW5WwmhCuIpauon36r1PHSDusGAs09BxBHk6AsACYlDpJw7YV4j/S3vrl1CGSJEmSJEmSJGlkqO6AXuybSkYR4qFVPa/K7T4I3eR5JwtbbvFZw6o7xViA3teRZQsJ8UQie6RO0jAEvs+TTX/HqVOeTJ0iSZIkSZIkSZJqW/UG9GLfEYR4FYG9qnZOldPjhNgJ4XJ+33wzi0KeOkiqiutWjGHTmKOJnErgWKApdZJ2yB0QFtDevCJ1iCRJkiRJkiRJql3VGdC7e84ghguBxqqcT+WSAz8hxsvZPKbbqzc16l29aiJ51kEMpwKHkuIxGBqGuAGy02hv7k5dIkmSJEmSJEmSalNlx5/iwzuTbfkW0FHR86jc7iRwKeTfo236A6ljpJrUteolxMKpwN8S2Cd1joYsEvgMpeaP0RFKqWMkSZIkSZIkSVJtqdyAfs19zQyWrgEOqtg5VE5bCGEJ5JewoGWZzzWXhmhRzHh57xshO4MY5wMNqZM0JDdQKJ3A/BnrU4dIkiRJkiRJkqTaUZkBvdhzOBndEPasyPFVTncR43cpFL7JgmnrUsdII9q1vfswEE8hhDOBGalz9ILuIcvfyoLpd6UOkSRJkiRJkiRJtaH8A3pn71kEvoTPO69lA4TYCYULaZv2i9QxUt0pxgKFvmPJeS+Bufis9Fq2HjiB9pYbUodIkiRJkiRJkqT0yjfq3BQbeKT3i4TwvrIdU+X2ICF8F8KFtE1bkzpGGhW6+mYROB3iGUR2S52jZ1Uixv/LwtbzU4dIkiRJkiRJkqS0yjOgFx+YTLa1C3h9WY6n8grcTB4v4NG113DmIVtT50ij0rVrJ7B186nA+4EXpc7Rs/oO4/vfzTGz+lOHSJIkSZIkSZKkNIY/oBf79iOL1wGzhp+jMsohXEcsfYaF03+eOkbSUxbFjJf3vpGY/T3Et6TO0TP8gmxgHgv2ezh1iCRJkiRJkiRJqr7hDejdPYdBuIbIHmXq0fBthPA98uyLdEz9Q+oYSc+ja/WBUPgHiG8HGlLn6H/dC6VjaZ9xd+oQSZIkSZIkSZJUXTs+oHf1/C2ES4Cm8uVoGNYCX6Y/fpWTWh9LHSNpOxRXzyDLPgicDoxLnSMA1hGZz8KWn6UOkSRJkiRJkiRJ1bP9A3qMga7ejxPCx3bo/VVekYcg/jtjG7/CcftsSp0jaRiKD0wmDJxNCH8PTEydIwYgnE578xWpQyRJkiRJkiRJUnVs3wBeXN5Etss3IZ5SoR4N3WqIX2JDfjGnzdiSOkZSGV2xYhfGNL2HED4M7J46Z5SLxPgJ2lv+hRBi6hhJkiRJkiRJklRZQx/Qiyt3JWu8BnhDxWo0FCuJ8RPs0fI9jgyDqWMkVdC1aycwuOm9xHAOMCl1zij3LSY1v9uvu5IkSZIkSZIk1behDejFVVPIGq6DeGCFe/Tcegnx0+zecqkDjjTKFB/embD5bLJwLpHdUueMYksY03CCj8uQJEmSJEmSJKl+vfCA3t0zkxhuAParfI6eKT5M5ItszL/srdqlUe7atRMY2HQWIfwTsGvqnFEp8D/0NxzLifs8kjpFkiRJkiRJkiSV3/MP6MW+V5PFHwCTq5Ojv7AO+DQbSl9zOJf0NN+7fw8aBz9C4L3AmNQ5o9CdNBTezPFT+1KHSJIkSZIkSZKk8nruAb2zZw6BqyFMqGKPYBMhfIVs8LPMn7E+dYykGta9ZhoxngfxdKCQOmeUeYAsO5oF036bOkSSJEmSJEmSJJXPsw/onX0nEeK3gcbq5oxqgxC/TWNYxLyW+1PHSBpBuvpeAfGzwNGpU0aVwGPk+VtYOP3nqVMkSZIkSZIkSVJ5PHNA7+w5kxC+CmTVzxmlIv+PUDqX9hl3p06RNIJ1rzmSmP8bcFDqlFHkSWKcx8LWZalDJEmSJEmSJEnS8D19QO/qey/EC57xelVIuBs4h/bm61KXSKoTMQa6ek8hhPOBKalzRol+YjiRhc2LU4dIkiRJkiRJkqTh+fNQ3tlzLiF8NmHLaPIoxE8wqeUijgyDqWMk1aHLHtyJcf3/SAjnAmNT54wCJYin09763dQhkiRJkiRJkiRpxwViDHT3/RvwwdQxo8AghK/Sny/ipNbHUsdIGgWu7t2XQT5PYH7qlFGgBOE9tDd/I3WIJEmSJEmSJEnaMYGu3q8B704dMgr8jDycTUfz71OHSBqFFve9mTxeAMxKnVLnIiH8PW3NX0kdIkmSJEmSJEmStl9G5D8BbyNeOY9C/AB3NL/B8VxSMguar2fdw7MhfgDYmDqnjm2CcEfqCEmSJEmSJEmStGO2PQO9s2chIVwJNKbNqSs5hCvJwj+wYNq61DGS9L+610wjj/9OiO2pU+rMekJ2NG3TfpE6RJIkSZIkSZIk7Zjwvz/r6j0euApoSlZTN8KvyfN30dF6e+oSSXpOnb3zCFwETE2dUgfWEfKjaJv+q9QhkiRJkiRJkiRpx4Wn/aqz72hC7AbGpckZ8TYT4+eIG/+VjtkDqWNU465YsQuhqUBj4wQKWxvIQmBrnLjtNwtNFEo7AZCHnSD++RtbAlsIbAYgZhvI80EKMUJYD0Ap62drvonSmAFOnfJkdf9QGnEue3Andtp6HjF+CCikzhmZ4sOQvYn25t+lLpEkSZIkSZIkScMTnvGaYt8RZPEHwM7VzxnR/ou8cAYdU/+QOkQJXLdiDJvGtpDnexHCJAKTiOxOFvYgxj2AScDuT738049qPDJhC7DuqR+PQlwHYe2fXxcfJbKOWFhH49YHmDh9DUeGwSp0qdZ0rj6UkF0CzE6dMqJEHqLAXBa0+NxzSZIkSZIkSZLqwDMHdHBE3z6PEjiHBc3fJYSYOkYVUlzeRGHnacBMcvYB9iZkMyHOBGYCrdTL1buBx4B7Idy77WX+1EvuZfeWXgf2OlZc3kRhl38ixn/Gx3kMRR+EObQ3r0gdIkmSJEmSJEmSyuPZB3SArt5DgBvYdtWsnt2PyMO76Gi+L3WIymTxPXsSG18BvIwYXkaI+xPDdGDvtGE1YxDCfRBXEbkT4u/IuIPS4B107Pt46jiVSVfPbEL4LpGDU6fUrtBDIc5hfsvK1CWSJEmSJEmSJKl8nntAB+hefRAxu5Ftt5vWnz1OiB+mrfWS1CHaQcXlTWQ7zyJyMFm2P5HZEA/GoXw4HgCWQ7iTmN9OZDlkd9LRvDl1mHbATbGBR3rPIYRP4NXof20VeT6HjumrUodIkiRJkiRJkqTyev4BHaC45pVk+Y3A5MrnjAg3ELK/o23amtQhGqKLb2tk0l4HEfLXQXYoMR4EzACy1GmjwFbgD8BtEH5OFv+b3zXfyaKQpw7TEBX7Xk4WvwMclDqlNoS7yZnrnUckSZIkSZIkSapPLzygw7bb+RKWAlMqm1PL4gZC9g+0NX8rdYleQHHlrhQaXkXO4YRwGHAYMC51lv4kboDwO0K4mZjfQj83c1LrY6mr9DyKy5sIExYR+DBQSJ2T0O/IBt7Egv0eTh0iSZIkSZIkSZIqY2gDOsDiNS8iz5cB0yqXU6MC/0MMJ9PevCJ1ip7Ftm/w+D8QDoX4OmC/1EnaLiXgDuDnhPjflBr/k459elNH6Vl0r3ktMb8C2Dd1SvWFXzNQOIoT93kkdYkkSZIkSZIkSaqcoQ/oAFevmk6psAyYWZmcmjNICF/gkYfO48xDtqaO0VOKD+9MtvlIyN4C8c1AS+okld29EJYS86U0jb+eeZM3pA7SU65YsQtjx34e4hmpU6omcDulcBQdzY+mTpEkSZIkSZIkSZW1fQM6QPH+FrLBZdT/Vb6riZzKwpafpQ4Z9YqxAL2vJDCXEOYCRwCNqbNUNYPAL4lxCZGlLGz5FSHE1FGjXndPOzFcDOyeOqWiAjezuf9YTp71ROoUSZIkSZIkSZJUeds/oAMU+6aS5csgvLjMPTUiXkHj+LO86jWhYt9UAkeTcRTEuUR2S52kmnEfcAPEGyjkNzJ/xvrUQaPWtm+o+h5wWOqUiojhJ2xufCunTnkydYokSZIkSZIkSaqOHRvQARbfsyd501Lg5eXLSW4LxI/Q3vrl1CGjUveaacRSG4SFwOuALHWSal4J+AXETrKt/8GC/R5OHTTq3BQbeKT3o4RwHvX0ORu5nhgW0NG8OXWKJEmSJEmSJEmqnh0f0AGu7NmNMeEG4FXlyUkp3E1OBx3Nv09dMqpcc18zg4MLnhrND2W4H5MazRzTU1q8+o3k2ZXAlNQpwxbDD9k42M5pM7akTpEkSZIkSZIkSdU1/LHy6lUTKRWuB14z/JxUwuVsanyPt+mtEkdzVd6fx/TG0veZN/Oh1EGjwrY7k1wOHJU6ZRiWML5/IcfM6k8dIkmSJEmSJEmSqq88w2Vx5a5kTddBPLQsx6uezcT4bha2XpY6pO4V+3Yny08mhJOIvApHc1XPIPATCJeT0+0tuSusGAtkff8C/DMj7/P8e0xq/luODIOpQyRJkiRJkiRJUhrlGzcue3Anxm+9FuKcsh2zsnoJtNPWcmvqkLq1KGbs33soWXYKxJOB8amTNOo9DuEq8vxyOlpvTh1T17pXHwvZ5UR2S50yRI7nkiRJkiRJkiSpzFcHLrl/PP2DV1Pzt++N19HPyZzU+ljqkrpU7JtKyE8mhDOAmalzpOdwJzFeRmy6lI6916aOqUvd97YSG7qAQ1KnPL/4De5oeTeLQp66RJIkSZIkSZIkpVX+2+sWlzeRTSgC88p+7OGLhPA5fj/tnx1Kyuy6FWN4sumthOxUiEcDhdRJ0hD1Q/gxMb+MPVqu9grkMvv2qrFMKFwEvDN1ynP4Gm3NZxNCTB0iSZIkSZIkSZLSq8zzabeN6FcBx1fk+DvmcQgn0t58XeqQulLs24+M90I8Bdg9dY40TL1Evklh4GIW7Pdw6pi60tXzfghfABpSp/yvGD/HwtZzU2dIkiRJkiRJkqTaUZkBHaAYC2S934FwcsXOMXT3kMd5dLTemTqkbhR7DqeQvZ8YF+DV5qo/A9uelc7n6Wj+feqYutHd+3oiXcDk1CmEcD5tzR9JnSFJkiRJkiRJkmpL5QZ0eGpE7/sm8I6Knuf53Uh/PMHnnZdBcXkTYed5hHAO8JrUOVKV3EKMXya2LKYjlFLHjHhX9+5LiWuB2ekiwsdpb/5EuvNLkiRJkiRJkqRaVdkBHSDGQHffV4CzK36uZwiXMGna2T7TeJiKK3cla3gHhA8B01LnSIncA/FCNo35JqdOeTJ1zIhWfHhnsi2XU/3HfETgQ7S3fLHK55UkSZIkSZIkSSNE5Qd02Daid/VdSOCsqpwPBgicSVvLd6p0vvrU1TMb+PunbsM/LnWOVCPWEbmEJi5kXsv9qWNGrEUxY3bvZwjhw1U6YwTeR3vLRVU6nyRJkiRJkiRJGoGqM6DDn65E/zfggxU9T+AxyNpom3ZTRc9Tzxb3vow8fBjiSUCWOkeqUduekx7yRbS13ps6ZsTq6n0n8HWgsYJncTyXJEmSJEmSJElDUr0B/U+6ev4FwscqdPRVZPmxLJh+V4WOX98czqUd4ZA+XN09c4mhC9i1AkcvEfg770giSZIkSZIkSZKGovoDOkBnz7mE8NkyH/WXNA7OY97Mh8p83PrncC6Vg0P6cHT1zIbshxBby3jUEoR30N58RRmPKUmSJEmSJEmS6liaAR3KPKLHbvLsFDqaN5fneKOEw7lUCQ7pO6p79d6QLSFycBmONkAIJ9DWfHUZjiVJkiRJkiRJkkaJdAM6QFfve4CLhtlxEXc0v59FIS9TVf3r6nsFxI8D80n9MSDVr37gUhoKn+FWyFINAAAgAElEQVT4qX2pY0aMyx7cifEDncDRwzjKAJEOFrZcW64sSZIkSZIkSZI0OqQfT7v63gXx6+zIFdAhnE9b80fKH1Wnin1TyfgYxNOBQuocaZQYgPB18oGP0bHv46ljRoSbYgPr+i4G3rkD772JyHwWttxY7ixJkiRJkiRJklT/0g/oAN19JxLjd4GGIb5HiRDPoq31kkpm1Y3LHtyJcf3vJYSPAjunzpFGqXUQP8mklos4Mgymjql5MQYWr/kMMZ67He/1JDHOY2Hrsop1SZIkSZIkSZKkulYbAzpAZ+8JBC7nhUf0fggn0d7cXY2sEW1RzJjde/JTz5rfO3WOJID4ByLnsbC1M3XJiNDV8/cQvsgL36XkcWJ+DAun/7waWZIkSZIkSZIkqT7VzoAO0NmzkBCuBBqf4y2eII/H0tF6czWzRqTOnjmE8AXggNQpkp5NWEYePkTHtN+kLql53b3vIPJNnuvRE4HHgL+hreXWqnZJkiRJkiRJkqS6U1sDOkD36mOJWRcw9mmvDzxGDEfT3vzLNGEjRPG+F1PIP0mMC1OnSHpBOYQrCaVzaZv+QOqYmtbd+1YiRWDM017veC5JkiRJkiRJksqo9gZ0gMV9byaPi4FxAEQeIoSjaG/+XdqwGlZcuStZ46eBMxn6s+Ql1YaNED/NurVf4MxDtqaOqVmdfUcTYjd/+X9DDG+io/n3acMkSZIkSZIkSVK9qM0BHaC79/VEfgg8CmEu7c0rUifVrK6e4yB8FZiWOkXSsPyRLH8PC6b/JHVIzdr2f8MSYBPEubS3Lk+dJEmSJEmSJEmS6kftDugA3T2HUWrso2Of3tQpNam4egZZdhFwdOoUSWUTIVzBQOGDnLjPI6ljalKx79U0xnXMb1mZOkWSJEmSJEmSJNWX2h7Q9exuig2s6z0bwqeAnVPnSKqAyEMQP0x7y+WEEFPnSJIkSZIkSZIkjQYO6CNN9+qDILuEyMGpUyRVxU+h9B7aZ9ydOkSSJEmSJEmSJKneOaCPFMWVu5I1fQLi2UAhdY6kqtpMjJ9jp4HPcMys/tQxkiRJkiRJkiRJ9coBfSToXn0sMfsGsHfqFElJ3QH5qbRP/3XqEEmSJEmSJEmSpHrkgF7Lin3jyPgsxPfhv5WkbQYJ4Qs88tB5nHnI1tQxkiRJkiRJkiRJ9cRRtlZ1r3ktMb8MmJU6RVJN+iVZdioLpv0xdYgkSZIkSZIkSVK9cECvNTfFBh7p/SghfBSfdS7p+W2G+E+0tVxACDF1jCRJkiRJkiRJ0kjngF5Lij37k4XLgYNSp0gaUW4kD++ko/m+1CGSJEmSJEmSJEkjWZY6QECMge6eM8jCrTieS9p+R5HFO+jsOyl1iCRJkiRJkiRJ0kjmFeipFfumUohXEjkidYqkehAuJx9zFh17bkxdIkmSJEmSJEmSNNI4oKfU2fcGQvwPYErqFEn1JP6BPFtIR/PvU5dIkiRJkiRJkiSNJN7CPYUYA5095xLiUhzPJZVdeDFZ/CXdfaenLpEkSZIkSZIkSRpJvAK92havmUQpv4LAm1OnSBoNwuXknElH8+bUJZIkSZIkSZIkSbXOAb2aunoPATqB6YlLJI0q4dcU4kLmt6xMXSJJkiRJkiRJklTLvIV7tXT3nAHcguO5pKqLB1LiV3T3tKcukSRJkiRJkiRJqmVegV5p166dwNbN3wDeljpF0qgXIXyFdQ99iDMP2Zo6RpIkSZIkSZIkqdY4oFdSV98syJdAeHHqFEn6s3gTedZOR/OjqUskSZIkSZIkSZJqiQN6pRR7DicLi4HJqVMk6VmsJMuPY8H0u1KHSJIkSZIkSZIk1QqfgV4J3X2nk4VlOJ5Lql37ErNb6OyZkzpEkiRJkiRJkiSpVngFejkVY4HQdz6Bc1KnaEQZADYAj2/7ZRggxCcBiGwC+rf9PPQT4phtbxJ3gtD01NvsAhSAQGAikV3xm2M0dFsJ8b20tV6SOkSSJEmSJEmSJCk1B/RyKT68M9mW7wHHpU5RTXgC6AFWE+NqsmwdkXUEHiXGdcA6CqVHyHZex7zJG8p+9mLf7mRMIoRJMDgJwu7AJPIwiRD3gtAKsXXbS8aW/fwaeSJfIjZ/iI5QSp0iSZIkSZIkSZKUigN6ORTvbyEbXAK8InWKqmo1hDuAlZCvgtADeQ/9YTUntT6WOm7IulfvDQ2tkG8b1PPYSggvhvzlEPZMnacqiuGHNI19e0W+qUOSJEmSJEmSJGkEcEAfrq6+10C8BpiSOkUVsx5YDmE55HcSWE5/4284cZ9HUodV3JU9u9HIbArsT8xmQzwY4isgTEidpoq5g0LpOObPWJ06RJIkSZIkSZIkqdoc0Iejq/d44D/wFtj1ZBNwG4SfE+J/Q34rbdMfSB1VU2IMXNM3kzy8hhhfR+B1RA4AGlKnqUwiD5Hlx9A2/VepUyRJkiRJkiRJkqrJAX1HdfWdDPHbOBqOdA9AuJ2Y30zkFnYeuJVjZvWnjhpxltw/ns1bDyLjYEJ2GDE/wtu/j3gbCXE+ba1LU4dIkiRJkiRJkiRViwP6jujuex8xfgnIUqdou22E8FNCvgRKN9A2syd1UN3q7pkJzIVsLjF/s7d9H5H6ieFEFjYvTh0iSZIkSZIkSZJUDQ7o26uz51xC+GzqDA1ZicBvICyFfCmPrP1Pzjxka+qoUefbq8ayS3Y4ZHMhziVyEH79GSlKwBm0t1yaOkSSJEmSJEmSJKnSHLCGalHMeFnfRcC7U6fohcQNEH5AiIspDf6Yjn0fT12kv3Jt7z4MhGMgthGYAzSmTtLzihD/gfbWL6cOkSRJkiRJkiRJqiQH9KEoLm+iMOG7RE5InaLntJ4Qfkye/4DNY7o5dcqTqYM0RFevmshg9lay7C3EeCwwPnWSnkMI59PW/JHUGZIkSZIkSZIkSZXigP5Cltw/nv7BLuDo1Cn6K4HHiOEHkHcyfuBGjpnVnzpJw7Tk/vH0b50D2UKI84GdUyfpGb7GHc3vZVHIU4dIkiRJkiRJkiSVmwP684kx0L3mxxDnpE7R/yoRw/UEvk3+xBI6Zg+kDlKFFFfuSmg4gRBOA16TOkdPcyHtLe9LHSFJkiRJkiRJklRuDugvpLv39cT4AwgTUqeMcn2E8D3Y+jXaZvakjlGVda16CaHhHeTxHQT2Sp0zyj0IcS7trctTh0iSJEmSJEmSJJWbA/pQFHsOJws/BHZJnTLKbCGEJZBfwoKWZYQQUwcpsWIsUOg9ErIziPF4oDF10ijTSx7m0NF8T+oQSZIkSZIkSZKkSnBAH6piz8Fk4UZg99Qpo8AqYryYmH2DjuZHU8eoRhVXTSFk7yaE9wKTUufUv9BDyN9IW+u9qUskSZIkSZIkSZIqxQF9e3StPpCQ3Uhkj9QpdSlwO3m8gD1avseRYTB1jkaI61aM4cmmtxHCh4HZqXPq1B8J2Rzapq1JHSJJkiRJkiRJklRJDujba/Hql5Jny4C9U6fUiQFCuBbCF2mb9ovUMRrhij2Hk2XnQjwWv76VSbibxjiHeS33py6RJEmSJEmSJEmqNAemHVHs2Z8sLMURfRjiBmK4kCz/Cm3TH0hdozqz7XP0H4GTgYbUOSPYb8kb30TH3mtTh0iSJEmSJEmSJFWDA/qOKq6eQZYtA2akThlhNkK4lMat/8q8mQ+ljlGd6763ldj4QYhnAmNS54wwv2Kg4W84cZ9HUodIkiRJkiRJkiRViwP6cHTf20psWAbsmzplBNhICBdR4nN0ND+aOkajjEP69rqNPPyNn6uSJEmSJEmSJGm0cUAfrmvua2awtAyYlTqlNsUNhOyrDueqCcX7W8hK50A8AxibOqcmBW5mc/+xnDzridQpkiRJkiRJkiRJ1eaAXg7X9u7DVpYCL02dUkO2EOMFNOSfYf6M9aljpKfZdveIfwXejl8H/0JYxqbGeZw65cnUJZIkSZIkSZIkSSk4HJXL4nv2JG/6MfCK1CmJRULogvwjtLXemzpGel5dvYcQ+DciR6ROSS5yPTEsoKN5c+oUSZIkSZIkSZKkVBzQy+nKnt0YG64n8urUKYn8kjx+iI7Wm1OHSNulu2cuMXwJmJ06JYkYfsjGwXZOm7EldYokSZIkSZIkSVJKDujldvWqiZQKPwJemzqlinqJ8TzaWy4nhJg6RtohF9/WyB6TTyPySQh7ps6pmhA6eeShkzjzkK2pUyRJkiRJkiRJklJzQK+EK1bswrgxPyRyeOqUCttEjJ8gbvx3OmYPpI6RyuLKnt0YEz4JvAfIUudUVIhXUmr5WzpCKXWKJEmSJEmSJElSLXBAr5Ql94+nf/BaYG7qlMqI11HIz2b+jNWpS6SK6Fp9IGQXA69KnVIRjueSJEmSJEmSJEnP4IBeSdetGMOmMZ3AcalTyugBYvwIC1svSx0iVdxNsYF1vWcDn4QwIXVO+YRLuGPae1gU8tQlkiRJkiRJkiRJtcQBvdKKy5vIJlwFHJ86ZZhyCN9ky5Z/5ORZT6SOkarq2t592Bo+C/GU1Cll8DXams8mhJg6RJIkSZIkSZIkqdY4oFdDcXkT2c7fg9CWOmUH/ZbAu2hruTV1iJRUZ+88AhcBU1On7JAQzqet+SOpMyRJkiRJkiRJkmqVA3q1FGOBQt+lRE5NnbIdcggXMn7LhzlmVn/qGKkmFFfuStb0OYhnpE7ZLo7nkiRJkiRJkiRJL6g+B/QXz3kzf9j9x9BZSp3yNNtG9G8QOS11yhCsIvAO2lr+K3WIVJM6exYSwteASalTXlj4OO3Nn0hd8Qz7Hb0LTQMHcOeyn6VOkSRJkiRJkiRJgnoc0Pd/0xzy/AZCWMz4x07i9tu3pk56mhgD3X0XAO9NnfLcwuXkY86iY8+NqUukmnbtvXuxteEbwHGpU55DBM6hveXfU4c8wyvfMJEthR8Bs8kLr+aPN96dOkmSJEmSJEmSJKm+BvTZc1so5bdBmPzUa37IllI7q3+6JWnXX4sx0NX3RQIfSJ3yNJGHCPFdtLcuSZ0ijSidPacSwkXAzqlT/kKE+AHaWy9IHfIMLz98NwbHXE/k1U+95vfsNP613L5kU9IuSZIkSZIkSZI06mWpA8pm+hvGUopdfzGeAxzL2MLVTHvduGRdzyaEyMKWf4D4+dQpf+EaYtjf8VzaAQtbLyMPBxK4PXXKU3JCeFdNjuf7HrUnW8f89C/Gc4CX8+ST30jWJEmSJEmSJEmS9JT6GdDHFC4EXvUsv/Nmdh73I2a/oZauDN2mvfXDxPiRxBWDxPgv3NHcRkfzo4lbpJGro/kexvUfBiH1aF2C+E7amr+VuOOZZr9hCo2Dy4BXPPM3w4m8ZM6ZVW+SJEmSJEmSJEn6C/VxC/eXzH0XxEue920CN7O16Vju+dETVaoaus6ecwnhswnOfB8hvo221lsSnFuqX519CwjxUmDXKp+5BOEdtDdfUeXzvrCXHdXMYGkZMOt53qqfnP/DH5fdWq0sSZIkSZIkSZKkvzTyB/T95x5IHm8BhnKb9tsoNPwNy2+ovSutu3vPIfJ5qvZvEm8iz0+kY8aD1TmfNMoU73sxWakTeHmVzjhADG9nYfPiKp1v6F76xlYIy4js+4JvG+kjlg7ijz99pAplkiRJkiRJkiRJTzOyb+H+ojfsQR6vYWjjOcAhlAZvYPbf7F7JrB3S1vIF4Cwgr/CZIiGcT97yJsdzqYI6pv6BPLyGEL9ZhbP1E1hYm+P5m2aRh58NaTwHCDSTFS6HRSP7/ydJkiRJkiRJkjQijewr0F865xoi83bgPe8kNMzlrhseKHvTcHX3nEEMX6MS39wQeIycE1jYcmPZjy3puXX2nEkIXwEaK3D0TYQ4j7bWpRU49vC86KiXkJWWAlN34L0/xN3LvlDuJEmSJEmSJEmSpOczcgf0l845i8hFO36AeDexMIc//Pj+8kWVSVfv24HLgIYyHnUlWX4cC6bfVcZjShqq7p7DiOFqYHIZj/okWf5WFkz/SRmPWR6z5+xPiaXA3jt4hH6y8DruXPrr/8/evcfHVdf5H399ziRtKS2XljtN0hZKW1rwUlCQW2lCuRZskwblJiCsuiouuyj6W127u+6uLl7XVZeVlQUVdydJoZSL0CsCInJzhdIW6CUz4U659ppkzuf3Ryu2IW2Tycx85/J+Ph59SM7MnPMKQibM55zvyWWWiIiIiIiIiIiIiIjIrpTmAH3rYOYRYOgA9/QM3Zl6nlvakYusnGptbwb7Bbm4YtV4gEz1LJoPfnXgYSKStVtTh5FhPjAxB3t7C4/PYvbo3+ZgX7l1ZMMHiP1eYL8B7cdYztChx/DY/I25CRMREREREREREREREdm10rvH7OFnDibDLQx8eA5wBFWJBziiYWwO9pVbTXVJ3GcBWwa4p/8i8069huciRWBm7So2bzkO/K4B7ulNsNOLcng+4dQpxL6QgQ7PAZyJrN943cCjRERERERERERERERE+qb0rkCfUP8D4Koc7zVFIlPPsqXP5Xi/A9eSPhPzucCQfr4yg/vfMrvuW/nIEpEBWOJVvJb6Lmafz+LVrwOn01T7aK6zBuyIhhOJ/E5gr5zu1+PzWLnk9pzuU0REREREREREREREpBelNUAfX38Gxl3kp/sloriBp5csy8O+B6YlNR3jNmCPPr5iPRZ/jMbRd+YzSwbgxjVD2LNqJBEjcUZgjMTj/TD2xaJ9AHCvBhu27RV7YAzB2Qxs2vZ4N5G9A0Dsb2O8gfE65q/Tzevgr7N5yCtcctCGAN+h9EVr+1Vg3wUSfXzFS+ANNNUV38+pidNOxu0OYHjud+6vYtXvY/k9L+Z+3yIiIiIiIiIiIiIiIn9WOgP0w6YfQHXm/4CD8niUV8AaWLHwyTweIzstqZMwvxNs18Mp4w0y0dk0j3qoQGXSm+sfrWbk/kdgdhjuo8FGA3UYdUAdnoPlrfvKeAMnBaSAdrAU5iksWkH3W8tpntRZsBZ5r9bUR4FfsftVJl4i9nqa654uQFX/bD25aS59P8knC3YvKxaeAXj+jiEiIiIiIiIiIiIiIpWudAboE+rvAM4uwJFeIxGdxrIFfyjAsfqnrf0E3O5i58sjv0hsp9NcU3wnAJSzW9eMJhMdhTEZt6OAycAEoDpwWV90g68CnsLsaWAZbo/TVPNs6LCK0tZxKp6Zt4sTZFLEVk9zTfHdZmLCtBlgLcDgvB/L+BzLF/0o78cREREREREREREREZGKVRoD9An1nwD+u2DHc94ksjNZvvB3BTtmXyXbpxDZPcDIHo+sJsF0ZtauCpFVMa5/tJp99z+aiBMhmgJ+ClAbOisP3gaexOwBPH6QzuqHuOCQ10JHlbW21LHAXb2sTrAW83oa61aHyNqlQg7Pt9pAbEfzzMLi+3shIiIiIiIiIiIiIiJlofgH6JOmHkQmsQwYUeAjrwebwYqFSwt83N1LdryfRLxgu0HbU1RzOufVvhC0qxzd9exgNgw6EeN0sKnA+ymNK8tzzYFlwAKwhWysvk/3Vs+DuWsnEkf3AqO2bvCVWKKBxlEdQbt6M7H+fJxfAFUFPvJiVixqQEu5i4iIiIiIiIiIiIhIHhT/AH3CtDawWYGOvoEoOo+nFywKdPydm7t2IploIcYq4q4ZNB/2VuikspFsP5IE03GbDpwCDA2dVIQ6MR4CFuL8msaaxzDTQDMX2lbX4VX3AhmqaSjKE2MmNFwAfhOFH55v5X45KxffGOTYIiIiIiIiIiIiIiJS1op7gD6x/mM4vwpcsRF8JisW3xu4473a2seSiV6kuWZT6JSS19o+CWc2xsfAxofOKUFpsLshvoN1r/6aTx3TFTqopM1bfSAbhmSKctn8CQ1Xgv8HEAWseIvYJ/HM4ucDNoiIiIiIiIiIiIiISBkq3gH6EVP3I0osAw4InQJ04tbMyoXzQodIjszxiKNSx+PWuHWFA68LnVRGXsV8HrG1sKxmIXMsDh0kOTK+4TOY/4jieO+4gxWLZoSOEBERERERERERERGR8lIMQ5Deja//H4zzQ2dspxPs46xYODd0iAxAMn0oFl+E2ZXAYaFzyp7zAmatwH/RVPPH0DkyABOmXQN2XeiMHbidz8qFydAZIiIiIiIiIiIiIiJSPopzgD5h2gyw20Nn9CKD+WUsX/zz0CHSDzeuGcLwxEycyzDqCbv0dOUyfwi3m4m7fkXzYW+FzpF+mDjtWty+GTqjF6/RlZjEqntfCR0iIiIiIiIiIiIiIiLlofgG6FNmDGXDxqeBYl1SOwN+BSsW/3foENmN5NoxRNHnMC7D2Td0jrxrPc7NJOJ/Z9bo5aFjZDcmNMwB/3rojJ1y/ouVi64InSEiIiIiIiIiIiIiIuWh+AboE+v/FeeLoTN2wzE+z/JFPwodIr1Itp9IIroK95lAVegc2aUHcf8BXjuXZsuEjpEeJjZ8A/e/DZ2xGzFmJ7B84e9Ch4iIiIiIiIiIiIiISOkrrgH6xNPG4fGTwODQKX3gOFezctEPQocIcP2j1ex3wIW4fwHs/aFzpN9WAd9h6Jafcda4LaFjBGNi/fdwvhA6pI8eZ8WID0GLTsIQEREREREREREREZEBKa4B+oT6u4EzQmf0gwPXsGLRd0OHVKzrH61mxP4fx+xrwOGhc2Sg/BWc7zKk+ofMOGRj6JoKZUyo/yHw2dAh/fRpViy6PnSEiIiIiIiIiIiIiIiUtuIZoI9vaMb8f0NnZOnrrFj0D6EjKkpy2SBs2Mcw+zvgsNA5knOv4v5jvPt7NB/2VuiYyjE7wYTXbwAuDV2ShdeJM+N5ZulroUNERERERERERERERKR0FccAfcqMoWzY+DRQFzola27fYuXCL4fOKHtLvIp16SuAvwVGhc6RPDNew/0bxOt/QvOkztA55W12gvFv3Ij5xaFLBuB6Viz6dOgIEREREREREREREREpXcUxQB/f8E3Mrw2dMWDGdSxf9KXQGWWrrb0Bt+8CR4VOkYJL4f41mmp/jpmHjik7k2YPIrPuV2CzQqcMUEzsx/PM4t+HDhERERERERERERERkdIUfoA+/tTxWPRHYFDolJwwfsDyRVez9f7okgttaz+I27fBTg2dIsE9gtuXmF2zNHRI2Rg9dQhDEi3AOaFTcsMeZsWJH4E5cegSEREREREREREREREpPeEH6BPq51M2g5s/8Z+y4uRPa4AzQG1rD8YT3wK/EIhC50gRcWslsqtpHNUROqWkTZkxlA2bbgWfHjolp5yLWLnol6EzRERERERERERERESk9IQdoB9ZfxIxvwnakDd+CwfFn2Dp0u7QJSVnjkdMSl2E2feAEaFzpGhtxP06fP0/6/7oWTh6+p5s6Z6HWX3olDxYS/egCTx395bQISIiIiIiIiIiIiIiUlpCXtVrxHwz4PHzzC7gpcTPmTq1KnRJSUl2vJ/J6d9idhMansuuDcXs60TDH6Fl7UdCx5SUSVOH0Zm5o0yH5wCjqd7ymdARIiIiIiIiIiIiIiJSesJdgT5+2mzMksGOXzit7PnmBTz2WFfokKI279XhdG3+BvhngUToHCk5DvZTqodcw3n7vxM6pqi9f+o+bE7cDRwXOiW/7A2qNx/Gkw+8EbpERERERERERERERERKR5gr0KdMqcbsn4Icu/Ca2LDPrYyeOiR0SNFqWfsRujY9Dn4VGp5Ldgz8L+ja/CRz104LHVO0jjpxXzYn7qXsh+cAvi9dg68JXSEiIiIiIiIiIiIiIqUlzBXoE6Z9DuyHQY4dzq9Zv3EWHQ9tCh1SNG5cM4S9qubg/kXC3k5AysvWq9E3Vv81lxy0IXRM0Ths+gFUZxYCR4VOKaBNVCXG89S96dAhIiIiIiIiIiIiIiJSGgo/QJ80dRiZxHPAgQU/dnB+H4n4HJYtXR+6JLi21LG43Qw+IXSKlCtfiSUupXHU70KXBDdp6kFkEguBSaFTCs65gZWLrgydISIiIiIiIiIiIiIipaHwV/12J75ERQ7PAewU4sTdHH7mXqFLgpnjES2pr+H8VsNzyS8bj8f309J+Le5hVtsoBpMaaslU3U8lDs8BjMs48tTK/N5FRERERERERERERKTfCjtAn1A/EuPqgh6z2Dgnkuj699AZQdzywn5MSt+J8Q9AVegcqQhVmH2T1o75zO0YGTomiAxzwQ8PnRFQAk98PXSEiIiIiIiIiIiIiIiUhsIO0M2uBoYV9JjFZzOe+U7oiIJrSZ3EoO4/YJwROkUqkPnZxPETtKz9SOiUgjP/RuiE4NwbmTh9cugMEREREREREREREREpfoUboI9t2JvYP1uw4xUr4294Zsn/hc4oGHejtf3LGIuBQ0PnSEWrwaKltKYqaxWM5Ytuw+w/QmcEFuHdXwkdISIiIiIiIiIiIiIixa9w9wWeMO3rYHMKdrxi5HYXKxeeA3jolIK4+aU9Gdp5MzArdIrIDoz/IWOX01yzKXRKQYyeOoQhiYeBo0OnBJTB40msXLIydIiIiIiIiIiIiIiIiGzH3Zi7phYS43AbB4zAbDjuewGbgY1gb2GewuNniIc+S/MB6/OVU5gB+uFn7kVV5xpgREGOV5yeJ868n2eWvhY6pCCS6UNJ+DycKaFTRHpl/hBVmZmcN/bl0CkFceSpk4ijR4A9QqcEdBMrFl0aOkJEREREREREREREpOIl144hsnPBpgInASP78eoY/I+4LcVsAfHbC2me1JmrtMIM0CfUfwX454IcqzjFOA2sXLQkdEhBtHUch8e3AgeFThHZjQ6Iz6Vp9BOhQwpiQsPnwf8tdEZA3XT7BJ5bvCp0iIiIiIiIiIiIiIhIxZn/wlA2d12M2cXAR8jdrHod0ILFP6Vx9OMD3Vn+B+hHT9+Tzsxq4IC8H6to+fdYsfivQ1cUREv7JZj9JzA4dIpI3/g7mH+cxtF3hi4pAGNC/d3A6aFDgnFuYOWiK0NniIiIiIiIiIiIiIhUjF+278vg6POYfx5nv2Wki9EAACAASURBVDwfbSFR/C/MGr042x3kf4A+Ydo1YNfl/TjFazWDEkfzx3s3hA7Ju5b2azH7ZugMkSxkcPs0s2tuCB2SdxOn1eH2JDA8dEogXZA5ghVL14YOEREREREREREREREpa3M8YnLHJzH/5z4MztcDK4BncU8T8SbORpwhGENx9gUbh3EEMIbdz7nnk+BqZtb2e1Xa/A7QDz9zMFWda6ncpbxjIqby9KL7Q4fklbvRmr4O429Cp4gMgINdS1NN+Z/wM77hM5j/OHRGQD9ixaLPhY4QERERERERERERESlbyfThRP4L4MO7eNajuLdi0VJGjnqMU627T/ue+9wBZKpPwex0oBHYZyfP3IzZ13ly1LeZY3Ff0/M7QB8/7TLMfpbXYxQzt++zcuHVoTPyKrlsENHw/wY+HjpFJCfMvsWsUV/BzEOn5JExoeHX4NNDhwSyEahlxaJ1oUNERERERERERERERMpOW/vFOD8C62013A1gNxBHP6H50JUDPtaNa4YwPDoX7Brg2F6f4yzAM5fQPOalvuwyzwP0+icw3p/XYxSvNSQyR7Ns6frQIXlz80t7skdnK8YZoVNEcuwmRtZc0ecznUrRhKmjIfFHKnUpd/Mvs3zxt0JniIiIiIiIiIiIiIiUDXdjbse/4H5tL492YvY9zK5j1qj8XODW0l6P8W2w3ubTKfCzaKpbtrvdRHlI22pCw9QKHp472OVlPTwHGNY5hohjQmeI5J59mFdf2jd0RV6tWLoW7G9DZwQT22eZOrUqdIaIiIiIiIiIiIiISFlY4lXMTf289+G5LyGKjqKx5st5G54DzK5bRFx7DM5n2XpP9e3Vgj1AW+rk3e0mfwN0KO+ly3ftZlYsXBo6Iu9m1T6FxSfjvBA6RSSHllPt9TQf/GrokLxbceKPMH4fOiMIo4aXE42hM0RERERERERERERESp67sS59PW4X9nikG/e/J649jVmjnilIS7NlmF37Y+L4aOB3PR7dB+du2tpP2NUu8rOE+/jpY7DMs0AiL/svavYGXdEEVt37SuiSgkk+P54oswg4NHSKyMD4H+isPo0LDnktdEnBjD/tGCz+HRX585pHWbGo9/uhiIiIiIiIiIiIiIhI37Sm/h34bI+tb2PeSGPdwhBJwNb7ow+r+jnmTT0eeR385J0t556fAfqE+h8AV+Vl38XO/TOsXPwfoTMK7tY1o8kkFgNjQqeIZMV4DItOz+vSIcVqYsNPcP906IwgzI5n+cKeZ6CJiIiIiIiIiIiIiEhftKavBP/PHltfJY6m0zzqDztsvXXNPsTRiD7vu8o283rmdS4bsznrvjkeMTn9A+BzPR55hs1bjuWicW/3fEnuB+jjTxiODekA9sr5vovfo6wYcRy0ZEKHBJF8oZaoezFwWOgUkX56kM1bzurth2RFOOrEfekavAI4IHRKwTn/y8pFHwudISIiIiIiIiIiIiJSctrWfhCPHgSGbLf1TYin0TT6ifc+P/VVnH/s/4H8HeBRLLqPTOZmmkev6d/L3WhL/xT4ZI8H2misnY2Zb7819/dAj/a4gsocnmcw/1TFDs8Bmg9JYfFJwNOhU0T64X6q9zizYofnAE8+8AbwpdAZQRiNTJ5eEzpDRERERERERERERKSkJJcNwqOb2XF43o3bzF6H5wNiw8FOxX0OUfQsralbmPtc3y8KNHPimk8Bd/d4oJG5qYt6Pj33A3SP/yLn+ywNN7B88eOhI4JrHP0i1d3TgCdDp4j0wVLiIWdx3v7vhA4JbsWim8EfDJ0RQBXdmStCR4iIiIiIiIiIiIiIlJRo+BeBSTtsc77C7JqleT5yAvg4cfWTtKaO6fOrmi3DFr8QWL3DdrfvccsL+22/KbcD9CPrTwKbkNN9lob1WNXfh44oGueNfZm4uh74v9ApIrtwN+9kzqT5gPWhQ4qEY9E1gO/2meXncpidCB0hIiIiIiIiIiIiIlISkulDgb/dcaMtoqnmO4WLsAMw7iaZPrzPL7mw7g3MLwHi7baOZFD317d/Wm4H6HHPdeMrhPs3WX7Pi6Ezikrzwa+SyEwFHg6dIvJedgdDt8zksjGbQ5cUleULfwe0hc4IYBQTXzs9dISIiIiIiIiIiIiISEmI+BKwx3ZbtkD353reS7wf0my9Mvy9f4w3dvoqZz8i/1G/jtRY9yDYDT22Xklbx6g/fZG7AfrhZ+4FzM7Z/krH8wzb83uhI4rSzDFvEnedjvlDoVNEtpNk3cuzOGvcltAhRckTXwIq7++NW2WeACYiIiIiIiIiIiIi0h/JNQeBX7nDNrPv0zRmRdb7THAqTbWH9fqnsXYEsR0N3LSTV0+nNf3hfh0v5ivA29ttGYzH1/7pi9wN0Ks6Pw4Mzdn+SoX5V3hs/sbQGUWr+bC32DD4NNwWh04RAX7FyJoL+dQxXaFDitbKe9cA/x46o/DsXCZNPSh0hYiIiIiIiIiIiIhIUYuiS9nx6vMN2Jbv5vWYzTVP0lR7KcY/9vq4MbOf+3sd+GGPrZcw/4WhkMsBunF5zvZVOp5g+cm/DB1R9C45aANDEjNwFoROkQpmfgNP1VzEqdYdOqXoVW/5J+D10BkFVkV31cWhI0REREREREREREREilv0iR4bbmTW4a8U5NCZd77R65LuHh/V7311Vn2fHVfk3YvOrkbI1QB94vTJOB/Kyb5KicVfhTnx7p8ozDhkI3tumYFze+gUqUj/wZO1n2KO6d/XvnjygTeAb4fOKDjzKwALnSEiIiIiIiIiIiIiUpSS7VPAJ+y4Mf5ZwY7fPKkTvJel4q3/K8xecMhrmO04t4ztAsjZFeiZK3Kzn5LyKMuX3B06oqScNW4L/s5snFtDp0gFcb5DY81fanjeT4MS/wYU5oyx4nEER9afGDpCRERERERERERERKQoRZzWY8uTNI1+oqANbgf0srUzu33FP9/ha+Nk7np28MAH6JNmD8K5aMD7KTn+t4CHrig5zZM68ZrZ4L8InSIVwOxbzK69BjP9u9pff7x3A26VdxV6zCdDJ4iIiIiIiIiIiIiIFCer3/Fr/3VBD9+Sngoc9t4H7Nms9rdx8GJ2XMZ9KJv2+MjAB+iZdacDIwe8n5LiD7Ji8b2hK0pWs2WIay8FbgqdImXM7Fs01nw5dEZJGxz9GHg5dEaBzWLU8XuEjhARERERERERERERKSruBv7hHbZF0eKCHT+ZPgWL/7fXxzxemNU+LzloA/DwjvvKfLgqq53twM4f+D5KjNvXQieUvGbLMMcvZ3I6A1weOkfKjPE1Gmu+ETqj5P3x3g1MqP9X4DuhUwpoOMP3OAN0qwkRERERERERERERkXfNff5QsOE7bOuueiwn+87wMdraX33Pdo/2xv1AIk7C/UNgvb36JYZUtw7g6I8BJ//5Sxs/sAH66KlDgBkD2kfJ8ftYuXhJ6IqyMMdi3K+gNbUBs8+HzpGy4Jj/NY113w8dUjbWb/wJw4ZeAxwcOqVgYjsfDdBFRERERERERERERP4szozHdhhgr6P54PcOvbPzDby34bhvnZnv6ka9Zn/DjEM2Zn9oW97jABMHNkAfUnUW+F4D2kfJif4ldEFZMXPcv0BrOoPxV6FzCux1jKeB1cSkiDyNRx2YvU7G3oDoddjYSfNhb+3wKnfjltQ+VMeDIRoBjCBiX4jq8LgGsxpgHDAR2LPw31YwMe5/SVPd9aFDykrHQ5uY0PBv4JXzs8+YwaSpw1i2dH3oFBERERERERERERGR4hAd1GPQvCZUybucf6Gp5pYB7cPiNT2G9wcObIBu8fm9nw1Qtp5kxULd+zzXzBy4mrb0FtyvDZ2TJyncfo/xezx+nEGZpzhvbHb3lt769+uNbV+9tNPnuRu3ra0jtknEdizGsZh9CGe/rI5b3DIYV9BU99+hQ8pSd/WPqer8MrB36JQCGUqcOBvo/V4qIiIiIiIiIiIiIiKVxnzH5dvd3g5UArAB+CKza38y8F3ZWz027JX9AH3KjKFs2Hj2wIJKjPOv7HqRABmIxpov09q+BezvQqfkwIvgizBbBNFCGkd1FLxg66B97bY/d767Pdl+JImoHvd6YCqlPxTtxuwTNA7wDCPZuefufpsJ9TcAfxM6pWCc89EAXUrBEq/ihdRwhvgQsD0AyER7Qjxoh+dVJbrxzDvbHt9CV7yR6vUbaJ7UWfBmERERERERERERKT3OsB1uQW6+IUyILSLmEzTXPJ+T3XnmHUhsv2V49gP0jRtnUFnLQ3cw7E0NU/Ktqe7rtLVvxu2fQ6dk4WmcebjdxuxRj2wbYBef5rqngaeBH3L9o9Xsv/9UMvZRjHOBUYHr+qsL7OM01rSFDil7sX+PyD4PDNrtc8vDWYxt2JvVC3ueeSZSGHOfOwAfVIdbLXgdWB34fjgjMEYCI4H9WJfei8HGDisCRQ70WCEojv+8LXIYbMBwaE2tB1sHvI77a0Ssw3kN9w6wdjxqJ9G9lll1LxXt+5qIiIiIiIiIiIjkX+TdPVYmH9hK5zvw63DW7bDJbCbw4V6eewJV8XggNwP0uKp662eq7+rM/hvbenVe5TD7Lo891hU6oyI01v0LLam3MP6d90wAis6LYC1Y5iYaRz8eOqbfPnVMF7Bg25/PkmyfQhRdAn4hW4czxawTOJ+mmttCh1SEZxY/z4T6XwGfCJ1SIIMZHJ8L/Dx0iJSx5LJBRHtNAJ+EcxQwCeNwYAwxW68mf3fhm23/m/t3xWHgw4A6bLvD2bYDWQweQVt6C62pFM4qzJ8ElhHzFERP01yzKedVIiIiIiIiIiIiUmSid3ZYqNsYvvPn9lPCrmdm7aodtiVX/QeJ6kU4U3o8ewhxNJ+W1BnMrr1/4MeO9+pxYsDb2Q3Qj56+J52ZMwccVCqcN/FNN4TOqCiza39MS4oiHaLHwD24/xivvZtmy4QOypnmuseAx0imv0wUN4N9Fjg2dFYvNgEzaaq9J3RIZbHvgFfKAB3cmtEAXXIluWwQib0/CJnjwD68bWB+BHg1UHzvdO81GBiHMQ7sDAAiAI9pTa0G/gj+CGa/ZVDVo8w4ZGPAVhEREREREREREcm5+K0dPsh03z+vh2s+7C1ueeEMBnXfBxzZ49GhGPNJttdvm21lL7b9dvx81t7K7uPa8Q3nYV45V326fZ+VC68OnVGRWtJXYH492z6mD2w9zg24/YjmmudCxxRMMv0hEvFVuJ1PTpfjyNoGovhcZo1eHDqkIk2oXwJMDZ1RIJvYc+h+PDZfg0Dpv+SL+xN1nwz+EbDjwD8IDAmdVSDdGP+H8xBuvyOy+2gc1RE6SkRERERERERERAagbe0H8Wj7YXUX617Zc9tqx33cR+qrOP/4nu0JDn/PFeh/Mm/1gXQl7gMb38ujrxL71G23L85OS/u1mH3z3a/d7sxuGGbx2aVwqVTOVPlPQydUrNk1N9CSWo/xc8INb9/G7CeYXcesUet2//Qy01zze+Aibl3zVTJVV4NfCX9aWrjgNmDRDGbVLgl0fHH7CeZTQ2cUyB5s3HQqcGfoECkBSU9A6v0YDZjNgK7jeffkr4q7dXjVtmWVpmD+OdzZepW6LcTjhQwa+mvO2/+d0JEiIiIiElAyfTiJeFrojKw4b9JUlwydIXnQ1j4WaCjIsWJeYHbdHQU5lhTW3NRk3D8SOiNrmejnulWbiOzUhiErGdrp/HlIXM3++x0OLM/rcc8b+zLJF6YTZX4DXtfj0f2J7F7a2k+msW51Vvs3m7jj174ymym4MaE+BYzKKqLUuC9i5eLC/OIkO9fa3gz2C6C6gEddD/5dqod+Wx/0byeZPpREPAe3y4BEAY/8JtgZNNU8XMBjSk9TplSzYZ+1wCGhUwrC/CcsX/yXoTOkSCVf3J9E50xiOxtjGjAsdFKJ2IxzP5HfRaZ6Ls2HpEIHiYiIiEiB3fZ8Dd2ZdkrzCp2Yamo4r/aF0CGSY23tP8XtigIdbROJzCHMHPNmgY4nhdKaagNmhc7Ijq+kqW5C6AoRKXKtqVXA2He/Nv8UjXX/2efXZ3MF+rvHTo8D/w1wUC+PpoirTsrqs8ae35Nzef+XxT7i1KOplOE5gEU/CZ0gsO3M3magswBH6wZ+QpwZR1Pd1zU876G55nka664kio8C5hXoqOuwuF7D8yLw2GNdmP8sdEbBxHYOpfmBjuTLLS/sR0v7JbSm5xN1PY/b9RjnouF5fwzBOA237xF1t9OaWkZL+xzmdhwROkxERERECuSjh6aBUv1v/IguK9HhmOxU8pVhOOcX8Ih70B0V8nhSCPNeHQ6cGToja87/hE4QkZKwdIev3OoLduSmmmeJbTrwei+P1hJ1L2De6gP7tc9bU4ex/fAcwOOl/R+gR9HZ/X5N6XqRPd+4PXSEbNNUexuRnQfkcwmZR4Hjaar9S5rHvJTH45S+WaOX01T7USyaRl6X5/BXwKbROPrx/B1D+iVR9Z9sPdGk/Bk1TGiYHDpDArt1zT60pP6S1tRvGNT9MmY3gZ9DYVdFKWdHYvZ14nglbalHaU1/kba1B4eOEhEREZG8awkdkDVzDT7LTbTl42DDC3pMK9jV7lIo3Rs/SrhbXw6clfDPZREpHLNFPbacwfwXhhbs+M01TxLbmeC9Xfx6BF1V95JMj+jz/rqZ2WPLczSPXtP/ATp+Vv9fU7J+ymOP9f3G95J/s2p+jfm5wMYc73kdzuU01nyIptpHc7zv8tY4aglDt3wA5++ALTne+4tEPpWmmj/meL8yEE/dm8Yq6b7gfk7oAglgjkck20+kNX09mUQHxo+Ak3j3vuaSF84U8H/Fow5aUwtoaZ/N9Y/qRAURERGRcmRREohDZ2TFOYG21T3vvymlzDzEMPsYWtd+IMBxJV/iUl5VwFbQVLcsdIWIlACze9hxtei96OxqLGhDc83vMc4ENvTy6NFEfifJV/q2Yqhx6Q5fO3dAfz8EnnT6CLDj+vWa0uXEdlPoCOlFY91CnDN2cnZJFvwuYnsfs2tvxMxzs88Kc9a4Lcyu/Udi/yDwSI72mgY7hVmj83h1uwzAf4cOKBijkk4ck2T6UFrTf8fk9HNEdj/4XwB7hs6qQBHQgFmSEQekaU1dR/L58aGjRERERCSHGkd1AA+FzsiSQVVT6AjJkWT6KJwPhTl49Mkwx5Wc+2X7vpifFjpjAH4VOkBESsSsUevA5/fY+pmCdzTWPUjkM+n9ws7jsC3zuHHNkF3uoy11MjBph20e3QT9HaBnMmcAiX69plQ5D/DMwtWhM2QnZtfej/sZwFsD2MubYBfTVHc2zTXP5yqtojXXPc3Imo9gfA0YyOoNa4jjU2iqeTZXaZJjQ9+8E3gtdEZBOMczoX5k6AzJs7a1H6Q1fTORrwH/e2BM6CTZxjgQuIYos5zW1AJa22fgbqGzRERERCQXPBm6IGuFvV+25FNEyKXULyrosreSP4OiRmBQ6IysRRkt3y4i/RD9bIcv3Y6nrb2h4Bmz6hYAH6O3W86aT2N44jbuenbwTl/v9nc9XvQEzaP+AP0doJuf2a/nlzKzX4ROkN2YPfq3WDwNWJfFqx8nwTE01ej/51w71bpprP0GxgnAmiz2sIY4rqd5dDavlUJ57LEusP8JnVEgCfDpoSMkD+Z4RGv7DFpTC/DoMfCL0X3Ni5kBDWC305ZeQWv7F/RBk4iIiEiJi+MkkAmdkaVjaU2PCx0hA3TjmiHgFwUs2Lvgy95KfpiX8kk1/6dVQEWkX54a9WvgqR22uf0jc7zwt79sqr0N88vp/dZAp7Nx8C0s8ar3PNLSXg9ev+NGv+5Pf9W/b8Q5uV/PL12bGdJdumfAVpLG0Y8TRw3Aq31+jfsPid85npm1q/IXJjTWPkIUHQt2Rz9etRyLT9DwvETE8c9DJxSOTQ1dIDl017ODaU1/jsnpNWC3A4U/O1IG6giw79PZ3U5L6mv84tm9QgeJiIiISBaax7wEPBg6I3veHLpABmhYVSMwImiDW8gr4CUXki/uD0wNnTEAuvpcRPpnjsUY3+ix9Tgmpa4M0tNY93PgSqC32zTPYl36hh2G+3c9OxizH/Z43nKeqvnfP33R9wH6EQ1jgdp+BZcqs/n8YemboTOkj5pH/QEyJ+O8sJtnbgG/lNl1V9E8qbMgbZVu1qh1NI46F/cv0/sPru09jcX1NI5+sRBpkgPPLP49+IrQGQVySugAyYHkskG0tf8FGwc/B/5DKuX3mnLm7IfxDwwZ1EFb+pvcumaf0EkiIiIi0m+lfBFLKV9xKgAWF8M9yE9m7tqJoSNkAKKuZuC9VzeWDCvln8MiEsqTNS3A4ztsM/smbavrdvk6i9twb37Pn64hLw+op6n2Z0RxQ6/7dr+TI1/6821aNw6ZA/R87/1/zLF3r2Lv+/0jx0+7DLOf7f6J5cDPZcXi+aErpJ/mdhxBHC8CRr3nMeM1oJHG2t8UvEu2am1vBrsR6GW5XXuCzsR0LjikMu6pXU4m1P8/4J9CZxSER4eycsHuTtSRYpRcNojEsEtx+xq9vUdIGfF3sOjHRN3fZOYYnQwpIiIiUgrmrT6QrqrngUTolOz4ZJrqloWukCy0tY/F7Tn68xl53vh1NNV9KXSFZKk19RvgpNAZWXqcptopoSNEpES1po4BfseOv8c9wtAtJ3HWuC2Bqnatbe3ZeHQ7O15kfjdNtWdt/7S+X4FuVhlX3zlvkhh5T+gMycKsUc+QYCpYe49HlpOpmqLheWBNdUmwadtOZtjewyS6p2l4Xqoyt4QuKJgorpTbmJSPOR7R1n4x0fDncLseDc8rgA3H/VoyiVW0tf8V1z+qe9qLiIiIFLvzxr6M232hMwZAy7iXKo+upCiG54DZZdz17ODQGZKFto5RwAmhM7LmrqvPRSR7TbWPAj/osfVYNg6+HvfieI/d3tzUZIh+zo7z8beJqz7d86n9uQd6ZQzQsfksa9Hy3qVqZu0q4sTJwHMAGI8RV59C8yGpsGECQFPNw3jmJGDr/x/GA2zeMl1XCZawFUvX4vwhdEZhVMiJZOWireM4Jnfcj9vNQE3oHCm4Ebh9j5EHLKOlfXboGBERERHZDfMSvv+uXRi6QLKwxKtwvyR0xruc/dg45JzQGZKN+Hz6N2cpLlXWGjpBRErcule+DDzYY+snaEv/W4icnWprH0uGe3D23W6rg13e2wyxbz/YJ0+vAUbnprDIRT43dIIMUPMhKWKbivkNVO1xKs0Hvxo6SbbTNGYFcdVJmN/AhkFncNG4t0MnyQAZt4ZOKAzXAL0UtKbH0ZZO4vFvwT8SOkeCG4dZktbUQyQ7jg8dIyIiIiI70VnVCnSHzsjSYbSu/UDoCOmn1ztmYBwSOmMH7leETpAsOOeHThiAR5hZuyp0hEhJSHqCZPuJJNNHhU4pOp86pou46oJeVh/+HK2pn5D08LfpaU0fjdt9733v92/TVNPW20v6dvn8xGkXb7uCq9xtZM+h+/PY/I2hQ0RESsaRp04ijp4KnVEAThUH89Sil0OHSC+S6T0w/xrG3wCDQudIUYrB/4stXMuFdW+EjhERERGRHlpS92KcFjojK2bforHmy6EzpB9a0ndgfnbojB5irHssjWN73p5SilVb+1jcnqNYbgXQX84XmV377dAZIkUrmR6BxfVY1AB+LnAQ7p9mdt31odOKUlvqWNwXgQ3f8QG7g0T3xcFWIm5NnwX+K2CvHo/8iqdqLmKOxb29rG9XoMcVsmyt2Z0anouI9NPTS5aBrwidUQBGV4W8H5aaZPoUovgJjK+g4bnsXAR2JYNsOS3txbNUo4iIiIhsY6V7H173jxflfT6ld20dozA/I3RGLyLixGWhI6QfYvsYpTo8B6cqo+XbRXpqax9La/sXaE0tIPKXMEuC/wVwUOi0otdY+wiWOA/YtOMDfg6ZxBO0rC3saqHJZYNoTX0H/A56Ds/d7mTdK5/Y2fAc+jpAN04aUGSp8LhCliEWEcm520IHFIT5yaETZDvJ9Aha09cT+RKw8aFzpEQYB2J2E62pJSSf1z83IiIiIsWiM24DOkNnZKmWluePCx0hfeR+ORB+OdnemH2yKJa6lb6xkl6+/WFmjlkbOkIkuBvXDKGtvYHW9A9oTa/FbRXY94EGoDp0XslpHLUE7FSg562VR2PR/bSmbyb54v5575i7dhrR8MeBv6bniU7Gzfjbs/jUMV272sXuB+jvn7oPMG4AmaWii87ortARIiIlKfLKGKDDh0IHyDZt7RcT+TPbzgAt1bO9JaypRJnHaUldwxzv20mlIiIiIpI/F9a9gbM4dEbWIi/lQVrlcDfwYl6RahTWMT10hPRB65oJwNGhMwagdFf9EBmoeasPpKX9EtrSSYZHr+C2APwq8LrQaWWhqeZhouhE4Jkej0TgFxN1raAt/XXmdozM+bGT6VNoTf2aOFoETOrxaIz73zOr5lKaJ+32pM3df1jYWT2Fyvhg+iFWL3wrdISISEl6er9HgXWhMwrgfRx+5uDQERXt1jX70Nb+C9xuBnL/S5ZUmqEY13FU6gFuTR0WOkZERERESnmg4826crgEtKZPA4r7d3/zK0InSB949LHQCQPgxFVtoSNECmaORyTbp9DSPoe21KN0Vb2I2U24z37v/bolJ2aNeoZ4yBTgpl4eHYH7HOK4nbbUz2hrbxjQ71DJNQfR2n4VralHiHwpcHovz3qJyM9gdt0czLwvu63a7TM8ntK/0hLlfm/oBBGR0tWSwaYtwq05dEmeDaJq82TgsdAhFWlu+2lk7Ebg0NApUmbcjifD47S1f5HGuv8MnSMiIiJSsaoyt5JJ/AQoxROXD8Y6TgKWhg6RXYjsCrxPn5uHdC5taw+mcfSLoUNkF6yEPwMzHqT5kFToDJG8SqZHYHE9FjVA+lywrfcwL/q3gDLSfMB64FLa2u/A7btATY9n7IlzGdhlROnXaU39BnwpxjIy1c8w++D0e4bd818Yyqb4nGKMpwAAIABJREFUCCwzDrPjgKnA+9j5rVkc7BdEW65h1uGv9Cd/9wN0fEplXICeuCd0gYhIabN7gdL9j4c+i45BA/TCSqb3IMHXif2L9GX1HJHs7IXb9bS2T6ez+tNccMhroYNEREREKs7MMW/Sml4Afk7olKyYn48G6MXrlhf2w7vPDZ3RB1WQuBj419AhshOtaz8ATAydkTX3ltAJInnR1j4WZwbYOeCngFVrYl4EGutaufmluxna+RXgC8CwXp41Avgo2EdxIOqGtjS0pt4C1gNDgGFs6R689dPhPs2tH8bjv2b26N9mk92HD6GtEq5Af42VJzweOkJEpKR1ZSrkRCSvhPfF4jG34wgifxj3a9HwXArCGhnU/Qda1n4kdImIiIhIRfK4dAc7RhNLvA8XLEkQ1d2XUiqrG7h/cuv92qUoWeL80AkDEBNHWr5dysONa4bQ1t5AW/qbtLavwG0V2PeBBqA6dJ5s55KDNtBU+1WiaDRmczD6euHK3mxdjXQkfXsPd5wFRHE9TbXHZTs8h919ED22YW+csdnuvHTYApgTh64QESlpzy3tAJ4OnZF/dkzogorRkjqPOP49cFToFKk4h2LRfbS0Xxs6RERERKTibOm8DdgcOiMrzn6sS9eHzpCdMC4LndAPR9DScXLoCOmFu+FeuiswGvfTXPN86AyRrM1bfSAt7ZfQlk4yPHoFtwVbL7yx8aHTpA9mjVpHY83fk3nnUIzzgCRbrzAfqCeBrxLHhzG7djqzRi8e6A53fUZktX+QSli/3eMFoRNERMqC272YHxk6I88mM3rqENYuLc0PdErBEq/i9Y5v4P4lKuH3EClWVZh9k9bUccRdl9J82Fuhg0REREQqwkXj3qY1dQ9wXuiUrBjnAxWyQlsJSbafCJTW5xVRfAVwX+gM6WHu8x8GxoTOyFpMMnSCSL/M8YgjUx/AmEFk59DFBzEMd/SxYQlrntQJ3A7czhKv4tXnjyWRmYrb+8COAB9H70u9x0AK51nwFUT2IJnMfTSPeSnXibtZUsiOqYz7A1QtDV0gIlIWIr8P569CZ+RZNUPtfcDDoUPK0rzUIaxLJ4ETQqeIbPNRouqHmLu2kVmjl4eOEREREakIZkncS3OA7szkrmc/w1njtoROke1EdkXohP6zJn7ZfhUX1r0RukS2E8fnl/DMLiaKbw0dIbJbv2zfl0E0YFEDpM8FOwiojHFlJTrVuoGHtv35sxvXDGHv6j3xzN6Q6CSz5Z1CXuCy6wG68YECdYT0AivvXRM6QkSkLHQNepCqzvI//c+jKWiAnnut6aPp8vlAbegUkR4mEtvDtK39OI2j7wwdIyIiIlL2MoNvJ9q8CdgjdEoW9mHT4NPZelWVFIPkqr2B2aEzsjCEwdGFwL+HDpFt5niEpUvxn6Wt3JbSNPrF0BkivWprH4szA+wc4BSgWhPzCnfZmM1sva3PuhCH3/U90InL/56j5g+EThARKRvP3f0q8EzojPzzyaELys7c9Bng96PhuRQtG45H82hNfy50iYiIiEjZaz5gPXB36IysOeeHTpDtRNUXAENDZ2THrwxdINs5suMk4NDQGdmLtXy7FJ/W9hm0ptbgtgrs+0ADUB06S2QXV6DPieD+wwuXEkhsD4ZOEAEgmR5BwicT2xEQjyOKxuC+LzCcrb/k7wn+NtgGYAPmr+KswqKVuD/D4KqnmXHIxrDfhAjgPIAxPnRGXrlNCJ1QVlrbv0Ds3wESoVNEdiMB/kNa0+OIR/01zZYJHSQiIiJStowkzqzQGVk6j5tf2pNLDtoQOkQAKMHl2991NG2pY2msfSR0iACRl/LJMRkSXVq+XYpQNAF8dOgKkZ52PkA//DdjwIYUsCWMSFegSyDJVXuTqDoNt1OAqeCTcAzbtvq197Y8yXarYvu2v/7T87Z0d9KW+j0xS8GX8vqrv+FTx3Tl9XsQ6ZU/CPbJ0BV5NjF0QFlY4lWsS/8Q+HToFJH+8auw9GhufukCfSgqIiIikieDquazpXsDsGfolCzsydAtZwO62jO0uR3vI44/GDpjgD4JaIAe2hKvYl2qsWTvWugsZtbhr4TOEBEpFTtfwr06qoSr69ZzYPzH0BFSQZLLBm1dkiR9M1H187i1AJ8DJjPw374G4ZyI8VXMFrLfAS/Tmr6ZtvYG3Ev0NzspSVYRK3scxFEn7hs6oqQllw3itY5foeG5lCrjXIZ2LmFux8jQKSIiIiJlaesqe3eGzsielfKVquUjjj8VOmHAnAuZ9+rw0BkVb126HuyA0BnZM53QIyLSDzsfoLuX9/K7W/2epUu7Q0dIBUimR9CS+hrR8A6w28EvJt9nUDv7gl+M2wLaOp6mNXU5yWWD8npMEYAVi54FXgudkXfdQyrhfTI/5r8wlGj47Zg3hU4RGaBjieP7mJc6JHSIiIiISFkybwmdMABnkVy1d+iIipZM7wF8PHRGDgyja9Ps0BEVzyjlk2K6SJiWbxcR6YedD9DxCrgC3R4PXSBl7pYX9qM19V0ib8f4B2D/MCE+AfgvouGraU1drUG65JkDfwgdkXceV8D7ZB4kV+3Nlu57gdNDp4jkyCS6eIC29rGhQ0RERETKztvxHcDboTOyNIRE1bmhIypaFDcD+4TOyAnzUr6Pe+lLLhuEc17ojAFYyKxR60JHiIiUkl0M0K38r6xzL/8Bj4QxxyNa2i9hcPdy4GpgWOikbQ4Fvks0fBlta88OHSNlzHgidEIBlP/7ZK4l0yNIVN8LnBA6RSTHxuC2hOTz+rkgIiIikkuXjdlMKS/jHkelfMVq6TMrn6Gz2/G0tk8KnVGxEsPPAEaEzsiaU8qreYiIBLGLATrlf2VdItYAXXKvNXUMk9NPYHYTzn6hc3bicDy6g5bUPNrWHhw6RsqQe/kP0N3K/30yl5Iv7k/kv8H5UOgUkTypJcosZW7HEaFDRERERMpM6d6313w6cztGhs6oSMnnx+PldvK2fTJ0QcXyEl++3W1e6AgRkVLT+wD9/VP3AQ4obErBbeIAXxk6QsqIu9Ha/gXgQeDo0Dl9YpyLR/9HS/s5oVOkzMRV5T9At0q41UmO3LpmHxJddwM6W17K3UHE8SIt5y4iIiKSQ0O33A28FTojS9VkfGboiIpkmSsBC52RY5dw45ohoSMqzta/5yX82andQ3PN66ErRERKTe8D9I1RJVw58xRLl3aHjpAykUyPoC19N9j3gVK7v/j+mN1Oa+q7LPGq0DFSJp7Z+1lgQ+iM/LLDYHYidEXR+8WzexEn7sGZEjpFpEBG4baEW9eMDh0iIiIiUhbOGrcFfH7ojKyZl/KVq6UpuWwQ5heHzsiDkQxLfDR0RMUZFs0A9gqdkTWLS3cVDxGRgHofoJvVFrgjhPK/OlIK49Y1o4l4EDg9dMoAGHA169J3Mu/V4aFjpBy0ZIA/hq7Is2qOWHdQ6IiiNv+FoQwZPF/LtksFqiWTWMC81CGhQ0RERETKRCkPgE5l3uoDQ0dUFBt2Hlh5rq5qaBn3QrOSXr59C5nu20NHiIiUot6vNo18FF5uK9z04DwdOkHKQDJ9FBm/G/zQ0Ck5Mp2uTYuYt3oG5419OXSMlDhnGcbxoTPyKhHVAM+HzihKdz07mI1dd4CdHDqlfPg7YO1ga8HbMX+eOHqViHXg63Bfh7EJgC3Vb+NdGQCqIyMR7wOA+WC6bSRmI4ERmO0HHAo+GrwOszqcfYN8e+XncLpYQDJ9kpbLExERERmgeP09JIa/UaK/qyboqmoCfhQ6pGKYXRE6IY/qSaYPp7nmudAhFWHeq8Pp2nRW6IwB+DXNh5XqLTBERILqfYDu0aHgBU4pMPdnQidIiWtb+0HcFwN7h07JsWPpqlrCLS+czAWHvBY6RkpYxLPl/lZCHNcAvwudUXTcjbnp/wZODZ1SojLAMuAJnKeAPxLFT9I4+sUB7LPvA9y5HSNxjgafjMdHYfY+nA8A1QM4fqU6kshv48Y107lszObQMSIiIiIlq3lSJ62p24FPhE7J0vlogF4Ytz1fQ3emPnRGHhmRXwp8NXRIRejafB6wR+iMrJmV8uodIiJB7WSA7jWU+QXoxGiALtlrTY8j9ruwshue/8lEBnUv5Jftp3Jh3RuhY6Rklf/P2SgaFTqhKM3t+Becj4XOKCGbgQfA7ieKHyIx9Hect/87wWpmjVoHLNn2Z6tkeg/MjwH/CGYnsPXkiGGBCkvNSQxP3MQc/zhzLA4dIyIiIlK6LAleqgP0E2lbXUfj2PbQIWUvk7kSSITOyLNPssTncKp1hw6pAKW8fPtmNm2+I3SEiEip6n2Abj6K8p6gdzIqbkcL3Ug2ki/UQvdijHK/f9X7GGy3cdez0zlr3JbQMVKCLH4Wj0JX5JfHNaETik5r6jO4Xxs6owSswv0uLPo1gxNLmXHIxtBBu9Rcswm4f9sfSC4bRGLvE8BPx/1M4OiQeSWgmcnpFPDF0CEiIiIiJWvdywsYecA6YGTolCwYVDUB3wkdUtbmeISnS/Uki/44iHWpM4H5oUPK2i/b9wWfHjpjAO7ionFvh44QESlVO5lsWJlfUeerWbpUZ+hJ/13/aDVR5ldAmf878q6T2Tj4+6EjpER1DnmOrUtRly/TFeg7aE2fBfxb6IziZe1g/0bsJ9FYM47ZdVfRVHNX0Q/Pe9M8qZPGUUtorPkyTbXvI5EZA/5XwIOh04rYNbS2XxU6QkRERKRkfeqYLuC20BlZ85K+kvX/s3fnYXKVVeLHv+dWpzsBEgIhLElXdQIJW9gUBNmUCCqrkXR3sUe2Acdxhhl3ndGJM/7UcRwdZlNUhGFxqa5ODCCIIEEU1AEUlaCQQNJVTYCwb1m6u+75/dFBCekk3bWdem+dz/Pk8TGQqm9Cp6r6nvu+bxgO7DsJyFhn1IUm+pz3xtAadQKt1hllE3z7duecq8AIA/SFEbBH3UvqKkr+tsKuNqbsejnoUdYZdfZ+egvnW0e4AK24ZQNQtM6oKVVfgf6aXPFA0Bxb2t2meb2EcAXC4XSlZ9CVvoxsx88RUeuwqjp95iq6Oi6nK3MMlPYDvgy6xjqr8chXyBfebV3hnHPOORcsDXog9BZyxVnWEYmmUfMMlYWTyRWnW2ckmmjIN72spTT+h9YRzjkXss0H6HPu3JWQ76waFfXN293Y9RbOAP7SOsOE8t8sWrWfdYYLkST9hiUfoMPwtmaRLga2t05pIPcBF7G2dRqdmffTmbnXOqhuumb+ka7MR4lfSSPaDdxundRAUsB36O3b0zrEOeeccy5Iu6TvCPpGTdGsdUJiLXlsN+AU64w6aiHS860jEiv3xFTgOOuMCtxEdtdXrCOccy5kmw/Qh8YlfztapWCd4AKTK+6MajNvS7wdGn0DVbEOcYFRTfYKdNid445r7hXXCzWijeuAvaxTGkAMchOi76Qr8xa6Mt9mwe6vWkeZyc4ZoLMjT1fmnSAHg3wDWG+d1QB2RmUx1zzpN5w455xzzo3VXBmCKNxt3MW3ca+ZwdQFwDjrjDq7iIW6hSNaXUWiwSxB77AnIe/W4ZxzDWHzN9hoaFeDjvoS6bdOcIGJ9Esgyf+7sTXKMeT7L7LOcIERHrdOqLEUxdadrSNMHVD8J5CTrTOMDSFcBbIvXenT6OzwFddv1JX+HV3pSxnHXsBXgHXWScYOYruBb1pHOOecc84FSeOQB0MHkevb3zoicVQF5ELrDAMzmVOYax2RUCHf7PIqa8f9yDrCOedCt/kAPY52MuioM11tXeAC0rPqKKAZP4RvLtIv8Z3Vu1hnuJBI0gfo0DLYBO+bW5AvvBf4lHWGoRjR60H2pzNzIV3p5dZBDW9eZjVdmQ8j8V6o/iewwTrJ0FnkC39nHeGcc845FxzN3InylHVG2QTfxr3aFj1+HDDbOsNEJM1z7nu9LClMA462zqjADU29G55zzlXJ5gN00eQPAlJNMNBx1SPyOcC3LgdQdqK19GHrDBeQ5K9AB4macwV672MdwFU07+vjraAH0dlxrg/Oy9A54wm6O/6GltTs4ZsQUOskI/9CvniEdYRzzjnnXFCyUkJYZJ1RNuFM64TE0bh5h8jK/I3ndbtqGeRMRpqbhCPkXTqcc65hjDBAl6QP0GPY6UnrCBeInlVHgfhWSJvQv/YP5m7Uoia4YUnipL9vbm6hRmjL1cBk6xQDy1HN0pU5ka6OZdYxwXvv9CKdHeciHAFyj3WOgXGg3+G65ZOsQ5xzzjnngqIhn+8r+5Bf9SbrisRYvHIycLp1hqFWUgPnWEckioS8fbu+TCy3Wlc451wSbD5A18RfDH+aZT0D1hEuEBJ91jqhAW2PDPqWs250NrQkf4DeFEefvMEB/f8AHGedUWfrQT9J/PIBdHf0WMckTmfmXh5sPxaRixGet86psz2Z0Paf1hHOOeecc0FZ1n4XSrhHNEoq4AFdgylFC4AJ1hmmNLrUOiExevv2RHmLdUYFlpBNr7OOcM65JBhhBXriB+i++tyNzqL+vYHjrTMaknAJNy9vs85wAVhxyzPAoHVGTTXD0SevlyseDvoP1hl1djeU3kRXxxfJzvGb8GplocR0pq+kZWg/kGutc+pKWUBv8WzrDOecc865YCyUGLTXOqNsqmeh2qzHYVXbBdYB9nRfcv1HWlckxBmEfVRdwLtzOOdcY9l8gB6T9LNcn7UOcIFQvZCwPzDV0hTWjj/VOsIFQUFfsI6oqeQfffJnuUd3JNLvAeOsU+rkVeADdKaPpWvmH61jmsa8PZ+iK70AkfnA09Y5daP6PyxeOcM6wznnnHMuGBr0oCjDosePsI4IXr54BMgh1hkNIWric+CrSSXk3SFeYLuBH1tHOOdcUoywAj3pK+kSPshx1ZHTFKp+ftDWnW8d4EIhyX7d1aS/b75ONO7fgJnWGXUh3E+cOpSuzNcQUeucptSZXkw0cAAqP7ROqZMdKaWu8pVIzjnnnHOj1J25GyhYZ5QtjkMe1DUG8aHx65zBdcsnWUcELb9yX+Bg64wKLOHk2RusI5xzLik2H6CT8JV0kvBBjquOlr63A+3WGY1NT+T6vmS/XrhqSfjrbsLfN1+zaNU7gAutM+pAUf0SpZePIjv9YeuYpjd/1hq62k8DPgQ0w4WA48j3X2Qd4ZxzzjkXBBFFWWSdUTbhDHKass4IVm7NDih+E8Kfbc+E1jOtI4KmUeB/fhLyrhzOOddwRhigk+w71VRftE5wAShFJ1gnBKCF1miudYQLQrIH6Mpk64Sau3H1dsTRFST+WAt9GZFOujs+7medNxARpSvzVSQ+CqTPOqfmRL9MrjjdOsM555xzLggahTww2gP6j7GOCJZsOBNkonVGQ1HxFfmVEMlaJ5RNeJ74pdutM5xzLklGGqCPr3tFPYk8b53gAiD4AH1U9HjrAhcA0WS/7ka0WSfU3IahfwZmWWfU2CPEvJXO9GLrELcFnTN+zUDqMFTusE6psR2J9GvWEc4555xzQeie/sugb7KM1FdQl0vUh8Wbewu5fj8TvhzDf277WWeUTVnkCwGcc666Rhqgt9a9op7Ut3B327B45WTgzdYZQRDeaZ3gApD0191Yk/2+2Vt4C3CZdUZtyU2Mm3AY2Y6HrEvcNpw97Rmee+pEhCusU2rsNPLFTusI55xzzrmGJ6Ko5q0zyiZ0s1RbrDOCs6hwAHCEdUZDimI/Eqocod/MooS8G4dzzjWkkQboCf/QFr9sXeAa3GDLwYCfQTU6s7huebKPfXBVIC9ZF9RUJMldgb5QI1SuINmviV8nbn8v86b654NQXHrYIJ2Z94N+ElDrnJpR/Q9ya3awznDOOeeca3ga8Lm/yi48U3yHdUZwYt+qfCvO48bV21lHhEe7rQvKJjzDLumk79TmnHN1N9IAPbmDgGEbrANcg5N4X+uEgAjj2/a2jnCNTpO9hZTKOOuEmjmwcDHom6wzakRR/Sxdmb8kKyXrGFeGro4vIpoF1lun1IQwDVn/KesM55xzzrmGl03/H/CodUbZhLBXvtbbzcvbED3HOqOB7ciG0nzriKDki0cAe1lnlE1lEXNlyDrDOeeSZqQBenIHAQAqg9YJrsGJ7GOdEBTRcM8HcnWS9NddTeb7Zu7RHVH+2TqjRkooF9HdsdA6xFWosyNPpO8B1lqn1ITwd/T27Wmd4ZxzzjnX8ETC3cYd5nPz8qQvaKqedeM7UXaxzmhofj78GIW+fXsc7i4czjnXwN4wQO9Obf5zSRMneyWkqwKZbV0QlFh8BbrbOo2TPkBP5hno0bjPgOxqnVEDJdCL6M5cZR3iqmR+x20oJ4ImcRv+8cTyZesI55xzzrnGVwp5gDSZdW3vto4IhsY+HN4W5e3kV/oOm6OxUCMga51RgafZJfNT6wjnnEuiTYfl7f3JHAK8nq9Ad9ukO1kXBEXwPy+3DVHCb1yS5L13LurfG/igdUYNDIKeTVfH/1qHuCrrzvwM1ROBF61Tqk44nZ6+460znHPOOecaWueMXwPLrTPKpr6N+6j09u0Jcpx1RhA0usA6IQj79x8LTLfOqEDet293zrna2HSAPn5yMrehfb1U5AN0ty0TrQPCIpOsC1yDi5K+Ap3kDdDj+Msk7/cVA++jqyPklSlua7pn3EOsp5LE7dxFvrpxZYRzzjnnnNsSocc6oQLzuObJ7a0jGl4sFwNinREGeR9X3Jf8a/2VikLfvl38GodzztXIphfionVJu1i+OV+B7rbNB+hjoj5Ad9sgCV+BnrBBc2/hLcCp1hlVpsBf0ZX5rnWIq7Fsx88RnQdssE6psgM5sP9M6wjnnHPOuYYmUciDpO2ZsOFk64iGtlRbgPdZZwRD2I2ddzvNOqOh5TSFMt86owJPou0/s45wzrmk2nSA3ppKGXXUTxTH1gmu4SVrGFZ7460DXIPTxG8l1WIdUFXK50naHf2qn6Qr83XrDFcnnR23gy4AStYpVaW6cONFQ+ecc845N5L57b8F/mCdUTbxbdy36tniqQjTrDOCIurnxW+NFI9H2M06owJ5spKs73udc66BbDpAHygl/wW3pL51jduWV60DgqLysnWCa3ht1gE1lpwbBHJ9xwAnWGdUlei36O74F+sMV2fDW/V/zDqjymbzbHGBdYRzzjnnXEMT8tYJ5ZNTuG657/K3RXKRdUGA3k3vYx3WEQ0r9JtWlJB33XDOuYa36QC9bSj5A3TEVxe7rRN8IDwWkfqfl9uGONkDdE3QKteUfM46ocpuZefMX1pHOCNdma8AX7POqC75DLll/lnWOeecc25LJOiB0njGj3+PdURDyhWng55knRGgCMadbx3RkIbPh3+vdUYFnmBZ+m7rCOecS7JNB+jrJiZnCLBFkuxBjquc+gB9TFResk5wDU4TvgJdErICPV94N8rbrTOq6A+kSmcyN/FHCLitmZL+G5TbrDOqRzuIJvrKG+ecc865LZmfeRBYZp1RgbBXxNaK6IVA8o8erQXVi8ip/9m90ZSpJwI7W2eUTfk+C8WPqnXOuRradIC+Y0szXGRO9iDHVU540johKBI/ZZ3gGpwkfuePpLx3/r11QBW9QIrTOH3mC9YhzthcGWJAzwBWWadU0Sf8LHTnnHPOua0Q6bFOKJ++m0X9U6wrGoqqILzPOiNgaVr632kd0XCC3749Cnm3DeecC8KmA/QXm2ELd036IMdVKtaHrRPCEv3RusA1OE36zh8a/ntnb+EtwLHWGVWiqFzE6ZlHrUNcgzin43mi6L3AOuuUKsnwXH/WOsI555xzrmGVou9ZJ1RgHKohbytdffniO4G9rDOCVsJ3sXq9q1aOR+U064wKFOme/kvrCOecS7pNB+grjhgE1CalTiJfge62RXwgPBZS8j8vt3USJ/zGJRmwLqhYLB+zTqgakS/RnV5kneEazPz23wIfts6oGtWPoSrWGc4555xzDSk7/WHgd9YZZYs17JWx1SY+/K2Y6DxyK3e3zmgYk6JTgUnWGWVTcogke4bjnHMNYNMBOgtjYL1JSb3Eid9K2FUqFf3BOiEggwy96qs83dYlfgU6r1oHVCS3aiaip1tnVIXoL9i5/R+sM1yD6sp8DUjKNncHs7hvrnWEc84551wDC/dzn/AOljy2m3VGQxjezn6edUYCjCNqOc86omHEUdg3qaiE+/rmnHMBiUb4ubV1r6inKE76IMdVamj6g4Cfmzs6/0d2Tvirb12tJft1VzXs902RvwNS1hlV8CqSOp+5kpQz6V0tpEqXAkXrjKqIo49YJzjnnHPONawUIW/jnmKwpcs6oiFofD5Jv6ZQN3qx72IFLHl6IqKnWGdUoEB3+73WEc451ww2H6BrwgfoyETrAtfgslICfmqdEQTV260TXAAiTfbrrki45ypf37cTIhdYZ1TJR5nf/oh1hGtwp898gUguIRlHFp1Ivm+OdYRzzjnnXEM6PfMoyG+sMyoQ9grZalEutE5IkL1ZVDzWOsLc4Pp5wATrjLKpfs+3b3fOufrYfIAuSR+gM8U6wAVA5CfWCWHwPyc3Ciq7WCfUlAa8hXsb5wE7WGdUwa10pr9uHeECMT/9IyAJXy+Ccql1hHPOOedc44pD3ub4GHKrM9YRpnr7jgb2t85IGD9PPvSbUzTg4ymccy4wI23hHu4gYDRUp1onuACUuIVkrE6rped4bs0vrSNcEJI9QBfCXYGOJOFu/nWIfsDvwHZjsn7DJ4DHrTMqJnIeN67ezjrDOeecc64hxfp9wr22I0RDzb2Nu8rF1gmJo3Rzfd9O1hlmFq+cDPpO64wKPEZ35tfWEc451yxGGqC/VPeKuoqSPchx1ZFNrwDusc5ocN/l0sMGrSNcEJJ945LKC9YJZcn1HwkcbJ1RMdXP0tnxmHWGC8y5s19C9e+sM6pgMhtK860jnHPOOecaUnbGSuB+64yySeArZSuRe3RHoNs6I4Em0CZnW0eYiVs6gTbrjLIp3/fFA845Vz8jnYEe5iBqyXSPAAAgAElEQVRg1NQH6G50VK62TmhwV1sHuGAk++gM0eetE8qSiv/COqEKHuS5p79iHeEC1d3RA3KTdUblNAl/l51zzjnnakTC3e5YOZxccZZ1holo3NnA9tYZCXWJdYCZWMO+KUWjcF/PnHMuQCOcgS5hDgJGzwfobnRax3+fpB9pUL4H6crcZx3hArDnCTsCrdYZtRXg++Z1yyehZK0zKhbLB30nDFeRlP4tMGCdUaFjyT2+j3WEc84551xDaom+R7jbuEMqbs5V2OJnddfQQeT6DrWOqLvcE1MR5lpnVOARsu0PWEc451wzGWEL90BX0o1esrcSdtUzb+rLKF+3zmhIol+yTnCBiOLk37SkAb5vTmg9k/Dv5l9CNv1T6wgXuNMzjwL/bZ1RISEa8guMzWDxyslc37cTueIE6xTnqsa/np37s+v7duL6vp1Yqi3WKYny3ulF4FfWGWVTCXvFbDnyxYNQmm/AW09RE54vL4PdQLivr8L3rROcc67ZbP6mIbwQ8H2ZozGBQ0/bjvtvXGsd4gLQOvSvDLb8JbCddUoDWcHOme9aR7hAtOouxGJdUVtRgCvQVc6yTqjQELF+yjrCJcQG/WfaZAFBHzchZ6L6cT8PLxA3L2/jle1mIPGeiM5AdTci2Z2YPYh0KiqTgInAJGDyn35diY0nNirkCxt/Ul8GeQHkGdCnQdeA9KGyCuKVtMSPcvrMVfX9DbqmtFRbeLp/BhJ3EEkapAPVNMpUhJ2AnVF2ImICykT+dC3i9V/PDCK8gvIK8Bzoc2j0LMJqRAuoFpFUgfWlhzmnI7zPX665LFqxK0Pj9kbYE6QddHeQdiKmouwIm/zY1LPF1/+9eAF4fuOPp4EnQfsQHifmUVrlD8zLrK7PbypoOeCt1hFlOphc3/5kOx6yDqkb1UtJ+GUEe3oOuTUfJbvrK9YldSOEfTOK4Nu3O+dcnW0+QFd9nqR/Sln76lSgzzrDBWDenk+RL3wd+JB1SsMQ/SfmypB1hguEpnYJebe8UYlLL1gnjElu5e7AsdYZFbqiqS4gudo6p+N58oXPA/9mnVKBND2PvxX4hXWIe52l2sJzfQdBdBDKHOBAYD/W0k5U+vNOYCLDb5UC6Fi/D5OJwETQ9Mb/v/F/Nj5gKQX5wovA71B+D9yHpu4hO/3hyn5zrqnlnphKasPhxNGbEeYA+/FscR8i2mDj1/Nrn/9e/yUtbOtj4TiUnYCdgDTIxq/l136dgMbQJpAvPAEsA1mGxPdTavk/uqc94jcSubq7auV4JrYcDPomkDcN/y97E7Pjpns+bvzLMPav0Mkbf8zc5LFee98YZPh1XvQhYu4j4l40vpfOGQ/734fXkagHjb/MiDtxBkDIAgutM+oiV5xApGcl/TKCPZmIrO8GrrIuqYslhWkMcox1Rvnkj8xPP2hd4ZxzzWaEATpPJX1+jkgGH6C70YqizxOXzgXZ1TqlAdxHKfMd6wgXEp1hXVBzJXnSOmFMUi3dqKasMyqwnli+YB3hEubl0v8wMfUhYLp1StkkzuIDdFuLV06mlDoO5RgijuDZ4qEQNcL21DsCxyIbb56SEuQLTwP3gN4B0S10pZebFrrGll+5L6SOZ/gGvCNgcAYaWd93v8fwDz0BFYhK0Ft8gXzhV4j+FOR2Sulfk5WSaaVLnqtWjmeH1NsQ3obwdpS3gLYN/0Ozid+OqByJcORwQgryxafoLSxF5Q7i1K1kpxW29SCJ1tneT77wC+Bo65SyCGfSLAN0ibtR2ck6oykMnzPfHAP0Qc4k1BtoADT27duT4ublbbwyfhdaZBco7UqJyUSMB4a/b9RoRzR+3c3WUYzEL6LyMhK/hPAY4wcf4+TZG4x+B841lc0H6BFPJf4uv5g9gZ9ZZ7hAzG9/lnzfx4CrrVOMlZD4Ur8I5cZEX79SIqHa4qesE8ZGs9YFFVH9JtnM49YZLmEumLmefOHfgK9Yp5RNOIOF+mEWSmyd0jQWasSBhSPR6FTQ4ynxZiA1ilW2jWAqMA9kHujl5AuPAreg0suy9rv866jJXbd8EhPaTgJORjmecG4umgy8G5V3A58nVXyefN8dKDeg0U1k089ZB7pA5VbujkTzQE5GOIHXjnhr5Nd6YTeUM0HPJBqCfOHXCIuRuJf5M/5gnWdDcyBhDtCRfcj1H0K2/QHrkpqTJjyb287R5Pvm0NWxzDqk5oQzGvo1e1vUt28PynXLJ9E6/k1E7I3GsxD2AvYCmcladiRSiDduJbPZ9446vEPZ6///a7uUaTT8765tU/J9jyByJ7CUZ9Ys4tLDBuvye3OuyWx+z/i+x+8NJHxLP/ksf7x9oXWFC0y+eDvo8dYZhr5CV+bD1hEuMPu+oxdkvnVGDa3ljz/Z3jpi1HpX7YFG/YR75/UGJJpFZ3u/dYhLoOEVZY8iTLNOKZvyNroz1b9JNFecAPH+VX/cmoleJJteUZOHXqotPNP/TkQ7QU9L6A5FT6CaB/0e3TPusY5xdZJ7YioyMB/kvQjvAFqtk6psCLgT6CWWnA/TtyJXPBDiMP77p1TpnPHrmjx27tEdkXHzgbM2/p0IeQenN7oX5Boi+S7z25+1jqmb3MrdiVL9BPvfUr5IV/qT1hU1lXt8H6LSH7De46S5JP9aX27VTKLoUcL9uvo9XZmDqv6o+eJBxPG4qj9uLdTy/b5SCzXigOKbgWMRPRTlMJDZ1PO6Wzw4mexeL47p16gKPYU316ho7KLoPNDLrDNGTfg8JV1knWEmlXqqWa7Nbr4Cfaj1SVoGDFLqSZO/ItJVX1z6C1LR/RvP5Ws2y1jb+hnrCBcglT2D/RZldMLavl2lm3CH5wBXNcsHNGfggpnr6Sl8FfhX65SyiXRRi12WWnQvYrmv6o9bM/HNwClVfcje/rei8Tk8WzwDYerwTyb2DW4PRP4a5K/JFx4CvkUUXdNUQ5ZmcfPyNtaOPxXVBcjgSSBhXEQtTwtwAnACkf47+b6bELmGZ9bc4it23iDiRpAO64xRURmk2jd75PoOJYouAT0HCOdG2bF5C+hbiPXL9BZvAPkKne2/tI6quezMJ8kX7gbeZp1SprNQ/VSiz7aPSheT4A9YDep93Lz8U4neDjolZ6IBf11JrVaf681EEsYuQyobgPHWGX+yeOUMSqkTQU+A4lxgZ+DPK8XrS3loz5fH/Kt6HhpHNLGBvscP7K1N+RSRfMo6w4zGXwY+ap1RD5tfRF9xy0vA2vqn1JGwp3WCC1B2xkqIzwOabUvLV4jibhbs/qp1iAuQJH4L98C2b5eTrQsqoFC63DrCJdyGDd8AXrLOKJ+eZl2QKNctn0RP4QPkC79F418AH4TXhudNY3/gK8Tx4/QW/pdF/QdbB7kqyBVnkS/8G2vbVoPmEd4DJHl4/kZtIJ0oS9h511X0FD5NbuXu1lHOUE5T9BTOJF+4n0juA72E5A7PX68N1W40/gW9hTvp6WuGHfcC3gZZO+jtP9y6omZyy1pBF1hnVGC9dUCZprCu7b3WETWlhH2MXSnVY53ggB88nibfdxn5ws8ppR4DvgbSyWvDczsv+/FbztXOFlahyer6ZtSZ+gDdlalzxg+BL1hn1JXqhc17RpqryL7HTwF2tM6oLX3CumDUcsUJhLvaAuBHdM38o3WES7hzZ78EXGudUYGZ5IqzrCOC1/tYB/nivzO+7XGE/waqv2VieNpQFhDHD9BT+DH5wrutg9wYqQr54snkCzcT6cPAh7C/4GdPmIbwT0SpPvKF6/0mkSaTW9ZKvvB+ouIjCN8FGmcr03pT3o7I7eSLd9Pbd4J1Ts3E43IMH+kQKD3DuqBmUju8J+CjcYaAv7OOKFvMRdYJNZN7fB+QQ6wzyqcPkJ2e8KN2G9hVK8fT23ce+cLPGSr1gfw7cDSNtVPG2LZud86NyRYG6LqqrhX1twftR06wjnCBejD9GeC71hn1oZ+ku8PvdHTliZvgZiWRR60TRi1iLhDue18k/2Gd4JqFXE7Iu82kOMk6IVi5vv3JF65HW1ZsPH9tB+ukhiS8E/gRvX33JHrIkhQLNSLfdxqLiveC/hA4ibCPc6mVVuBs4vgB8oXb6Fl1lHWQq6GFGtHT1000cRnwNWiC71tGTY9C5TbyhdvIF5N3A1l2j6dRucs6owJnslCT+RqucrF1QgVuYEr6WyhhLkgTTmBxYS/rjJqQobOsEypSs+3b3Vb19u1JvvCvTEoVUbmGxhuav17AO+g51/i29KHrsbpW1J+w3cQwzvRyjWehxDy75n0gN1mn1JZcTlfHF60rXMBSTXAhKpaV1gmjpvGJ1gkVWMHp7bdaR7gm0ZVejvJj64yyhf133UauOIt837VE8nvgbIbPSnbbonLkxiHLXT5sbEDDA8IFHFB4COQGlEOtkwJyAhLdTb5wG7k+/3NLmt7C2zig+BtEcoDv2rJlJ4DeT7747yx5eqJ1THXFIQ+k9uDA4jHWEVX3g8fTQMA35cmVzJUhIgl1JythiPOtI2pCpNs6oSKlyBc11VNu1UzyxStQeRj4CMou1knbJr4C3bkaGnmALpr0ATpIvI91ggvYpYcNEpMF+Yl1So18jc72cLefco1ib+uA2tNwBugi4a5KVa5CRK0zXBMRvco6oXwyd+ORDW5bFvVPIV/4LyJ9CORcfFVuuY5Fop+TL3yH3OqMdYwDevtO4IDC/Yj8L4h/31u+E4jkXnqLOfLF2dYxrkK5lbuT77sW5U78aI7RagG9jMF1D9FTmGcdUzWD43oJeRv3mORt4z40dDGQss4oUz/xxpu9Rb4NhPl9q3ABOQ31v8HIcv2HAPtbZ5RNuJ9seoV1RlNY1L83+cL1RNFy0EsI6YZqVV+B7lwNjXyRKI7CGQiUS9TPNnOVyabXEb90MqLXW6dUkaL6WboyH/BhlauYasDnTI2SBLJjy/B2bKGusCkRRddYR7gms93AEuA564wyTUD0WOuIhrZUW8j3XYbGy4G/AsZZJyWAAGcRDf2B3uI/cvPyNuugppQvHkS+7w5Ubgv7vM+GIqh2gy6jp+9fuObJ7a2DXBl6+rqJUg9uvFmqUbdgbWTtCD+gt5hj8crJ1jEVO3vaMyhLrTPKJnSzVMMZ7mzLQo1AzrfOKJ9+m6yUAJjf/gjwM9uesk1HCuHedD+SSAO/2URC3i0jDItXTqa3+EXi+HcM70QW3k0k4megO1dLIw/QNaAVdWXzAbqrguycAeZnzkP1s9YpVTAEcindHQutQ1xCiCT9dTZmqLXPOmJUhnibdUIFbqezvd86wjWZk2dvQPmedUYFfIC+Jbn+Q3i2+AuQf0fZyTongbZDdSFr2x6kt3+udUzTuObJ7enpWwh6L4j/udfGOEQ+xoSBR+jpW2Ad40Ypt3J3egpLNm7XPsU6J3iq3ZRSv6a3/63WKZULejA1lecLyXmtP6D/RCDUHWyUlGx6s7fqlUYtlZOgz6EfgXZZF1Qk0l7rhMRaqBG9fZdQSj2C6seBgG/+9RXoztXSyAP0KJAVdZVI/mDH1YuI0t2xEJVOhOetc8ojfYgeR1f6m9YlLiHmHLcDykzrjBrrZ8UtG6wjRkX0SOuEsmmw58i50ImEu/OB6NHWCQ0nV5xAvvBvRPF9wGHWOU1gFhrfTr7wP+TW7GAdk2j5YifbDTyMyD8CrdY5iSdMQ+R/6SnexJLCNOsctxU9xeOIUr9GeI91SsLMROOf0dP3ceuQigzEvcCAdUbZYgl8Ze3rqIY8tL2N0zOPbvIzGvUAL9jkVOyUxLy35YtHEO4ufAC/2uxry1VHbtVMDijcjsoVwFTrnMr5GejO1dLIA/Q//uRZSPj2D8qezDppknWGS5Du9CJKLYcg/Nw6ZWy0lw3xm+jsuNu6xCVIKTqIxJ8lG9JuLXKMdUGZNrBh/Y3WEa5Jdbb/H1CwziiPHEFumQ/SXpMrHkikvwQ+RIjb8oUrAv6SaP3v6e3zmzqqbfHKyeSLV4DmgenWOU1H9BQGeYjevkusU9wbLNSInr6FiP4E2MM6J6FaEPki+cLVwR7ZcU7H8yh3WGdUoDPYP/vXW/LYbginWmeUb4TV5tn0OuC79W+pihaG9H3WEdUR+PbtQo91QuKoCr19lxBFv0vUjk2Kr0B3roa2PNxQAhoMlEVIrT/QOsIlTHZagZ3Tc4EPQ8O/gRVRzdLV0cU5HYGunHcNS6Mm2OUjCmO3luv7dgL2sc4oj9zGubMb/bXUJZWIgiy2zijTdqQmNsHr8DaoCvm+TxDp/cBB1jlNbAYqd9JT+DQ59RsYqqG38B5KqT+A+vDW1o6oXEG+sJhccWfrGAfk1uzAAcVFG3dkSPjNvA3hfawdfwffWb2LdUiZQt7GfTJrW99lHVGxgdT5wDjjinI9y3YDS0b8J3HA27ir/MXwufQBG+7PWmdUQGEobx2RKIv6p9Bb/OHGVefJ2h1LNNmLYJ0ztuU3REn8AB2i6BDrBJdAc2WIrsxXiKI9Qf4DiK2T3mAA5D8YN2EO3R1+R6OrDdHkD24kkBXorRxNqBcQVRdZJ7gmJyF/DTb5Nu7XLZ9EbzEP8gXCvTCbJC0I/0Sq+BOWPLabdUywbl7eRr54OcoSYHfrHPcn7yXSB8j1hbrjTzIsXjmDaP09wDzrlOaiR9E6dBe51eGdYd1SWgyEcSTXSISwV9iqCiIXWWeUTbmak2eP/PWT7bgf5Dd1LqqWmRzUd5x1REUOLB5D0LvzyC/o3LPPuiIxcn2HEsf3AidZp9SEiC86ca6GtnZBPYyVdZXQJhjwODvz25+lK30ZEQeDXAsMGhe9AvIftKRm0ZW+jHlTXzbuccmW/NfXOJD3yUhCPf88ZrDFt293tkrpu4GnrTPKEx1lXWBHZjC+7QFgvnGIeyPl7Qy23EuueLh1SnB6+/ZkXdvdoH9jneJGlCaSpfT0fRxVsY5pOvm+OQyl7gZ8l0Eb+xEN/YzFhb2sQ8bk9JkvgNxmnVE25T3kihOsM8qW7387MNs6o2yq397Gv7Gtf9644ijkc+khDvzmEuKQd8doLL19lxDJPcBM65SaiX2A7lwtbWULd11Rxw4j8ibrAtcE5mcepCu9gFRpb5DLQdfUueBRhE8TSwdd6ct47/RinZ/fNZ3uFHCAdUXNpeIw3ieVQ60TyvRrzp72jHWEa3JZKUGg52Oqhvp3vxr2J8kXScKXJtK7yPcl5IzNOuhddQoqvw74Pb1ZDJ8L3Vv8Ljeu3s46pmn09h0N8nOEadYpTS5DiaXki2ENRCXkQZVMJBWfYl1RtigOeUh7N9mOh7b6b6SGrgPW1ien6jqDPZph+LigTuuMCsTEkW/fXilVoadv4cYt21utc2or9i3cnauhrW3h/rs6dlg5hDnHJevcC9e4Tp+5iq703zIlMx2Vk0GvQ6jV2eOPo/qfSHQkXZlZdGY+Rzb9XI2ey7lN7fvMISTtTKHNxYgus44YFQ10JY7wY+sE5wCQYFcmzWTJ0xOtI5zbgjaQq8kXLw/+nM1ay/ddhkZLgB2tU9yoncGGoXtYvHKGdUgTaEHlx8Bk6xAHQBq4jd7+duuQUWvZ7gfAeuuMssVRmCttF6+cjMrp1hllU7Z9xvnpM18AflD7mJpopXXwHOuIsrQU3oEQ8nFBd5NNP24dEbTcslYWFa5F5B+tU+pCxAfoztXQli9WpOLf0XhnN1dbC0ORbx/o6muuDNGdvoWujvP4fXoXiN8MfAjlBuBRoDTGR9wAPAR8B9FLiaJ96Mq0093xN3S2/7La+c5tk8ix1gl1sIJld75iHbFNueLOwa7GiYMdWrrEkVutC8okDG2YYx3h3Nbp33Bg4RpuXt5mXdJwcstayReuBPl3IGWd48bsYEqpX5Bf5bve1ZYAvtq/oWgHGt/BksfCGGANH20X6mc9ED2V65ZPss4Ys7jlPML9u/sKOr5nVP9mFG970N6wJMwdAmIJ86aSP5GAd8VoALniBGTiTaiEeQNIOaLIt3B3roZatvhPlt35Cvue8BjorDr21J9wLKFuzenCt1Bi4Dcbf3wVGL5YFm23J0SzkWgixDtANJk4FiIZAn0Z5QWQFxFdTinTt3GLWecag5L8AbroA9YJoyIcZJ1QprVsv/4X1hHOAdDZ3k++72GQfaxTxkz1QMBvpnONTeUc1rZNJ7fmNLK7Nv7NafVwzZPbEw30Au+2TnEV2R2iu1hU7GZ++kfWMc7V0WyGUou5eflcTp69wTpmm0RyqM6zzijTeNrGnwZcbx0yJhpfOHz/S4CE60f9eeX0jqX0FlcAIV5bP4De/rcGtTDnivvGAeHubAAx43SRdUSwcsUJRHoDcIJ1Sl2lBnwFunM1tOUBOgD6AGG+yY9eMwx6XFiycwaAP2784VxoBOQY64iaU/mtdcKoSHxQoBcm7gviYptrHiL3oAQ4QI/DPMLBNaPjSK2/hdyjp5Ldq7kvAuWKOxMN3AwcYZ3iqmIHYl1Cb2EBnZnvW8c4VzcqR7J2/DeBBdYp21Rqu4Fo/TpggnVKWUTPIKQBeq54OOgh1hkVGP2qchElX7ga+FzNampJ44sJ6WbcKVNPBHa2zqjAXczLrLaOCNKNq7djw9ASmm14DrBhnK9Ad66Gtn7eXCgDgkqIvJVDDx1nneGcc4mw97v2AXa1zqg5CeT9UQI9/1w1nG/SXXOI9VfWCWURCfM1wDUn5RhS435Crhjyhc/K9K7ag0jvwofnSdOKcj29fedZhzhXX3oePYWPWFds0/Bq4lusMypwYlDvnVEc5tbgw35PZ+beMf2KuHQlMFSbnJo7M6gjAoTAt2/Ht28vxxX3jWP9UC/NODyHQbLpddYRziXZ1gfoEocxIKjM9ry8o59L5pxz1RDFzbGrx+BQIO+Psq91QVkk+j/rBOc2IVGYRwoo+1knODcmyqFE8U9YvHKydUrdLVqxKxrdDsyxTnE1kULlanoL51uHOFdXwhfo7TvaOmObJOjB1Tgifa91xKhc8+T2EPAZ1SLfHPOvyc58EiTUYzy2Z/z4MP57XbVyPCqnWWdUoMS4Id++faxUhV12vQLhROsUE0Jz79zlXB1sfYCeigIZEFQokuYY+DjnXK01x7EYz7Lizn7riFFRZlgnlCUOaJs41xzi9mVAeGczC7ty4+rtrDOcGxs5hFLLD8mt2cG6pG4WrdiVuPUOYH/rFFdTEcqV9PQ1/pbWzlVPCyrf4zurd7EO2arWlhuBV60zKhDGkHP7wTOBcFY0b2o9pXK3ytfRb/veaETD2DFgUnQq4X5tASxl3p5PWUcEJ1/8J5QLrDPMKL59u3M1tvUB+rLbC8Bz9UkxJE0x8HHOudoTbYbX099ZB4xKblkrMM06Y8yEZ8imH7fOcG4TWSkh+nvrjDIIgwMd1hHOjZ0eRbS+lyvuS/5RW7nizsStvvK8eUSIXEm+L+RVcs6NVTutQ9+yjtiq06atBX5onVGB41ny2G7WEdukgQxjRyLaSzZd3jXyKembgCeqG1QnyuHk+hv/zPo4CuMmki0R7bFOCE6+eC7CP1hn2BJfge5cjW19gD4s+avQleOZdVKbdYZzzgVt73ftC4GueB4TfcC6YFSiSR2M7n2+sSgPWic4twXLrAPKUkrNsE5wrkzvYsqu/4uqWIfUzFUrx5PSJcCB1imurlpAvk9PoRluPHXuNfPI92WtI7ZOQt7GPcVAS6d1xFYtWrUf8FbrjPKlyl9FPleGELmmijH1FWljr/DNrdkB0VOsMyowhAz+wDoiKPniQaBXWGeYE/UV6M7V2LYvrKskf4AOO9A6dIx1hHPOBS0qhfwNyxgE8r4YxTOsE8oU5pDSNYNAvzZ1pnWBcxU4i0X9n7GOqImFGjExug7Fvw9tThMQbtg4UHKuSch/kXtiqnXFFr089EMIeDtcafBt3EvRJdYJFXiM+dPvrOgRRL4NaFVq6k4XNPSxULJhHjDBOqMCP2H+rDXWEcG4vm8n0EVA435N1kvsZ6A7V2vbHqBH/KYOHfbiZhn8OOdcjaieZJ1QF3Ecxgr0OJphnVCmQIeULvEk0K9N0RnWCc5VRPUfyRfPtc6ougP6vwLS2KsFXa1NJo5uZFH/FOsQ5+pkKqmBz1tHbNEFM9cT9jbux5ArTreOGFFuWSvCOdYZ5dNvIlLZ8Ht++yPAz6rTU3eTWV863Tpii0Qb++aRbQt594v6UhXaomuAvaxTGoKvQHeu5rY9QB+M765DRwMQH6A751y5Zp00CZFm2IbyRR7ZJZAtxjXMc48l+qN1gnMjilrC/NqUYG+mce41AvpN8oXDrEOqprfvPNDLrDNcQ9iLOF5MblmrdYhzdaFyIfniEdYZWxHyICsi0sbcJj+a2Ak07u4DWzfEuCptv65a/jbw1qRBz69fvHIy8C7rjAoMEotv3z5avcVLQU+1zmgcfga6c7W27QH6ijseBVbXPsXc3uz3ztnWEc45F6TUwLuA5F/4U7kbekrWGaOju1oXlKfUZ13g3IgGpq0GBq0zxkw11IuVzr3eeKCX76zexTqkYrni4ah8wzrDNZRjkYlftY5wrk4i0MtRFeuQEW234RYIekvcxlyJq9KYw9fRuYl5mepcF9eoB3ihKo9Vf28nX2y86+al1HygzTqjfHob2fRz1hVB6O3bE/RL1hkNRYJ+v3IuCNseoANosFvMjJFv4+6cc2URmuP1UwJ6P1QJccgQU3ql3zrCuRFlpQQS4k2lIb4WODeSDK1D17FQR/c9bCNa8thuRNrL8A0Bzv2Z8AF6CmdaZzhXJ0eQ72/M7aBPnr0B9EbrjAocweJCY21tnFs1E9HjrDPKVs1V49n0OuB7VXu8+hLgQuuIETTmTSOjF/KuF/UkqFwPMtE6pKGovmyd4FzSje7iQxTQwKAS6tu4O+fc2C2MgBOtK+pCS+G8HwrhnaepPEl2zoB1hnNbpiHukBDea4FzW/ZuDuz/iHVEWVSFgXFXAu3WKa5BCd8kv4VLUMwAACAASURBVHJf6wzn6kLiz7NUW6wztiDsgVZJu60TNpGKLma0158bz+No5pYqP2a427irXsAV942zzviT3BNTgXdYZ1RggA3cYB0RiFbgrdYRjce3cHeu1kb3ASZukgE6HMs+R/udTM45Nxb73P1mYHfrjDpYT2n8fdYRY7CzdcCYCUXrBOe2TgvWBWXwAbpLFtXPkSsebp0xZosKlyHqN2y7rdkBUt/j5uUBb0Xr3GjJPjzb35i7LsSv3AqEvKVy46zIXaotxJxvnVE25arhXaiqqCtzH+gDVX3MehF2Y5fdGuf8aRnsBhr1RpzRuJVzOp63jnABEx+gO1droxugP3zsg4T94XG02mD8e6wjnHMuKFGctU6oD/0VK27ZYF0xBuFt26w8ZZ3g3NbJGuuCMrSy5Gm/QdQlyTgivZ7cmh2sQ0ZtUeEAVL5gneGCcDDrxn/WOsK5+tBPNeSxHMM7YgW8KlQOIde3v3UFAM8UT0GYZp1RJqWFq2vyyBJ9uyaPWw8xF1kn/Ik00M0iZZGwd7tw9uL4JesE55JulB9UF8bAL2pa0iiEs6wTnHMuIILSWFvE1UpI558PC3EFejPcrOdCJoS5QiB+xVehu6SZRbThc9YRo5Jb1krMd/Bzz91oqX6E3n7fptQ1g/04sO8k64gRaeCDrVTUGN+jSwMNW8fuJ5yeebQmjxwNXQusq8lj15roSeRWZ6wz6F21B3C0dUYF1hMP3Ggd4ULnK9Cdq7XR3+kpGtrgoFzvYu/jwlu155xzFvY//hhghnVGXWhAA/RccQLDZ0SFJszhpGsecaA3eei4Ha0THABDwO9Ae0G+iHIhytuQ+FBE92Lc0O6MmzCJVGkn4tIeiO4F8ZuJo6NQzYJ+EtFvgS4FHrf+zdjTDwaxlXs06RPAgdYZRl5F+D9Ev4XwEYQzET2GWGYzbmh3NujObLdhPBt0Z2KZ8qeveYlPReRihM8DPwBWALHx76WeUmjp6o2f55xLtjj1IeuEET331O3As9YZZVPst8cfHnA25g0So6E1PKv89JkvAItr9vi1FRGVzreOQKMzgZR1RtmUW8ju5cNPV5lU5CvQnaux0Z8TEtLgoDLjkKgL+Lp1iHPONTzVs0CsK+phCN0Qzk4s44baKAX4vaSvQHeNL8yvUY1DvKEmCQaAX6H8lJTexStt97Bg91er9ui9/e1ofCxwFHAsw0PaxtsKt3ZSRPpNrrjvMC49bNA6ZkS5vv1BP2WdUT/6MsidiN6BpJbyu+m/Z6GMZvD92hE5r73G/mazfyP36I5Iy7GIvB30BJBDqlXdmGQfUvoPwN9bl7iqGATGWUc0JNG55B7fh+z0h61TNnHpYYPkCz+AUFdQ674s6j+Y+e2/tWuILiLc86mf5ZXSD2r6DFF8JXF0dk2fo2b0YnL6/6p+PvzYhL19u9BjneASQAb9Jgznamz0H2RSU+6j9NxaYLva5TQIkbPwAbpzzm3dcce18KR0WmfUyQM8fPfL1hGjpqXWIG/GVvW7Z12DkxdBrSPGrqRt1glNpAQsRfkOLaXFG1cY1UZnez/w3Y0/YElhGoPaDVEW9Eia4w63g5gy9cPAF61DNqMq9PZ/ExL/9+9FkBsQzfNS/GMumLm+Js8yvErrpo0/YHFhL4a0a+P37gfX5DmtKR8hv/Jaumb+0TrFbdGTIPehugLRlSiPoTxGqvQq61MvsdPAWk6ePXyDyFJtYXVhIuNLk6B1D+LS3iCzEd0POBZkV9vfihkhKl0KNN5KdCUX9BbkpfgMwGaArir0Fs83ee5qUK6t2fvZa07vWEpvcQUwq6bPUxtpouIJwK0mz55bnYGhxt+FaMvWEo/37dtd5QZbyr+GNnX/mGf7v1HFmgrpwcAR1hVjcBdI835Gl/hX1gn1MvoB+rKeAfZ5xy8QOb6GPY3iGGYd186KO/utQ5xzrmGtjt5JRJNc6JE7rQvGRMe3hrnTqQxYFzi3dfFAkDPJFvUV6LW3CvhP4tJ3yM580qRgXmY1cDlwObnVGVKD5xDLBxGmmfTUjfw9SwrXbPz9N45FhXNBjrLOqB19AOFrvNp2fVV3Vhit4XNp/wX4F3r7jgb5IMp8wjzCZktaoeW/gBOsQ9xrdA3ITQg/Q+VuutLLR/1L58oQw8cVPQ/0Ab/888Oq0FvYH4negWo3cAxBfuAo2wJyyz5Bdk5jfS+wS/oOni2sCfbmBuFMVP8ekfrf/bm4cALIXnV/3mpJRVfX/DlElHzhauBzNX+uWhC5CKsBejR4Nki4r5EqN5Pd9RXrDJcAU9vLH6APfy65tHoxFcoXPwoazgBd5Vq609+yznC1N7Yt/qLohzXqaDQRLZH9eUHOOdfIJDrLOqGOwnr/i+JQV7s11kUz5zYT6E0epVSorwkB0AdQfR9T0rPpynzFbHj+RtlpBTo7voC+PBPV9wEPWifV0A4M8v+sIzZxzZPbo/IF64wauROVuXR1vInOjm+YDM/fqLPjbjozZ5Eq7QNczfBOEAmhx5Pvy1pXNLlXEb0elZOZkplOV+YiOjNXj2l4vi0iSlfHMjrT/0lX5m2IzkL1s8ATVXuOxjaFaId3W0dsZq4MQVTbbbxrayY9/W8xeeZYwl25D7+s29b3sVxNqO9ZqvNYtMLq5pKwt28nzlkXuER4deMQ3DlXQ2MboMelm2vU0YCkmQZDzjk3Nu1HTkD0vdYZdfIi2z9/t3XEmAR73nGgw0nXPCTQr1FJ/BbSFn5HpO+iq+NNdHdc07AXL7JzBujuuIbO9EEI84BHrJNqZAH5wmHWEX8yYeATwHTrjOqSe4jlOLoyc+lO32ldM6LTZ66iK3MBUXwg8GPrnOqRz5NbFuhnu5DpGpCPEY/fnc6Oc+lO31K31/rOjsfo7lhILHuB/i1NMUhv0GtwGvigK9L6DxoX9U8Bwr1WIFK/FYXZ9OOo/Khuz1ddrZRaF9T9WXOP7wNySN2ft3rWsq6tieYrrob8CETn6mBsA/SHlz4MVO8u28b2Zvade6h1hHPONaTtJ5wJTLTOqAvRW7n//kHrjLFpCfMiq2hgf86u6cSywTqhPL6FexU9jer7idNvZn7HbdYxoyaidGZuIH75QEQ+DvqydVKVRaBfso4AoHfVHggfts6ooqdRLqSz/Riy6Z9ax4zK/Bl/oCvzbkQXIDxjnVMFe5Ga1DhbbCbfk8CHaBs3k670v5pus5tNr6Or43Ji2Qvlc0CSPyu/h1xxgnXEZjRzJ8pT1hllU85koY7t2m+l4vh9QKg3b75Cy/j63jQRcWVdn6+aRC9Gtb5bqafi0HeMvbEhdu9xCSAvWhc41wzG/iFKaKK7pMS/SXXOuZFI1ESvjwEeXzKkIR6ADlrG5xLn6qqUsi4oixDma0JjUeC/SJX2prvjCrIS5nab2TkDdKa/hOg+iPRY51SXzKW3f651BbF8Emi8IVBZ5Fpi2ZfuzFUmZ+hWqrPjWmRgDip3WKdUTON/YMnTzXHzqh0FriQe3JeuzFc5bdpa66A/yabX0Z35NMhhwH3WOTWyPanSO6wjNjP8ft9rnVE2YRpzikfX+VkvrPPzVZF+l3lT63uT4c7tNxLsLhOyDz2F+n59qYZ9rIlK2LtauGorITzP8M17jwG/R7h/42fX27f6QzX8z7fOBaCljF/zQ+Cyaoc0JjmbPU/4KI/d7nf0OOfca/aeezDoEdYZdRKT0lutI8asRTYQh3edG9Vx1gnObV2qlRBn0UqgK+cbhPIUUXwRnTPCu6FqSzpnPAFk6elbgMj/ANtbJ1WFxv8MHGP2/EsK0xjkYrPnr56XQP6KrvR11iEVmz9rDTl9FxQ+jcinKWcRQUOQXRlY99fA561LEklZjej76eq40Tplq7rSv2OpHslz/Z9D9ePWOVWn0SkMX3NsMNID+gHrirIJZwA/q8tz9aw6CphTl+eqiaj+q8HnyhA9fdci8rG6P3c1RHIx8PO6PNei/oOJ4/3r8ly18QrKLdYRrm7WAn8ElqMsR3QFKk8g+jhx6xq6d38myBtUnWsyY//mMdr5p0DStvzbku1p03OtI5xzrqFE0V9aJ9SP3MuDPwlvyz4ZDPOcZiLfZto1uEC3QtdQt55vCD9gsOWARA3PX6+745qNN8U9aJ1SJUfT23eC2bMP8mnCX33+W1KlgxMxPH9NVkp0dyxEOYeQt8AW/pZrnkzGzS6NRPkRGzbs1/DD89fMlSE6059A9FIg0M/8W3SKdcCIlrXfhbLaOqMCWZZqOQuoxi6KQr6J7EG60r8yeeZU6kqGd8EIUZbFKyfX5ZlK8Rl1eZ7auYFsep11hKuJGPgtyH+AnAd6AHF6El2ZQ+nKnEl35tN0dfwv3Zkf09WxjOweT/vw3LkwjH2AvqxngOGtIpqDEu5dps45V21zjtsBOMs6o25EwxyYRKlAL6YFOpx0zUM0zPMcfYBejhjlo3RlTufsaUk4Q3nLujqW0dZyBMoN1ilVodEnTJ530YpdgfNNnrt6bmX9hrdx+sxV1iE10Z35HqongYa6IGAq22/4C+uIRBH9Fs+teQ/nzn7JOmXMOju+AbwHWG+dUkUZFhf2so7YzEKJQcPdxh2m8nyh9kecLHl6Ikp3zZ+nZvRbZk89v/0R6rWKu/omUErV5xqRhPz1BSi+fXuyPA1cDdJFLFPpyhxCV/oyutLXDQ/JAz3yyzm3ifK2L5NG3FKpZvZnn7n1Pi/IOeca01DLecAk64z6CXSAXorCHJZFwa/ac0kXMd46oTwS6E01ZtajnEN35svWIXVz2rS1aHo+6DetUyqnx5Nf9aa6P2087q8g1NcIAL5OnD4lyEHiWHR3/IQ4Oo1Qh44qHyG3zG84rJwCH6az4y+49LBwdyXoytyKajdJWokey3HWCSMKffAVS+1X7g6uOwfYoebPUxsDDIy73jZB6799fPW8v+bPkCseDsyq+fPUzku8UgrveED3Ri8i+i2EtxOn96ArcwFd6V6y6eesw5xztVHm+V8tNxPu1jJjF0W1/yDgnHMhEG2mVS9P8Ic7fmMdUZZUW5gX0WLqs/Wbc+Xb2TqgLKmhMG+qsfEssb6T7sz3rEPqLislOjOXovpZ65TKpf6urk938/I2VC6t63NWk+i36Ex/oGlWymTTPwXNAkPWKWWYTmpSl3VE8JSP0ZX5inVGVXR33IToOSTlGp3yduuEEXVn7gYK1hllE+bX4eabi2r8+LXUa77jUBzlgBdMG8p3EL2r3lzTZ4g07O3bhR9wwcwwb95zAPciuoBY9qCz4y/ozNzVNJ+bnWty5Q3Q/3DrEyC/rnJL41K6OeD43awznHPO1PBuHPVf0WVFCfdmsUm7rCPEdmGKdYJzW6XsZJ1QlpL4xZrReZIoOopsR6hbaFZORDeeFf0565TK6BksKUyr29O9Ov48hEC/X5RvMD9zSdOdwzh83vVfW2eURfkr64TAfTlxO4x0duSBz1tnVIe+1bpgRCKKssg6o2zKTsgO76rZ4+eLBwGH1ezxa00bYPV3Nr0O4fvWGWXT6OLaPbYKEPjNY3HYu1g0J0W5gTg6iq7M4XR2XOtn2DvXfMpcgQ6g4X5wHLs2ShLmN9fOOVctEn3cOqGuNOBz7ubKEBDi+Z5hru51zSTMmzxaBpN9hnc1CM8Q8c6NZ1C6rvRngG9bZ1SglYE6nkcuGubqc+VHxO0faLrh+Wu6Ml8HrrbOGDs9ilzfodYVYdLr6Ex/zLqiJh5Mfwa4xTqjCmaRe3RH64gRaRT2AEyo4QpevaR2j11zK1mWWWodsZH9IL98Z3Pj6u1q8sj54jFApiaPXR8vUHr1NusINya3AIfTnZlHtv0X1jHOOTvlD9BFryfE1W3lUv0ge57QmB/inXOu1mafsB9winVGHT3DxBdvt46oUHgDM/UBumtwYa5AV55+4XnriAb3IspJzM88aB3SMESUOH0JsMQ6pWzCxRtXLNXWov6DCXPV3UNs2HBG028/ubb1g8Ay64wxiwjzpg1by4ij5O62sFBiBloWAE9bp1RIkNbG3PWse/ovgVXWGRWYR644oeqPmitOQDi76o9bP1eyUGLrCAA6M/eCPmCdUaYd2TDYXZNHrunNH3UgLCY7J8xj9prPciQ+la7MyXRl7vv/7N15fF11mfjxz3NukrbstGwtSdqyNbWAjDCOLKOlDWVAK9KkV2UbFBXHBR1/CLiMFEdHHDdwQ2Qv4EBy07IIFShtFRDEorLUtrTQ5qZA2crWNck9z++PFGQpJbm59z7ne8/zfr3m9Rok99wP0Gzne77P1zrGOWev+AX0xfM6gftKl5J4O1IXp+nsX+ec+4eMnsOgppYERmnjgQd6rDMG6XnrgAETRlonOLdVwp7WCUV4idMPCf3rWTltQvSDfoNkC7JSIB56EhDqgwVjmfXExLK/S6EQ4pmvLxHLcZy078vWIeZO2WMdER8DAruxLdmyLIRVrw2gH6360asnjHoO9KvWGYMWxQdZJ2xR38MXOeuM4sn2RBxb8stm4tZAHzIF6CWWK60j3uQK64CiiZR+jHubZtDAx7eLhD29Ih16QM7l+Wcm0DLmFusY51xyDHIxRP6vNBmhkC8zYXqddYVzzlXU/lMagI9ZZ1SUVsH3Nw1wAR0dbV3g3NZJiKMDA/xaUEGqX6Jl9D3WGYmV3W0tER8HNlqnFEULnyzr9W9dNgSRE8v6HmWhXyLbsNy6IjGmNT6CENqZ2DsSxVOtI8IhZ9E6OrxJA8VoaZwJhD1JS2WcdcLbiqXdOmFQyrGTV8uwaFo5c8g2PGEd8QaZeCYQ5sM+yhG0db6rpNesyU9C2L2k16wk4QV6X55nneG26mHi6L20NnzbHzx3zr3Z4BbQe6Lrgd7SpARhT3pfOMk6wjnnKqq3cCaQnoeHlC4ePeKP1hmDFmmAi2ayPdd2hrp7waVCgA95iC+gvz29humjL7auSLxpjY+ABLqjUT5S1l266+umQGDHjyg30Tr6KuuMxCnId4DHrDMGJjrZuiAQt9NS/wvriIoRUeLoqwR95KImdwE923A/wX2teB3VqVyzbIeSXW/Wqv2Afy3Z9SpNuNQ64S2OH/sicIN1RtFESvvwYixhj29HO3x8e5LJ1QypeR/Z+lCPTnDOldngFtAfu/0ZYH5pUgIhehbMSM8YY+dcuk04ejhQ3t1biSO/gRnJOANtMDQK7wx0gNpMeAuULh3antmO0BbKINBpFBXxIENq/Qzh/mqp/wXKTdYZRdiODP9WtquLhDZS9EXqej9jHZFI2YYNKP/POmNg9GhmrRphXZFwBdCvVO2552+nbyFgtnVG8WQ/64KtEgl4jDtDGTb0QyW7Wlz4FCAlu15lrea5Z+ZYR2yR6mXWCUUTTuXWZUNKcq2LF9YCx5fkWlYEH9+eTN3AabQ2nMLUUeutY5xzyTX4hWDV8MfcDsw4xv/hOOsI55yriELhDGA764yKqpHrrBNKJFmj6PpLdC/rBOe2bNNY64KiiIb5taC8NhJFWb9ZMgAiShR/FvQV65QBU51eluv23dQNbIS2/A/H7fW0dUViTW+8EeF+64wBqCUulG4hrCrp5akZ3f4Wch4Q6kPBI2lblOAJaIWwF8RiLc2O3vlaAxLuJAzh8sSOa25tnEe4kw5GsK7uwyW50vBdjybEB5hfJTzHzo3p2ngYBH2FSI6jtfFy6xLnXPINfgG9MKSDUM9mKZbKeb4L3TlX9Q6auBPoF60zKkuXsOiOKhndFHdaFxQl0tKemeZcqYhOsE4oSiwrrBMSR/gu0+oftc4ITsuYpxC+Z50xcPohrlgxtOSXHb57M0pIx47keaX3Z9YRyRd/27pgYKQ0ixTVaS2i51pHmGlteAgI9dzdiMywkdYRb6tlzF+AZdYZRRP+jbauwS9KPr/qOGCPwQeZUApyhXXE2xJRhCutM4om8qnSXIfAx7fTwZGSpqNvk095mjg6nGkNv7NOcc6FYfCLwMvnvAyazJE35XMATX8I/Zu4c85t3Yaacwj5ad9iaHStdULJSLCLZmEuUro0CPPPZiQrrROSRZYwbNMPrCuCVVj7I2C5dcbAyPbsEB1R+svqsSW/ZjkJ5/KJsRutMxKvZcwtwELrjAE4mrauYdYRiST8hJYxT1ln2NJLrAuKl6m3Ltgqod06YRDqiPQjg76KamkWSS2ozCfbkOyfZ/oW+AvWGUU6itn5vQd1hStWDA3+ITGJw55WUW2UpxGdTLbhYesU51w4SrOLWiVtY9wB+S4Tpid4pJRzzg3C+KNHImnbfQ5Ecr11QskUaldaJxRFA12kdGkQ5p/NQrAP05RDjMSf4th9N1mHBCs7oRvVr1tnDJjK0WW46pQyXLNcnuK5Z6rnIcFyU35pnTAA2xJxpHVEAm2ipvcX1hHm4rU3AM9aZxRFo2TvbJYo9IWxwW0K6lhVj3BUiVoqLyL5Z4xnG55AJdRdskLMvw/qCtvXfBDYoTQ5Jp5l59F/sI5wr3meTHxkeo91cc4VqzQL6OvW3wLyQkmuFY6xFNZ8wjrCOefKIu79JrCNdUaF3cviO8Idxfdm2ZHPAmutM4owLtlnHrrUkkAX0DO9K60TEuQ6WkbfYx0RvOmj20FDO+6ktAvos1eMAfYr6TXLSbkosee8JpHKdQjh3N9QnWSdkDzaznF7PW1dYS47oRsI8wHhpB+RMa3+QWCxdcYgTGLW8t2KfnVc+BSQKV1ORb1IgdnWEf0SwkL/21E+SZsW/2ck/PHtbT6+PTE2Inoc08aE/DXbOWekNAvoq+7dAHp1Sa4VlnM5eGraFpicc9Vu3JSxCOGOYyvexdYBZbDSOqAIdWS2f7d1hHNvMHvFTsC+1hlF2Mi00autIxIiJoq/Yx1RRS6wDhig/Wnr2rNkV+uNyrGjvVw2Udf7a+uIoGQbNqASzv0NEV9Af7M4+pl1QmKo3GqdUBzdybrgnWnIY9xriOtainrlDI2Q6NTS5lSSzCTbsMG6ol+G198MhHoUxZ5kOv+tqFfOXL0tGthROW8mhD6loloooif7Q9TOuWKVZgEdIM5cBGjJrheGkaxf/wXrCOecKynp/Q6Qrh3Ayotsu03IN0DeTrLPdXtb8j7rAufeQGveB4h1RhEeQyRtP59vmdDmuw5KKF77f4R1Q1eI9P2lu5qU7lrlN8d34hYhJqCR9/puZq0aYV2RGML9ZBvut85IjLW984H11hkDJiR/AT2SsH9/LHaH74RVR4OOLnFN5cRyhXVCvx0pvaDXWGcUTaPiNmYM6/kIsG1pYypqNYUGX7BNAuF7tIzOWWc458JVugX0R29fApq+sz1ivsYBRyR7tJRzzvVXU/MBIB+zzqg40St44Obwbiy9E+Fh64TixP9iXeDcG8TxodYJRXrIOiAhYgryP9YRVSU7oRsJ6pxoUC3l53FAD3rpDdYFQZpe/2dglXVGP0VoCR8QCV2sl1snJMonxm5EZb51xoBpAItn0xofAcI9T1f516Kms4iGO61OuJ9sfVjH0ESZSwl3w9qHuDE/asCvEg18fLu0kZWCdYVjLoWGb1lHOOfCVroFdACRi0p6vRAIO9E95BzrDOecKwnR71Pq7w3Jp8Q11TnaNNYwF9BVQl2sdFVLwnyoQ3nEOiEhbibbEObXwyQr1F4MhHO2YySHleQ6fWfG7lWSa5VfL921t1hHBKlveseN1hn9przXOiEhYiK9yToicaI4vJ2QQo11Qr9I0LvQIzLx9AG94sbHdwemlienEjS8M8Wn1T+KEN7ncJ8aevSUAb2i7+isKeXJqRCJfXy7vReR6BP+IINzbrBK+wNpNHw2hTVPA7uX9LpJJ3yZcUdeztL5S61TnHOuaOOaj0P1GOsMAwv6pqhUIa15iDB/X9iLticbyY7KW4c4R9uiOuBw64ziqO9ABxB8N2I5ZEc+S3t+PsJR1in9orybtme2I7vb2kFdp1B3aEAHOnRS23Mk7Z3WHaEK44xcAPQQ64JEEP5Iy5iQjpeojFgeCOjr1mYSxpFiheg6osIM64yiqXwUuKDfH99b+++gteULKqt1bOi+zjqiSJcBR1hHFEc+jer3+32sVCEzDRhS3qayWsXDjfdaR6Se8Fla6kOZJOScS7DSLqAvau+mafLlwNdKet3kq0OinxH6E3LOufQaM3Eooj+2zjCh8ivrhPIZtRy61gPbWJcMWNTbDL7o5ZJgh0NBt7OuKIrW+gI6+gzPPTvHuqJqRZpDJYwFdKhBNv4TcNcgrxPSQuXeiPguqDQQDkZV+r1AUb38yIIt6an5C3XhDAzpo2EsoGf3XEou/xBwoHVKkd7H7PzeHN/4WL8+WvlEmXvK6XpO2vdl64iiFOR6Iv0JsJN1ShH2YtYTE4H+HiUR+Ph22pkhsXVEqimzaW283jrDOVcdSj+mNyO/AoLc7jZIRzF+8kesI5xzrihDo7MJZxxpCemzFGrDGc85UH3jqv5unVGUUHY0uuoXaah/Fl9i+sgu6wh7cg2nH9JjXVG1NtXOIqQx7sL+ibiGc6Wm7Ez7qr2tM+zpbOuCRDph1HNAaJOdQtozH/aDSr3a2q+Pa+v6AGhTmWvKJ44utU4oWrZhA0K4C4Iaf6pfH/ebJ3cBJpU3pswkCvvrQfjWU1P4inWEc656lH4BfdHcPMLtJb9uCJQLOXhqeLv8nHPpNqG5EeSr1hk25BKWz9lkXVFmD1oHFKmZGVr6n1OcG6hwH+Z4yHciAshV1gVV7YRRz4EOdkd35WhJFr99Ad0lU6Qp/7OpS2kZ/bh1RWIJK6wTqlaGUMeC95Gofzt+o34ugiaSLCFbH/pY7fDOb/+Hls2L41tX1zudUk/Lrawupu35J+uIVFP9NsePXWmd4ZyrHuW5MR3HVTwOd6saWbfhLOsI55wbkF69ENjWOsNAjGbCfQq9v1Tus04oirILEzrfZ53hUq5txR5oUOOa/0E19JuEJSCdtDb4GPtyE+6wTui3zz+VzQAAIABJREFUwe4eb+saBowtTYxzpRbwztCSkLutCxJN1afSlMvxjY+B/NU6o3j6T8xaOX6rH9L22I4g0yoUVAb6a+uCQWtp/DPo36wzijSEup4T3vGjJPjx7df7A8ymnkCjn1pHOOeqS3kW0JfucgvQWZZrJ56exbgpflPFOReGpuajEdJ6/MQclt5e/TsxMoV7rBOKJlGLdYJLuShzPOX6ebncBF9IQOdaF6RCIfqjdcIATBjUqzOF8UCmNCnOlZqkewFdCfdn3koQCW2Ee2DisMc2aya71b8f1Z0MhDpxs5u49hrriBK5wjqgeLL1CQYdK0eiHFGhmPKQwI9zCN+3yDZssI5wzlWXMt0QbC+g/KQ81068YUjBn3ZyziVf/aHDQFP89Up+aF1QEcePXgI8a51RpGmohnT+oas6EupDHEp3re9AhzutA1LifqDbOqKfRvTtoiuSZvxBaZdk46wDTEnBv+9tTcwT1glVLdbrgXB3niof2/oHxKdVJqQsZpMdGervw28UR9cAG60zinQAua5/efu/LR8l7IcUVzCtYaF1RIotZ0TDTOsI51z1Kd+Omu22uQR4rmzXT7YPMW7yidYRzjm3Vdtt+21gP+sME8L9LJm7wDqjIvpGiIU5xh3G0J5/j3WES6lZq0aAfsA6o0iL+86mTjUlLsy3jkiFvp0eD1pn9FtUN7r4F2tj6UKcKzFhH+sEM8JztIxZap2RbLrWuqCqZcesAB6wziieNpHrOnCLf6sj/88gB1U4qHQiDfns8DfKNqxBuME6o3hbeRBDJfDx7eLj2y2J/oAjpdc6wzlXfcq3gP7AzetBflG26yedcCETJu5hneGcc1v0riP/BfQ/rTPMxPI/1gkVpRruSEuRj1snuJQqFFqBGuuMooiGNFK7XBaTHbvaOiI9JKA/c/EgFtBlEK91rsyUEVyxYqh1hgmV+3zh4h1ItM46ofpJ2OObRbe8gKnvMHo72VbyUGOVTSQK+YEA+Tg3Prv9W/7nticbga3sTg9BIezP/5ApT/Ny7LvPnXNlUd4zHTOZnwJpfcp1BIXMr60jnHPuLfY5ZghxdBlhj8caBF3C0iNutq6oqLDPhDyJixfWWke4FBL5hHVC0dTPPwf+Zh2QLrrEuqDfJBpT/IvVF9Bdkgk7RKOsI4w8Yh0QAD8XttxqousIfYz7m4/Pmrl6W9B3GO+eYMrlzJDYOqOkpjXeCTxmnVGk7eje+NYHNaKeE4CQj257jNYxf7WOSC2RX/KJsaEebeCcS7jyLqAvum0NQsBPxg3aVMZPDnwEjXOu6tR0nwtMsM4w9H2YUV2/RL+TF579E/CSdUZRhN0Zvtux1hkuZdqeGEe4uyCUOJprHWFPfJRvJUUazo1cZTALjCNL1uFcOcSyp3WCCdVHrRMST1lvnVD1PrJnF/An64xB2ItZXYe84X/ZpvujwA42OYMWozVXWUeUnIiihPvPJbqlMe6h3zu/zjogxXqJU7325Jwrs/IuoAP0FH4IdJf9fZJK+Tn7T97dOsM55wCYcNRBwJnWGYZWkRnxG+uIijv9kB6UedYZRRPC3QnswhQVQh5V+RDZhiesI+zF4eyIrga90QrrhP6LRwzixcNLluFcOUSDekAkYLE/NPVOIk3XA8R2wh7jHL9pIVM03J+JVeaQHZW3zigLlcuBgnVGkd7HrFXvfu2v2p4YB3KQYU8JBH58Q8iUm/13X+dcOZV/AX35glWk+0msXSjIz6wjnHOOiRNrKMSXA+kdhy36Ixa1p/OhLpE51gmD8MHN56I5V363LhuCcrJ1RvGC/lwvnSjjiymV9MLTnYRzI3cwi+CDWXx3rvw0pQ95ZGr8a75LBonagXAfVhA+ygztu1ecW9GEyqHGRcWLqnhXarbhCdDbrDOKFus/HpDPxOEeEQCALqW14SHrivSSa6wLnHPVrfwL6ACS+QEhnwM0WKrTGT858B8InHPBW505D/gn6wxDzxPFl1pHmOlbQA/1e3ENmcLnrCNcSqwfegpCuNODRH0BHZTaaJl1RKqcfkgPyCrrjP6R4hbB+xYUdipti3OlpjtaFxhYw7T6560jnAOgpX4VcK91xiDUM6HrcAA0c7pxS/GUp3nu6d9aZ5SVRgE/IKAnc8WKoX3/r2aNYwbreuuAFFvPhtpwHyRxzgWhMgvoi29/BKjuH1zeiXIJTZP3s85wzqVU01EfAM62zrAlP2fRgrXWFWb6buY8Yp1RPP0MM1dva13h0kC/YF0wCC/z3DMh37QtlZeYOsrPeq04fca6oJ+K26G7b35HKvX7s3PFUgn1rOLiifruc5cwGvY4Z+GjtC2qQzjROqVoIlf0PdxXxXapvwlYbZ1RpOHsUDONXNeBwLusYwYp7M/3kKncyil7rLPOcM5VtwreANDzK/deibQdwtUcfHB6Ryc752zsPWU3iP8PyFinGFpL3Ptz6whzGvDOVGVntuk+xTrDVblZnUcBB1pnFE/vqPqbhf2T3oelLAmhPLQwrKhXbSfFvc65SpIUTkmIIz/71CVLHLcRzrEmW5Il2iEL7GodUrzeq6wLyu5I6QW92jqjaDGnIfpR64zBkSW0jl5kXZFe2mFd4JyrfpVbQF8y74/ALRV7vyRS3svanb5jneGcSxWhtnApMNI6xNiPeXTBc9YR5jQK/BcMOZu2RXXWFa6KxfJ164TBkcA/x0vmFeuAVFINZAeIFPd9JC749x8Xgm2sAyovmOkXLi2yY1cD91hnDMKuqP7QOqJowu9pHbvEOqMy4ssJ9Zg20SNR/ZR1xqAI11knpNgmNm261TrCOVf9KjyCTr4GxJV9z4QRvkrT5A9ZZzjnUmJc85nAVOsMY8/TW/cj64hEyDbcDzxmnVE8HU1mh5OtK1yVaus8AphonTEIG9m4Kd0Pq/6D70C3IFEgC+g6pLiX1foCunOJpM9aFzi3BWGPdRZ2t04omsql1gkV0zp2CRLswxoCspt1xKBIIezP87Ddzkn7vmwd4ZyrfpVdQF8y92HQtD+dJaCXM+6oUdYhzrkqN+6oQxD1qRfwPZbP8R+sXyWSs04YFOW/fBe6K4tI/ts6YVBUfus3ETZT8R3oFoLZgU6R30Ni/97jXCKJ70B3yRPXtgG91hkp9BJDMrOsIyrsMuuAlHqIaWMWW0eklvI76wTnXDpUeAc60Mu3gJSfzSi7IvFVMKPy//6dc+mwV/OOSHw9Rd8krhqrWLv+l9YRiaKF660TBkdHIzv4WeiutNq7JhL27nMg9h0Qr5J4o3VCSoXy772muJdFmdJmOFcGglgnVJ7vQHcJlB35LCp/sM5IoauZOmq9dURFFeR64EXrjBTy370sqdxlneCcS4fKL+Aun/cYoukZp/P2mhl/97etI5xzVUmo08uAvaxDzImex6p7N1hnJErrmL8CgT8prd/hxme3t65wVWKGRoj+wDpjkNaxYYifAfcqkW2tE1JJgjl7ubiHueOC7yR0yaeBnoU7GBr5DnSXUP5wY+XFl1sXVFy2YQOI/1mrOP93buhF/l6/yDrCOZcORjuga/8bSNcTgVui+nXGT/6odYZzrsqMn/RtoMU6IwEeZff4SuuIRBLCHuMu7E7P+jOtM1yVOCB/InCIdcYg3cQpe4QyPrsStrMOSCXVMB5cUDYV98Kou7QhzpVBKnegs8Y6wLkt6qntwMe4V9LCzQ+Lp0/sY9wr7C+0NiyzjkgtlXuYIbF1hnMuHWwW0Bff9hToT03eO1kE5QqajjzYOsQ5VyXGTzoelW9YZySC6jdZsMBvWGxJIb4CCPwXDvkqbU82Wle4wLV1DUPlO9YZgyaavt02W6P4hAoLGsjOf6G4hXDp8QV055IoCub4CJc2J4x6DmW+dUaKpHcROdtwP/CgdUZ6aLt1QapF8T3WCc659LA7g3to/H38SWGAYRB1sM8xu1qHOOcCt2/zeFSuhFTuPHmzB1n6/g7riMTKjlmBcqd1xiANI+o93zrCBU7060DoD2I8zsON86wjEkV9B7oJIYwFdNR3oDtXTeJMkZ/TzlWCj3mukA1kCtdZR9jSK6wLUiOOwp7oF7pY7rZOcM6lh90C+t8WvAj80Oz9k2U0td2zmDC9zjrEOReoCUcPp0ZvBnawTkkGORtmBL7Dutz0EuuCEvg4HSs/aB3hAtX2xDiEr1pnDJropT7C7k1EfQe6jUAW0KPijhKr2XZtiUOcKz2VFD5Iu8kfbnHJ1R13QJGTT9xAXM/xY1+0jjAVR1eDT+SogD+TbVhuHZFi3agstI5wzqWH3QI6wLbbXAjkTRuSQjmCwpofWGc45wI0cWINhd7rUfa2TkmIuSyZe5t1ROKtefYGYLV1xqBp5hfMXB3Ioo1LDFUh6r0IGGKdMki91MhV1hHJI9vT1jXcuiKFRlkH9Ivqc0W97rhdX8EXQZxLnp7Id6C75Dpx9AsoPimo3GJN7/j2V2Ub1iDcYJ1R9RSfKmFrOdmGDdYRzrn0sF1Af+Dm9aieadqQLGfQ1Pxp6wjnXGBW1/wEaLbOSIgeCnKGdUQQTj+kB9WZ1hmDp6PZZtO51hUuMLPynwY50jqjBG7iuMYnrSMSKSP7WSekys1PbgPsbp3RLxHPF/1a5YUSljjnSmGHWl9Ad0nnC25lpUuZ3uhnIgPgDxKUmVJT8PHttpZYBzjn0sV2AR1g6bx2wHcKvkYvYvzkj1hXOOcCMX7S2aBfsM5IDOECls1dbJ0RDI0uAapg9LN8hbbOI6wrXCBm5/dGq+QYIeVi64TE0sI464RU6endCwhjdHTMmqJfK4N4rXOuPDaM9AV0l2w1hdmA/zktF5FLEFHrjESY1ngn8Jh1RhX7E8ePXWkdkWrKUusE51y62C+gAxTkP4Ee64yEyKD8hqZJh1mHOOcSrmnSx1H5nnVGgqxmk3zXOiIo2YblKDdaZ5RAhkhmcs2yHaxDXMLN0IgCl4NUwxnZD9PacId1RGKp+AJ6JcU61jphAAazgF787nXnKiIO40GW0lGyUrCOcG6rjh/7Ioj/zFYe3Uj31dYRiSGiKH68U/n4NAlror6A7pyrqGQsoPftFvypdUaCDAO5iXFH+o0/59yWjZt8JMgVhLLbqxKUM3l87kvWGcHR6AfWCSUylqFDLrSOcAk3oesbwPutM0pC9Ye+22YrBP85urL2sg7ot0i7in6t8kQJS5wrgyht3xfS9s/rQiWxL7yVg8iNTNvnGeuMRImiKwB/sKj0lLimwzoi9STjC+jOuYqqsQ54jW48Dxn6cWCUdUpCjECiOUyYeBiLFqy2jnHOJUhT8wGgs4Eh1inJofewdN5vrCuClK2/l1z+HuBw65QSOJWO/O9pabzSOsQlUPvKwxD+yzqjRFaha6+zjki4f7EOSBc50Lqg32JZWfRrVTuRYJ5dXIjICusIV3F/tg5wzm1BzTY30LNhIzDUOqWqqJ/5/RYt9avI5W8HjrFOqTJ/JDsqbx2RegV91DrBOZcuyVlAX3rPK4yfdA4qM61TEmQshczt7NX8r76r0jkHwLgpY6FwO7CjdUqCFIj18/gOlOIpP0CqYgEdlIvoWPkQLWP+Yp3iEuTGx3enO2oHaq1TSuQnZCd0W0ck3J7MWrUf0+r9JktF6OHBDMXRTGfRrxUJ58ap6jxaG8+2znDOOQcct+sr5PK3AcdZp1SRLuKGudYRySSXgfoCekmpT5Ewp8+QbSz+KCbnnCtCMka4v2rxvGsQ7rbOSJgDqKONfY7xnabOpd3eU3ZDCr8D9rBOSRa5iEfnP2hdEbTWhpuAxdYZJTIUja5n9oqdrENcQszXGnpq2pCqmXL0MnGP77bpjzieZJ2QCrNWjQDZzzqjnxTi4hfBVYtffK80kUOtE5xzzr2OiC/AlZLIZWTFR5VvyYj6GwGfZlo6MXHk49vNBfQgq3OuaiRrAR0UMv8B9FqHJItOoab7Bl9Edy7F9pu4C7WFuUAoN6gr5XnQGdYRwRNRhP+1ziihfShE19KmGesQlwDPd11AtZx7DqD8lOzePpmoP1QmWyekQqFwKMFsP+cJsg0bin51Rh8rYUu5HcLFC6tl6oZzzoWvMOQmoPjvQe71Yui50joisY6UXuAa64yqIdxFtuEJ6wynz1gXOOfSJ2kL6LD49kdAfmWdkUD/Rqb7Og4+2G+COJc2E44ejmTuAA6wTkkclbNYcufz1hlVodBwNdWzCx2QY4nyF1lXOGO5/H8Cn7fOKKEX6dYfW0cEQ/RIZmjyft+pOnKYdUG/KY8M6vU7j14GbCpNTNkNY5fdDrKOcM45t1l2t7XAHOuMKnEbLXuFMxXGQpy5FD/mrjSUdusEByC+gO6cq7hk3lCqi84BHrfOSBzhI6zb8TomTkzO2fXOufLaq3lHCr2/Q/AboG81j6Vzr7COqBpZKSCcZ51RWvLpzQuoLo06Vn4Q+IF1RkmJ/i8njn7BOiMgIzgw77vQy034kHVCv4k+PKjX9+3oWlqamApQplgnOOecex3Bx7iXhPhxRu8ku+dS4I/WGVUgppbZ1hEOUN+B7pyrvGQuoD90+zpUP40/KbcFMo3Vmf/zRXTnUmCfY3ZgiN4O/LN1SgKtIxb/PlFqDze0A9V2nvwPyXVmrSNchbWvPAyNrgeqZ4y/8jTrhvzUOiM4sZxqnVDVZq3aj7Am5CwqwTUGt4u9koQPWyc455x7nbqam4F11hlh02d4/umbrCuCoPiDBoOlsoDjGp+0znBA5DvQnXOVl8wFdICl8+aBXmqdkVCtPB1d64vozlWxA6dsS033zSjvtU5JJJWv8uhcn1RSajMkBv0v64wSi0CuIdc51TrEVUiu60AkuhnY1jqlpES/xyl7+A3XgTue2St2so6oWnE83TphQAa7Ax2AUlyjQpR/5sb8KOsM55xzm00dtR64xTojcFdx+iE91hFB2FDXBrxsnRG22KdGJIbvQHfOVV5yF9ABeoecidJlnZFIKllWZy7zRXTnqtBezTvSU/gd8H7rlIRawNK5v7KOqFqto29G9F7rjBKrBWlj1spJ1iGuzHIrmiC+AxhunVJieV6JL7aOCNQw4sinUJRPSAvo6xg++qFBXyXS+0vQUilCt/oDZM45lyjiC3KDEakf49Zfp+yxDvR664yAFcj0+Pj2pFDfge6cq7xkL6Avn/MykXwSH9H7dk5hdWYW9YcOsw5xzpXI3lN2o07noxxhnZJQ68kUfHR7uRWiLwOxdUaJDSWObqRj1ZHWIa5MciuaIDMXZDfrlJITzuITYzdaZ4RLPmNdUJVmrRwPvNs6YwD+vPkM88FZO/RPwOCvUykiJ1gnOOece51Xem/BdwUX6y6mjVlsHRGWyMe4F0uZx7R9fNE2KWJ9zjrBOZc+yV5AB1g8dy7IldYZCTaV7YbNYZ9jdrAOcc4N0vhJo6kt3AX8k3VKcsk5LFqw3Lqi6mUb7gdmWmeUwXZoPIf2/HHWIa7Ecp0TIDMP2NM6peSEu5nW4DuVBkM5mFzXsdYZVSfOfNk6YYDuKclV+o5SKMVZ6pXyfto632Ud4ZxzbrO+hyJ9jHsx1I/6HLDWhj8BD1pnhMmnRSRKja63TnDuNYJYJ7jKSP4COkA3/+mj3LdGPkBNzzz2OWZX6xLnXJH2bR5PLHcB+1mnJNgfWXLEL6wjUqO29xzgJeuMMhiC0EZHZ6t1iCuRXP4QkN8DI61TyqCARF9AxKduDJboudYJVaXtqV1BT7bOGBDV+0p2LaF016qESE6zTnDOOfcGvjA3cC8xtDZnHREk0SutEwLUQ0Z8fHuSqGyyTnDudYZYB7jKCGMB/fG5LxHFn7XOSDY9mJpNf2BCc6N1iXNugMYddQgZ/QNCg3VKgq1HolNhRrWNFU+u4/Z6GuU71hllUofKdeS6vmAd4gZpVte/gc4DRlinlMmvmFbvO0ZKQXmv70IvoUzv54CQjpHqRXvvKuH15pfwWuUnnMIVK4ZaZzjnnNtsm01zqM6HlctHuZapo3wHajEkczXgx0ENhHIn0+qft85wr5fpti5w7jWq/rtVSoSxgA6weP6tVOc42RKSJgp6F/tNabIucc710/jJRyHxfGAX65REE/kmi+9YZp2ROvrKT0GXWmeUSQb0Z+TyP2KGhvPzkPuHXOcZxPpbkO2tU8pkDVHku6ZLSmf453sJtHUNI9b/sM4YoHvJ7l26hQqJ5gLhPNSn7MJ2mU9aZzjnnNvs2H03gd5snRGUKPazvIvVtxB8o3VGYHxKRNIUMr4DvZqphjV1T7Ra70O5NwnrBlJv3RcRHrPOSLhGosJdvGvyv1qHOOfeQdOkU1F+C2xnnZJwt7H4iAutI1IpO6EbyfwHENYPsgPzFSZ05Wh7xj8PQzFfa8h1XQhyIZCxzikb5Uzf9VBy/8yE/KetI4KX4SyE3a0zBui2kl6t73PzgZJes9yEc7h1mY8adM655PAFuv57iJYxf7GOCFqk/gBC//Wg4g8cJE33Wl9Ar2ZRaCP6oz2sC1xlhLWAvnzOy8TRxwAf2bF1uxAzl6ZJp1qHOOe2SGhqngFyBVBn3JJ0z5ApnOqj2w211M9H+LV1RlkJxxNtWEiuc4J1insHbU/tyvOrfgd6hnVKWanMo7XhSuuMqiTyv7R17WmdEay2rj1R/ap1RhFKu4AOoGW4Znk1sK7uVOsI55xzm8VrbwPWWGcEQbnYOiF4xzfOBd+U1j9yG9kG/9xMmuEEtsDqBiiwIzp0pHWBq4ywFtABlt6xEPQb1hkBqAO5gqbJF8KM8P47O1etDpyyLU2TO0B9LO87ixFOYtGC1dYhqbdh01lAl3VGeck44F7aO6dbl7i30dF5ONLzN9DJ1illto4o/jQi1Tz5wdIOiP7MOiJYmfj7wLbWGQP0BI80lH7XmshvS37NchP5Ojc/uY11RnDaVvgOE+dc6WUndAM3WWcEYAPd+n/WEcETURA/GrU/NG63TnBbcP8+PdYJrqw2WAcM0N7WAa4ywlxYXTLvR4CfFdQ/ZzDu7pvZ55gdrEOcS71xR42iu7AAON46JRDns/jOO6wjHHDSvi8jcWjn3RZBtkfketo7f0pb1zDrGrdZm2bo6PwaKvMRRlnnlJ3I12gZ/bh1RlUTjqejs9U6IzhtnUegcoJ1xsBJBzOk9JNsWurvB+ks+XXLq5GNvV+zjghKR9cJRJmnyOWfJNd1M+2dM8h1TmXW8t2s05xzVUDFx7i/E6GdE0e/YJ1RFUQuBwrWGQm3Ce318e3J01OWn+ddkoS2gL6fH4+VDmEuoIPSW3ca8KR1SBBEj6Wm+y4mNDdapziXWhOOOgji+4BDrFOCINzPti/OsM5wr9My5hbQa6wzKkAQ+SKRPkDHyvdYx6Re25ONZLruROV/gFrrnLITvZeH639hnZEKyuW0db7LOiMYbc9sRySXA2KdMmASl2dxQkRBO8py7XISzqLtiXHWGUH4zZO7oPFPNv/VSNAPIXIuyE3EdU+/dVF91QjTXudceNY8PRd43joj4fzs7lJpqV8F3G6dkXC/I7v3S9YR7i188bzaqQY2wp0a1tf6/YQUCHUBHZbPeRbVk/EvoP11IAW9j6ZJh1mHOJc6Tc0nUIj/iNBgnRIGeQE0ywMP+HimpImjL1H1o9xfMx6N7qU9/3UuXlj9C7dJoyrk8p8k6n0I5QPWOZWhr1CITvEn6ytFtidiFtcs8ylN/ZHZ8CtgX+uMIqzi4cZ7y3b1OMqV7drlU0dU+Cmq4T0MUWm1hYtAtrbT/E2L6vEz5LoWk+u8mlznl2hfeZiPzHfObdXph/QAN1hnJNijTGu4yzqiuog/kLA14lMhnDMhwe1AB5GU3KtKt3AX0AGWzpuHyPesMwIyEuT3jJ90NiHuHnEuNPscM4SmyReCXgv4OOj+Ev0ci+eFNhI1HbINa1BOJD1j3+oQvsuI3R6gbdWh1jGpMTu/Nx1dt9O322RH65yKET5PtmG5dUa6yDiGDL3MFxLfQUf+VFROtM4o0nVlfShl+p73ASEeuTCFWau+YB2RaB2dJyM60KMeItAmkJNALkCie9jU+xK5/IPk8peSy3+Wts6D/cE859wbKL5g93ZELuub+OJKJn75ZtBnrDMSaiMbNv7WOsK5VFJC24EOKpOsE1z5hb2ADrB77wzQe6wzAlKDyvk0Nd/AAUfsbB3jXNWa0NxITfcC4AzrlKAov2TxnddZZ7itmN54F+h3rTMq7ACi+G5y+Z9zbad/7yyXtq5h5Lq+RYFHgGbrnMrSa2gZfbV1RSqJtpLr+rZ1RmJ1rHwPys+sM4pXKO8uKxFFuKKs71Euqj+gbdVB1hmJNCu/PyoXlehqNcCBwGnARUSykBG7rSeXX0Suaya5zi/R1nkEbYvqSvR+zrnQ7NIwzxc0t6gXCv7zcallJ3Sj4v9et+xWTtr3ZesI51IplqesE4pwFG2PpWfTR0qFv4C+YEEvmegE/MygAdIP0zP0/r5zmZ1zJdU0aSoF/ga8zzolMA+yqfD/rCNcPzzSeB6wwDqjwiLg8wyVx2jvPNtvdJdYrnMqkS4CPQ8Yap1TYY+zsfvz1hGpJnyT9vzXrTMSp23lWDS6BdjOOqVI99A6dkn53ya6kjAnswwhin9D2zOh/vctj2uW7UBMB7BtGd+lBngX6MkgFxDJXUTbr6Ejfxft+Z/Q0XUCs1bt59MxnEuJI6UXIh/j/lY30TImxAWV5NPMJYDv7H8z8WkQzpn5e/1TQLd1xgANRWqOs45w5RX+AjrAorl5Io4H/LzcAdF9KMT3Mm7yl6xLnKsO0zM0Nc8AuQHUd6kOzBpimcbKBRutQ1w/zJAY6T0VeNE6peKUnRE5n2iHB2nPH+c3tweprfMIcvl7QW4CxlrnGOhB+JjvdEgA4bt0dJ1lnZEYv3lyFyKZA+xhnVI0pTJnfLbUrwK9rSLvVXrjkU3X0aYZ65BEaNMMQ4ZcDexn8O7bohyB8GVUryWOl9LJ+us4AAAgAElEQVTR9QK5rrl0dJ1PrquFjsdHG3Q55ypBY1+4ezOVS60TqlZ2z6Ug91pnJMx6CkNvsY5wLrX6jt160jpjwCI+a53gyqs6FtAB/n7nXShnWmcEaCjCBTRNvopxh29vHeNcsCY0N9K0Zh7ouVTT19bK6EVp5dG5IZ4hml4te3WCngKU72zZRNMmhBvo6FpIR/7DvpA+QH0L53cQyV2keVqHyP+jpfHP1hluM9XzyXX60SuzV+zEkN5bQMZZpwzC8wytub5i7yb6y4q9V6mJfhDp+ql1hjlVIcpfhPBh65TX2RF0Mqpng+bQmpXk8s+Q67yFXOd55Dqn+gQB56qENi5Aedo6I0FWofW3W0dUN63Mg4ahELmF7G5rrTOcS7ku64ABUzmUjvz7rTNc+VTXIs/SO3+K4k8oFucUZOjDNDVPtA5xLjjjJk2noH8F/BtmUeQrLL1zvnWFK0Lr6JtRZlhnGHsPyo10dC2kvXO67+LbClWho7P5dQvnKTvn/C2upKUh4LOlq5KAXEiu62Lma411jImOlSMpRPNR3mudMijCL5k6an3F3m/a6FtBKjAuvkyEz5HrPMc6w1RH13+DfNo6ox92BTkW5Fsg19CzodY6yDlXAlkpAB3WGYmhetnmfyeuXNbXXQ/4FKzX+BQI58yJ5q0TivRd31RTvaprAR1guxc/h3KXdUagRoPOo2nyhexzzBDrGOcS76CJO9E0+RpE2oDh1jmBmsmSub6AFLLWhu8g0m6dkQDvQaSNqKuL9s4ZtHX514RXtS2qo73zFDq6HkTlDnzhHJC/EsvnrCvc29HP8HzXb7lm2Q7WJRXV1vkuNLoP5CDrlEHaRKFQ2R3hIorGF1T0PUtOvkcu/w3rChMdXecC4f2zi1zEiaNfsM5wzpWIii/g9YmJCldYR1S9U/ZYB1q5aT3Jto51Q+ZYRziXehqFtwMdQDmCjvwp1hmuPKpvAf2BB3qoKWSBVdYpgRLgDGq6H2D8pPdYxziXWE3NR7Mx8whwonVKwO6jt+4z1hFukESUmqGnAYusUxJiJCLnEsUr6ei8hPaVh1kHmcl1TiCX/xHRdl2IXAUcYJ2UCMrTiHyYbMMG6xS3VUczdMgfmLXK4izkypvVeRQZuRtotE4pgWvJjl1d8XfVaCbCcxV/39L6Drn8d6wjKkZVyHVdgOoM65QibKCm5yfWEc65Evp7/V1ogOe/lt4dfceFufKLfIx7n5v6HihwzpmSeIV1QvHkAmbn97au6Jdc14Hk8tfymyd3sU4JQfUtoAMsWrAa0eMAvzFZvAmo3EdT8wyY7uNonXtV/aHDaJp8IegcYE/rnICtJtZWls/ZZB3iSuC4XV8BOR7Bd0G9RrZH5VNIdA+5rsV0dJ3F7BVjrKvKbtby3cjl/4OO/J9AHgG+ArKbdVaCdAPTaan3Bz3D8G7i+G/kOr9UtSPZ5msN7Z0ziOV3KDtb55RAgTjzvybvnG3YgOqPTN67tL5BLn8pty6r7olkbV3DmJW/GvRL1ilFUb2U4/by85KdqyYzJAb1Me7qZ3NXTGvDn4AHrTPM+UQ955KhwAPWCYOwEwVp58Znt7cOeVsdq95He/5G0L8BJ1Dbm7VOCkF1LqADLJ73F1AfjTk4taDn0rTmLsZP2d86xjlz4ycfxfbbPAycQd+0BlecTYgcz6PznrAOcSXU2rCMghwP+EMRb6FNqH6fQmYFufyfyXWeQ65rX+uqkmnr2pNc1xfI5ecT1z0J/DL485PLQ0FOY3qjHzUUlmEgF9DRNYcb86OsY0pq9ooxPL/q94icS/X8XngV2T2Xmr37+iE/A33G7P1L5zTWD/kjbU9Ww0SCt7rhiQYi/T0qoU6S6iEqVMPDGs65N1PSPsb9ebbtvsk6IlVEr7ROsKWvUOB31hXOOYC1DxP0PUX9J3o2zKHtme2sS15z67IhtHdOJ5e/G43vRfgwr65pCCfYxoWhWm6UbNmSeVciXGidUQUORQt/pWnyhUyYmJwvAM5Vyv6Td2dc80yU21DCGMeSZKJfYPHc+6wzXBlkG34PegoQW6ck2CEg3wN9lFz+MXJdF9PeOZ3ZK3ayDuu3tq5hdHQ209F1Ph35hUTaBfozYCLgU2vejsg5tDZcY53hinY0PTxMR9cXuXhhrXXMoFyxYijt+a9TyDwMWk3HTPQQx7bjx0/ZYx0iNjvgS+89RL330Z6fYh1SUh1dx9Nb+Bvwz9YpgzDTxxs7V6WmN94D5K0zzChXcuy+AS+eBEgyVxP0gtWg3ehHazmXENkJ3cBD1hmDdDiZjXfS1mU7tbat82ByXRewYcgqRNqAw7fwUYfR0blXpdNCU90L6AC7F84EbrHOqAI1wBkUMg+x36RjrGOcq4wZEU2TT6dXFiN6Mr7rfPBUvs/ieZdaZ7gyah3dBnzVOiMQe4F+BpE2CplnyXX+lfb8L+joPJlc176JGRl9wxMNm59Y/TG5/L1E+iIqd6B6NsrB+NfG/vgFLQ3VsqiWZsNR/Skjdn+IjpUftI4pSkdnK9tn/o7wXaDaHoy9jOwY+3Pz6mouqqIzbEci/I6Ozku4ZtkO1jGD0vbUruTy16E6CxhunTMIG4hrvm0d4ZwrExFFmWWdYUb1cuuE1JlW/zxwo3WGobRPfXAuaUIe495HeS+RLqQ9f1xF33fWyvG0579OLr+ISBaCfglla+ecCyofr1hfoGqsA8puwYJe6g+dznbbzAWqaYeFlbFEcitNk39LTeZzPHJ7l3WQc2XR1HwA3PUr4DBQ65oqob9h6Z1fs65wFdDa+GPa8w0IX7ZOCUgNyEEIB6HyOVDoyL9CR34xysPAIlSXkZGVrN+U56R9Xy7pu9/85DZs6BlDTdRIrHsD+wMTEPant7Az4mvkRVNmow1hnrHr3oY2odFvyXXOB/k+LQ23I5LcHxZUhVz+g0RyNsoR1jll8hJR97nWEQBMHbWe9s6vgVxlnVIigsqnGDrkaDryX2VaQ1ui/7y/WduiOjI7nA4933qHG0iB0B+QHZXe3anOpYFGbUicxt+j7iE7+u/WEamkXIaQxrNwX+aV+A7rCOfc64gsRMP5VWMr9kC4gfb8TUg8g9Yxfy35O9y6bAgbhvwLsX4QkY8Qs18R21tOBL5b8rYqkp67ofscsys13fcA1XPmqL2XEL7B7oWLWbCg1zrGuZKYMHE7ejP/hfCfQNgjWhNFbmfbFz7EAw/0WJe4CpmhEft3XQ1+pk5ZCC+grEJYQ8waIn2emDUIG1HW932MrAViVPt2DUbRUGAY6E7EMgKJR4AMB0YBu1r9o1Q14fcU5JjgxwLOyu9PzMPWGQm2DPQXxNGvE/Xf+tZlQ1hX91FEzgImWOeUlXAmLY3JORNaVZjVdR/Ke61TymAhUXw208bMsw7ZqosX1jJ89yyi50HVHMH0BOvrxnHKHuvK+i65rpWgo8v6HqUT09rox8f0R0f+/Si/t84YgKtobTzVOsKEqtDR9TgwxjqlopRPMr3xCuuMVOr7M7ccSNso3/R+nQHI5VcBtmOm+28TrY1DrSNcBeS6DgR90DqjxBRlLug1bOq+oegNMdd27kwd70HkffQdoXg4MGzQdRIfTMuYvwz6OlWq+negv2r5nGcZN+VopPBHYA/rnCqxI8rPWZ35IuMm/RdL57VbBzlXvBkR4+8+iYKejzDSuqbKPEQ3WZb44nmqzJCYNj2FTFeE8jHrnKqj7AzsjNL3OKTKPx6LfPPjka/uHn/9U7yiW/hAV1Ki91KzzVRadk3Ogqorl31BLiCKv04u306s1/H3xj8yQ+KKl8zXGtbkJ6LRdNZrC8KIijdU3jIKr/zMOuINRJS2VV8miu+h+r7YHkIc3Uku/wdEf8bwxhs4UpLzMHVb13AiTgP9ImiDdU5pyTllXzx3ztkTUXL5HHCmdUoFrUWH+j1FKyJKR9dMVGdYp1SW+Ph255Kmpf5hOrqeIJyHO/pDEI4COYqhQ3rJ5f8K8kfQpcDjxPoc1Kwl09uDZLan0LstETuj0RiUscBeCO+mXA85aXQi4Avob6Pafpl/Z03NB4DeBexonVJ1VO+kJnMmi+74m3WKcwMyvrkZ1R8C77ZOqUIryBQOY9GC1dYhzsjFC2sZsVsb8BHrFOcqR/7KpngyJ45+wbqkJHwHejFWAW2ozKVu6N0ct+srZXunjpUj0cxhEB+NyPHVMaZ6ACI5hmkNv7PO2KKO/OUon7DOKLMuhF9TyLST3XOpScGNz25P74ZjiTkB4d+AOpOO8voTLQ2HVmR8vu9Ar06+Az0sHfl/RrnfOqNihItpafysdUaqdayqR+OVQFq+pr5I/MruZCd0W4eY8R3oLqk68r9COd06I0WeIm5oICsF65AkSs8O9Fctmfsw4yZNQ+RWYIh1TlURmUwhfoBxzdcSZc5m8W1PWSc5t1X7TWkiE38b1enWKVXqOTQ+xhfPU+70Q3poW/RRou1zwFTrHOcq4EFimqtm8dwVqx74CqJfoWdDgY7834i5C2QhyjJgOdmGNQO64sULa9l599GI7oWwL8i/gB6OshevjqOoiuPiBkD0WqY1JnPxHKAgZxLpMVT3BLQGlP8mKvw3ufwjoLNQmYvKwrIdaXDjs9vTu+kQ4vhQhKPo2XA4UFvF2wNikC8Fdfa8c25wWhr/TC7/GNVzBMXWKZdaJ6ReS/0q2vN3bH4QLQ1mpXrx3LlEi2+GyBfQK2ckkp8I3GnckUjpW0AHWDpvHuObP4PqlaRxF355RYiejPZOo2ny/5Ip/JhFC9ZaRzn3BuOPHon2zoDCaWhqnq6ttPVE8Yf4+3ybnUguWbITurliRZbtMzcAR1vnOFdGDxFFk2mtH9jCqKt2GZSDEQ4G/cdvH7n88wgrUV4AXgZZB2xecIy3QaOhiO5E37lmewINoK/7uSXla2nCcxTq/tM6Y6uyDWto7zwDSc2I0P1B9kf4FqI95PIPoPpnomgZymPQ+ziboqc5ofHFrS4Gt3UNJ+rdDc3sishuoHuA1KM6DtF30bNhHyCTmt/klZ8wveFP1hnOuQoTyaF6tnVGBTxEa+NC6wgHRHoZKmlZQE/Lz2bOhWdYz1zWD1kLbGedkhqRnIgvoG9ROhfQARbPnUlT8yjQ71mnVKltgfMoZM6gqfnndPMTHp/7knWUS7m9p+xGTfwVtPeLwDbWOVWsgHAif5/vN/rcP3xi7EbaFn2YzA7X+NQHV6X+THfNsZww6nnrEBeMEejrzyh//XqigG823bpYvkx25LPWGe9o+uh22vOzEY63TqmwWuB9iLwPffXPcqZvBlxHF+TyGxH+sUNdqaPvd0j6Phcymx820dc+oO+v07Jq/prFrC180zrCOWeh0AZRChbQ5RLrArdZYe1NRNs9A7KbdUpZCc/x3DPzrDOcc2/j2H03kcvPxY+CrBylhbauz5dtgljAIusAU0vmng/8yDqjyo0APZc6XU7T5K8x7vDtrYNcCo07ahRNky+kttCJ6Nn44nk5xYh8ksV33mAd4hIoO6GbQv3HQf0miasuKvOoHTaZE0Y9Z53iXCqo5JjecK11Rr9162lAl3VGwgxF2fm1/3tt8dy9Ti+xnMonxm60DnHOGWgZ8xdgmXVGmW1kUxzO9/Nql53QDXKNdUbZqczi9EN6rDOcc1sh3GidkDI7IPGHrCOSKN0L6ABL7jwT5X+tM1JgF+B/kKEraGqewUETd7IOcimw95TdGNd8PhIvB84AhlonVTlF9fMsnjvTOsQlWFYKtDSejqp/73XV4gbW9n6Q43Z9xTrEuZRYhRLWmXgnjn6BWE4GCtYpLiT6P2Qb7reucM4ZEtqtE8pLc5w4+gXrCvd6hUuo9nOCNPbx7c4lXWFoDtTvsVSSyInWCUnkC+gAS+88B+WX1hkp0bcjfWPmMcZP/i/2m7iLdZCrQvtM2pumyT+ntpDfvON8mHVSCijwHyyd9yvrEBcAEWX66LNBv0a1/3Luqt2veKShxXcHOlcxBZQTyDassQ4ZsGzD71H16Weun/RvxGu/a13hnDMmUXUv9Gl0mXWCe5PWsUtA7rXOKKNn2aXx99YRzrl3kN1tLUiVP0SWOMcwa9WId/6wdPEF9D7K0ju/4IvoFTUc5dtEmVWMa57J+Cn7Wwe5KtB05MGMa55JjSwBPk/fKYuu/BT0DJbcebF1iAtM6+jzET4O+Bk7LjSK6nm0Nv4HMyS2jnEuNVS/wfTGu6wzirZL4zdA51tnuMR7mUhP6Bul65xLtWn1DwKLrTPK5HFa630hM5G0mh9syHGk9FpHOOf6Q35tXZAydRQKrdYRSeML6P/Qt4gu4rsnK2sIoiejhYdpmnQ3TZOmAmId5QIyYXod4yZNp2nyvRAtRPRkoMY6K1WEc1gy7+fWGS5QLY3XI9EklKetU5zrp3WItDB99AzrEOdS5kZaG8M+/uNI6SXKTAdWWKe4xIqR+ASmjanWBTPn3IBple7A00sQ8WlkSbS+7nrgZeuMslCp7qkOzlWT1oY/AfdYZ6SKyAnWCUnjC+hvpCw+4vPAVdYh6SSHg9zE+MmLaJp8OgdP3ca6yCXYfhN3YVzzNymsWYlIG/A+66RUUjmLxXeGfTPb2Wupv48oOgTkr9Ypzm2V8iQwkZaG2dYpzqWLLmXjplOq4kb7tPrniaNpwHrrFJdAwrm0jLnFOsM5lyTx/1kXlEEvtTLTOsK9jVP2WIdoNS40r0brw51k5FwaqfzYOiFl/pXZK8ZYRySJL6C/xYyYJcNPQ7jGuiS1lPHAr1i3/qm+8e7NzdZJLilmRIxvbmZc80yiTCei/w2MtK5KLdVvsnTuD6wzXJVoqV9F7dAPoOI3jV1S/ZkoPoTWxoXWIc6livAcRFM5ad/q2QmVrf8b6CcAPwLCvd4NTGvwc8+dc2/UOnYJsMg6o8R+y3GNT1pHuK3JVOMY9xxZKVhHOOcGYFH9DcBD1hkpIhSij1lHJIkvoG9Re4HFw08FrrUuSbkd+sa76x2Mn/x3xk86m72n7GYd5QzsP6WB8ZPOpumux1C9Y/OYdp9QYOtcls7zG3yutI7b9RVa66eieg7gv9i6BJGrGVIzkZYxT1mXOJcyG0E/QmvDMuuQkmsd3QacaZ3hEuPvbNz071UxZcE5V3oi1TXGXav6jO3q0FJ/H9W2aKVU465656rbDIlBvm2dkS5ysnVBkvgC+ttqL7Bk+L+j+A91SaCMR+V8agtP0jT5DsZNms7BB9daZ7kyGjNx6Oazze+gt9CJyvnAGOssh4Kcx5I7/YcXVx4iyvTR30eio4DV1jku9TYg8ilaG05h6igft+xcZSkip9EyunrPvWtt/AnwE+sMZ64L6T22qqYsOOdKqxBdZ51QQk+gjXOsI1y/XGkdUEJPsaihen+mdK6atdTPAnwSYOW8i1mr3m0dkRS+gL5V7QWW3vlpkB9al7jXZIBmRNpYt9NqxjXPpGnSVF9MrxL1hw6jadJUxjXPZGjmmc1nmzcDYp3mACiAfJYlc2dYh7gUaKmfTyyHINxtnfL/2bvz+Kqqe+/jn7VPmEEUxCqSQURyQtSqOBbQwDng0DqRoa1TB6u2vZ1ua1vbR/tgezvY4bb2Prf31mpt1dZK0Kq0WiGJacVqralWCDlBFASsOAAqoGQ4+/f8caKiMmQnZ599TvJ9v155iWSvtb4BkjP89votGaysHd+dQHWxbqYUyT3D+AzVxb+NOkjoVhRfzsB6g1qCMJ4Hl6B68jNRRxGRPFZ3cDsDZTewcaPaaBcIz7sJ6Ig6Rna4hZmdrCJScJwzfO9zgDo15Uo6fV7UEfKFCuh7Z6QavoyzK6IOIu8yLtPK293N9v2ef7OYXlk7NOpgEsDORfPRI18Ad3dPi/YxUUeTt+nE3HmkGq6LOogMInXFzzKueDbYD9A5sZJLjpvwRxxLXfHyqKOIDEpmX6O25GdRx8iJBc5nRfHFYLdEHUVy7hWcf/qAPKJARMIwENpPG0W6aaxgzJ+0Cbgr6hhZYemB8P0jMnjVTXoInF4v5Yy7gIUWizpFPlABvbfamq7B7FPoDfw8Zfu9WUxPb9lIPHEj5bPPorJqdNTJZBemnD6B8sQFlCd+z+iRm3YqmuvvKz9tw7n3096gFxySe7NdNzWlX8H8WcDqqOPIgPcyuAupLvkIdQdsizqMyKBkdjW1pddEHSOnFjgfv+SjwG1RR5Gc2YbzTqOm7LGog4hIgYhR+G3cjQbOLXkq6hgSwMA42nQ9NaUPRR1CRPqpM/ZFsBeijjEoOCbiNsyKOkY+UAE9iPam/8VRzYBpXzNQ2X7AR3HeXaRjW4gnH6U8+T2mJmfCAv2bj0RtjPjs6VTM+SrxOcso6tyI42Yc5wAjok4ne+K2APNoa2iIOokMcrVlf2VHx3Rw6oIgYbkP3x1OTbHuahaJinPXUFu6IOoYkahzacYXX4DjxqijSOhewXcfoHrSw1EHEZECcm7JU+AK+6Ybb0AUYweX1uIGcIV9zIixEOfU+lmk0J038SWc+1zUMQYNzz8/6gj5QMXEoNoa7wR3NrA96ijSK0Vg03H2VTx7gPgDzxFP3EJF8iIqqw6MOtyAVjH3MCoS/0Y8eRfxzS+D9yjmvgduBvrZUyg2ELOZpBp1p67khwsOe5Wa4svw3OkY/4o6jgwYr4F9geri06krfjbqMCKDlAFforp4cB+bNdt1M7/4Ysy+H3UUCYnxPPizqSv+c9RRRKQQ+YXcFW4TIzrujDqEBLTA+QV/c5+5Qv6+EZGdVZfchhsAHVkKgbkablwzPOoYUSuKOkBBSjXcx9TEbDzuAfaPOo4EcgBwPmbnk45BPPEczi3Dtwcx18KYLX+jpaUr6pAFp6qqiI3uvZg3E9x0nM3C/LLMJ3WTZ4F6mm6bR6pJ7dUk/8wv/hO//dd7Gdr9Q+AiwEUdSQqV3YNvn6GubE3USUQGsW4cl1Bd8quog+SFzA6pr3L7+k2YfQ89xg0kq/HsVKrLno46iIgUKN9uw3PfoTAfG27ijMPU0bMguRvArgIK8TzcddRO+nvUIUQki9LDL8HrOAosHnWUAW5fRhedAdwRdZAoqYDeV6sa/048OQezP+IojjqO9NlBmNXiqMUZbN93K/HE34C/4tvDeO4RUo2bog6Zd6ZUTaKo6HiwGcCJbGQ6MCzzEk4F84LneITO2Jk8tUTnykj+Om/iS8BHqV93A47/ASqjjiQF5TnMrqC29Kaog4gMbrYVvA9RXXxP1EnyTnXx91m0/imwXwOjoo4j/bacIZzG2aXqoCMifVdXtoZF6x4Fjos6SnDuV1EnkD6qnrSBResagFOjjhKY2e/Uvl1kgKk7YBt3bPgQvv0VGBl1nAHN2fmogC59lmpYTsWpJ0D3nRjHRx1HsmIMkASSeD039MaTW8BfCa4VYyXmWhjS/TitzduiDJoTk5NjGZqegotVYjYdmAYcCRygQvmAtYiRIz9C2+LXog4i0iu1JQ/w80ePZvyET4P7NioyyJ754K5nx44vc8Fhr0YdRmSQexY/9gHqJj0edZC8VVN8O7evXYN5dwGToo4jfWTcTUfHhdTocUdEssHVgxVWAd3ZQ1SXPBF1DOkHsxtwrgAL6Kh9u8hANH/SP6lffyHO6tFRsWF6P79fsy/nHvJy1EGiogJ6f7Xd9xyTTqpi1MgbcXww6jgSBtuv59zuGTjAGaRjPhWJNfgsx/EUuGfAXwveWuz1tbQ/uDXi0L03tWp/PFcKsTKwUrAycFOBSrBJ4IGpWD4IGPAtUo0L0N0RUmguO7YLuJbfr/sDaX4EnB11JMlLD+D8L1Bd9o+og4gIf8FPf5C6ko1RB8l71WX/4Pa1x4N3K8YpUceRQNJgV1JTco12v4lI1hR5v6M7fQ0F1cbduyHqBNJPtu0u3JgXgQlRRwngaWpL9NpPZKCqLb6D29d/DbNroo4ygA2ju6gGuD7qIFFRAT0bNjz0OvBh4ol24CoK6kms9JGHcSiOQzP/a2T+2g3ccIgnNgNrgWcw9wz4L4G3GdgE/kuYbcK3TYwds5mWEHb6ls8YgxsyHtx4iO0P/jhgfObDTQBKgUN6/jv6ra8B9M93UNoB9nFSTbdGHUSkX84teQo4h9s3nIj5PwRmRB1J8sIqzK6kpmSRChiDxoPAZuDMqIPIuxjwY8YXf5XZrjvqMAWjuuw5FloCt+4qnLsK7bLIf46XcHYe80uXRh1FRAaYcw5ez6J1fwNOjDpKL22jaLh2ARe6uspOFq27Gfhi1FF6zbhNr/9EBrjq4u9Tv25fHF+LOsqA5fzzUAFdssBINf5f4nNS4H4JDI86kERqXM/HMbidiuuQ+bVzmbe9tr8G8cTrZN7k7ej5/JbMf60T2J75JdvwXBdmw4ERPdPsg7kYZjEc+/RMPrJn3aFvRXljfZFdeh7nzqGt8eGog4hkTfWkhzGbxaJ1NTj3PWBy1JEkEpsx+z6jOn/CGYd1RB1Gcmoz1cVns2j9p3D8kDeeO0nUXsHZJ6guXRR1kIJU59LAAu5Y/zC+/2twB0QdSXbrQdLug9SVPBt1EBEZsBZSMAV0u5WzJxROl0bZg/QvIFZABXRPN26IDAa1JV9n0fqRYJ+POsrA5E7h9g2TqJ60IeokUdCd69mWaroV52YDakcovTUCOJhMgWcy2PTMByfxxnnsjnMwqyWzkyrze8bxYNNxHPXWWA7kbcVzkT1aDukTaWtQ8VwGHueM2tJ6tqYrcVyO8XzUkSRnXgW+jd81mdrSa1Q8H6ScM2pLfobnTwf3WNRxhIeJMV3F8yyYX/wnOoiD3RJ1FHmXHZhdjb91DnXFKp6LSHicVw/4UcfoHbVvHzBqDknh7KGoY/TSKuomPR51CBHJkZriL2B2RdQxBigPsw9HHSIqKqCHoa3hYXw7FtA5KyKSr/5Ep5tFqnlt1EFEQvWxQ3ZQXfIjRnWU4uwyQG9oD1i2FeeuwXeHUOM5I2IAACAASURBVFNyJXWHvhJ1IskD88va2Nr9PnDX8lY7IMmdLpx9Hb94Zs8xG5IN55duoab0QuA8Mp2sJHLur5A+mtrSBdRVdkadRkQGuMwusEIoZC6npvhvUYeQbCqQGyIM7T4XGWxqS6/B2b9TMDeYFRI7P+oEUVEBPSyrmp7FdlRh3Bl1FBGRnRiOH5Aa9wGeblBxSQaPMw7roLr0Ovytk3sK6YOy9dAA9SrOXUMHpVQXX0FdsYpJ8nYfO2RH5o50TgFao44ziPwD559Idel3e9qPS7bVlNyK7w4D91P0RlFUXsfsCvxJJ1NzSCrqMCIymFgBFAht0J6ZOmClh90Glv8t+c0VwPeHiGRddelP8Nz7Ab3nnV3v5Y51h0cdIgoqoIep/cGttDfOx/gC0BV1HBEZ9F7F7IO0NX4F6vVGtgxOdZWdVJdex8iOKTj3CeCJqCNJnz0NfJEhIyZRXXwF55duiTqQ5Lnakgfwtx6D4yrg9ajjDGCvAp9hRfFxVJepI1fY6oo3U1P8eYwqYEXUcQYRw7l6fL+S2tJrdJOIiOSc7y8E8vlnTwedQ34bdQjJsroDtkG+F6ddirri5VGnEJGIzC/+E769D1gZdZQBJE3avTfqEFFQAT18RnvjtXgkgH9FHUZEBinjcWLp6bQ31UcdRSQvnHFYB9XFN1BT8l58m4Vz9UB31LGkVx7ErI7xxeXUlPyYsyfk/w4IyR91lZ1Ul/wHRbHynjOk1dY9e3wcN+L8ODUl/80Cpx3RuVRb8gDji48GPgVsjDrOAPcXcCdRXVxHXdmaqMOIyCBVd8hGHMuijrEHt3PexJeiDiEh8PO8jbv5t0UdQUQiVle6kq3p6T2duqTv/MxNw7FKaot/E3WYKKiAnisrGx+ge+hR4JZEHUVEBhlzNzN65Axam1dHHUUkL9WVLqO6uA5n5cCP0Xmy+Wg78Es87yhqSmZSW1rPbKcbHqTvzjl4PTWlF+I4AWiIOs4A8BecfxzVJR+nuuy5qMMMWrNdNzUl/8trQ6dgdgWZbgCSNS6FWR01JafoTF8RyQtG/t4g7/n5XWSVvqub9BD53MlN55+LCLxxlNvnwb0fWB91nAKTKZx7XkXmpuGD26MOFBUV0HNp9b0vkmo4DWdXoDPqRCR8O3B2Ce0NF9Gy+LWow4jkverSp6kp+SIjOyaCnaVd6XnA0YKzyxgy4iBqSi5m/qR/Rh1JBpjqkr9TUzIX82eA+0PUcQrQE5jVUV1cpXbteeSiA7dTW3oNnUWHAt9GZwD21z9w7nz8SYdTW5q/xSoRGXz8IQvJz9cra3iitDnqEBKqX0cdYDeWU1eqts0i8paa4nvwu47A+Bn5ffRJPujA2fU4O4zq4jrmT1oVdaCoqYCee0Zb0zWYzQWejzqMiAxYqzBOoK3p+qiDiBScMw7roKZ0MdXFdQyhNLOLz6WijjWIrAe+DW4q1SXHUl16ndq0S+hqy/5KTfGZ+N77wG5HN7vumaMFx9lUFx9FbWk9zqkVfj46b+JL1JRcid9VClwJ9kLUkQqIgd2D5yeoKZlOdfFvdc65iOSduoNexNxfoo7xLsb1OsplgPO8XwMdUcd4l3zuyiAi0ak79BVqS/4N3x2NOtDtgr2A2dUM6S6luvQSqkufjjpRvlABPSrtTU10p48F/hp1FBEZcH5Ppzue9sb8baklUijOLvkXtaXXUFNcAXY4ZlfjaIk61gC0DtxP8W0WK4rLqCm5kpriJ6MOJYNQ3aSHqCmtIcZUjJ+gIx12ZuD+gPPmZG5uKblbhfMCUXfoK9SUfJuRnSU4uwjHI1FHyl+2FWfXgx1BTen7mV/WFHUiEZE98/OtXXU3Q/lV1CEkZPMnbcK5u6OO8S4xf1HUEUQkj9UVL6emZC6+zcKcnufDKrAv4Htl1JYu4OzJ2vD7DkVRBxjUVjdvoLJ2Nt1bvomzy4FY1JFEpKBtB/dFUg3XRR1EZECqKW0FWoEFLFoTx2LzcVQDx0ScrEC5FM7uIG13UFeqmxIkv5xb8hTw79y45muMKarB2ScwZjE4b0DeDO4W6P4fag5RN45CdsZhHcDNwM0sXH88HheD1QH7RpwsammgAXM3M7zo95w5UUcfiUjh6BpyO0O7/x/58h6vcQ9nl/wr6hiSA2Y3ALVRx3iLPc78sraoU4hIAagrXQYkuGPtHPzYv4OdweB5rf862O14dqNuFt67/HhyNZi11ncCV1CRvBOzm4DDoo4kIoXI/Q3sIlINg/5sEpGcyBSRvgN8hztWH0B6yCk4Lwl2OlAccbp8tQ14GOwP+HY3dWVrog4kslcfO2QHcAtwC3c+W0y3/yHwzwN3VNTRQpYG7gd+ydb073v+HGQgqSt+BHiEG9d8njHeWeBdCDYXGBZ1tBwx4DGMWxnKb1Xs2YnZH/HchKhj9IqZumD0lvNfhFjhtDY2+3vUEQrGeRNfYtH6n4FNizpKhv006gSSIyuKl3L4+juAfaKOkuFujTpBQXH8Ady4qGP0illX1BFkgMoUkJtYtP4wsE+BnQ/ugKhjheRBzP2Kjh0LueCwV6MOUyhc1AFkJ9PPHMn2174LfBb93YhI73SD+zap/b4F9TqXUSRqZo76DYfj2VygCjgRKIw3obPvFeBvwF/w3VKY1KLzYwvUHesOx2d51DECWExNyVmhrvD7NWX43jzMOxNsHjA01PVywwceAqvH2UKqy56LOpDk2OJ/jaSjKwFeLdhZwNioI2XZdnD34/zFELuH6kkbog4kIiIiIiJ54uePDmHcAWfgOA84AxgddaR+MKAFx104byHzJ2nTXR+oSJuP4slTwX4JTIw6iojktZU4u5C2pn9EHURE9uCudRPptBk4bybYdOBYBuYOv6fBPQh+Cz7LWFnyGAucH3UoyQIV0Pds4Quj8TpOBkuAmw12JAVzNJO9ACzBefeSLlpK3UEvRp1I8kTmzaMTwRI4lwROoOA62NlW4FGcewi8Bl7auIzLjtUOJhERERER2bMb1wxnjDcX3BnAXODQqCP1QgfG/TjuwneLqSt+NupAhU4F9Hw15fQJFHX8L7j5UUcRkbxjwC8YNfLfaVmsMxpFCs3PHx3C+AlTMaYBlXjeNMwqgXIKo+j2HNAKbiXObyXNShjxOHUHbIs6mIREBfRg7npxDN0dx2LpE8AdBxwJTCY/zlRbA/YguL/iu2WsnNSqG12kVxa+MBrXcSz4J4A7AcfxwMFRx9rJDrAUjkfBe5g0j8Cklep8IiIiIiIi/Xb7M5OBGfjuGBzTwY4CNybiVJvAPQT+g/gsY7v/qI5fyy4V0PNd+ZxanPdzsP2ijiIieWEdxkdpb7w/6iAikmUL14/A8yfjrAzfK8VzJZiVgCvFrAzHOGB4yCm6gE041uG7dWDP4Gwdzq3Fec/w2utrdFbSIKQCev8t/tdIOrqngVUCk8E7BGwyUAocQHZbwHcB68GtAZ4CewLfraDLf4LzS7dkcR0Z7BauHwf+NDyvAqwCmAKU4CjByPbrVwN7EdxLwAZgFZDCeJKi9Cr+WbZON4OIiIiIiEhOLDCPw9dOxYqmg38kzhXjKMYoAQ4ChmRxtVeBVeDacH4beCmca+Xcg5/EOcviOvIOKqAXgoo5pZh3Xc/5iiIyOBnGL+lyX+LphleiDiMiEblp4yj2SY/Dt3HQPR5z44BxAPhuH7AYDofz9n3bON9eBUvjeQb+yz3Xv0rMNmG2CfxNFI3ZzNkTtub6S5ICoAJ6+BY+NwGv8wBc7ADMH4uzMfhuDFjmjnbnxuDcTu2z/Vfw8XHsAG8THi9lvpe950gf/Jx23UrkFr4wGroOBhtHrHscuHEY+2GMyFzgRuO5zJtKZlsx68axA8fr4KXx/Vfx2ELaex66X4SyF/XvWkRERERE8t4C8zh6/YF0eyVYegLG8MzrHxvy1nt33r64nvqs72dudHduG+Y68OwF0t6L0L2REUOf58yJ6kAbERXQC0l8zpng/of8apUnIuF7Es/7FCuXNkYdREREBiEV0EVEREREREREZBDJh3P4pLdSTYsZnj4c+Cmg9nQiA9/r4K6me+gRKp6LiIiIiIiIiIiIiIiEr2jvl0heebz5ZeDzxGffBLGfg02POpKIhKIZP/YpVi1JRR1ERERERERERERERERksNAO9EKVur+FA7tPxPgCsC3qOCKSNc/j3EdINc5W8VxERERERERERERERCS3VEAvZM3N3bQ3XovFjsTcPVHHEZF+MczdDFTS1nBT1GFEREREREREREREREQGIxXQB4L2JWtob3g/Ri2wJuo4IhKQ4xFgBu0NF5Fq3BR1HBERERERERERERERkcFKBfSBpL1xEaNeLsf4AsbLUccRkb3aAO4y2madRKrxoajDiIiIiIiIiIiIiIiIDHYqoA80LS1dtDdeS1HRoZi7BuiIOpKIvMt2cFez7bWppBqugwV+1IFEREREREREREREREREBfSBq/W+zbQ3XAEciXP1UccREQB8zN1MEYeSaljAhodejzqQiIiIiIiIiIiIiIiIvKUo6gASslTjKqCOeOIk4EfASREnEhmsGsB9kfaG5VEHERERERERERERERERkV3TDvTBItX4EKlZM4GPYqyPOo7IoGE8jnNzSTXOJaXiuYiIiIiIiIiIiIiISD5TAX1QWeCTavw1ReOm4NxHcDwVdSKRgctW4NxHaJ81nbaGhqjTiIiIiIiIiIiIiIiIyN6phftg1FrfCdzE9Om38tp+Hwb7BsahUccSGSCWY/Yt2psWAQaqnYuIiIiIiIiIiIiIiBQK7UAfzFpaumhruImRL1fg3EfArY46kkgBW45ZHanG99LeVA9Y1IFEREREREREREREREQkGBXQ5a1C+qgt01RIFwnsCRXORUREREREREREREREBgYV0OUtbyuk2yU6I11kDxyPgJ1FqvEoFc5FREREREREREREREQGBhXQ5d1aWrpoa7qetllTwc5ChziLvMEH/oBzc2lrPIFU02JUOBcRERERERERERERERkwiqIOIPlsgU+KxcBiKuceRdr/FHARMDziYCK5thW4FfP/k/b726MOIyIiIiIiIiIiIiIiIuHQDnTpndalj5NqvIwiysBdDbwUdSSRHFiDsysY0lFKqvEyFc9FREREREREREREREQGNhXQJZgVjc+TalhA99BJOPcRsBVRRxLJPteCcx/hwPRU2pquYfmyLVEnEhERERERERERERERkfCphbv0zep7O4CbgJupSCTxuRjHOcCwiJOJ9I3xMp7dClxPW+M/AGiLNpKIiIiIiIiIiIiIiIjklgro0l9GW+NSYClHVe3LjqI64FKw6VEHE+kFH+wh8G5imPcbnliyPepAIiIiIiIiIiIiIiIiEh0V0CV7Hm9+GbgOuI5psytJxy7E2cXA/hEnE3mnZzF3C2n/F6xueirqMCIiIiIiIiIiIiIiIpIfdAa6hGPl/a20N1xB99BJmNUBfwC6o44lg1oHztWDncWB6TLaG65Q8VxERERERERERERERER2ph3oEq7MWen1QD2VyRJ8/8OYqwGOjTiZDA7dQDOwiCEdC1m+bAsAqSgjiYiIiIiIiIiIiIiISL5SAV1yp7VhHXANcA2VyRK67Vyc1YJ7H+AiTicDRxrsYczVM4TfsaLx+agDiYiIiIiIiIiIiIiISGFQAV2ikSmmXwtcy+HziulKz+8ppp+EjhaQ4N4qmnfHbuWpJS9EHUhEREREREREREREREQKjwroEr0VS9bzRjF9StUkYrH5QA2O9wGxaMNJHnsdaAQWMTx9F483vxx1IBERERERERERERERESlsKqBLflndvAH4KfBTKqtG4xediNmZwFlAWaTZJB88DTRg1kCRfy+tzduiDiQiIiIiIiIiIiIiIiIDhwrokr8yxdGGno/PMzU5GY8kjiRmpwL7RBtQcmATzjVhNBDjTz2t/0VERERERERERERERERCoQK6FI5VDU8D1wHXMeX0YQztnon5p2LMA45AZ6cPBJ0YfwO3BLP7WDWrBRb4UYcSERERERERERERERGRwUEFdClMq+/tIHP+dSPwFSqrRtNVdBQxfwbmZgLvA8ZFmlF643ng7+BacCxj6/YH2fDQ6299ujGyYCIiIiIiIiIiIiIiIjL4qIAuA0Om3fuyno9rAJianEyMmZjNAGYCFYCLLKOkgXasp1jupR9k5f0rAYs6mIiIiIiIiIiIiIiIiAiogC4DWabl+9PATQBMrdofzzsJ3NE4dzjmHwFuCvo+CEMHsBJzK/BsBb49SpH/SM+NDiIiIiIiIiIiIiIiIiJ5SYVDGTxWNb8ELO75yJg+fQiv7zOVtJuG8ypxTMOsEu1WD+I5oAVzrXisxNKtdA9f0dNmX0RERERERERERERERKRgqIAug1tLSxfQ2vNR/+bvT06OZUj6cDxXAZSCKwPKMMqAiYCX66gR6gLWA2vBPQO2FuNpnN/Gth0r335muYiIiIiIiIiIiIiIiEjhUgFdZFeebngFeLDn4+0qa4fSsamYobEy0lYKVpYpsFsZjgOA8T0fhbCDvQvYDGzC7Dlwa/HIFMnT3hqGes+wYuy/oD4ddVARERERERERERERERGRsKmALhJUa30n8FTPx+7FE28U0sfj3DjeKqyPBz/z/0YRuH0yA2wEeMN7Ro8F84DYW5/fmW3p+W8neNt7fr0d6ATAuS0Y3cAmMsXxzW/9mk242EukY5tYfe+rffozEBERERERERHpraqqIv7lvYci25c0++LFRmB04/EK3bzCa9ufG5Ad7qqqinhp6EF0+/vi2b6Y2wfowNJbiNkrdHc9T/uDW6OOKSIiEp3aGPEXi8GNx8X2A3M4z8fvfhnnXqLt5PWwwI86pQw+hbBDVkREREREonLHusPxWR51jAAWU1NyVtQhAquqKuL52BfBArxG81poa2jo99rlic/h2Yjdfj7t1bOq4el+rVFx6kHQdVGgMb67l/bGJ/q17t5MOmkEY0Z+NtQ19iSd/iWrml+KZO3y2eV47pxQ5vbd6zi3A0tvxHMb8PxVtDZvC2WtbJpy+gSGdHw86hhv8osW0r5kTWTrV8z5BJmbwHunren7gIWWJyrx5KU4f7+oYwBg3uOkGu6LOkavZH6+noXxPuA44Chg9481kAZSOB4DHiLG7axofD4XUbOqrGo4w7wzcW4mcCxwNHv+un1gNfAPnP2NLn8Rq5s35CLqoBFPngeURB0DALP1tDf+JrL1KxIfzHTSDIG5l3HudXx/A2meYfXJawqi4FWRmAt2TNQxAPB5hfam/41s/Yo5pcCHIlv/nTz/17Q2b4xs/b29RuoL3/NxvAJ+J/Av/KJ1dHauZW3zjqyuk+/K506E9Kk4bxbOTsQ4FBi6hxEdYE8CD+F4gK5hf2L1vS/mKG3fVST/Hfxdf13G86SafpXbQL00dc7BxLhgt5+32MOklv45h4kiox3oIiIiIiIiUWtu7iaenA+c0PtB9hjQvzf84omTgGv3WLf3mAT0r8hs3eeB+16gMUXp2/u1Zm8M33c01nlN6Ovsjld0LxBNAd3FDscs2N9Jr+cGMHBeppyajqWpSKwC92fM/khs3JKezl75pajrQCzgv9NQpf8JRFdAN/dlYGrvB9T+cEAe/+XsK5g7NOoYGXYdkN8F9Io5x2DuUuBDGGMDjIwBlRiVwAV081PiiaXgfkGq4ffk+80ZU2e/F+ddinMfBgtyw4VH5vtsKuY+RFHsR8QTf8G4nvZZtxZEATLv2WXAyVGnAMBjGRBdAd34BLhkePMbOJepOMQfeBUSLTi7j27vbp5saAtt3f7wOQfnPh11DAAczwDRFdB9DsXl0fOgtGsAoiugO67C3P7ZnfONh7Ke115eGobHuoknVmL8HY+ldLg/9RwvO7CUVQ1nROx8jIvAn/nmC4XePboPA3c4cDjGJRR1poknGzG7idEvL6SlpSvc8H1kdjW4Mbv9fHmiK9KbqnZpgYf3wE0Yc3Z/Tfp7wKAooHtRBxAREREREREAqw844GimJif3c9FL936JXcj0M0f2c535Aa//B63Nq/u5puSPGEYFZp8EFpPe/Czx5A8ynQlEZEAonzuReKIec48Cl0Gg4vmuxIDTwG4nnniw54av/HPovAOIJ27B8x7D8emAxfNd8YAqHLdQ/kAL0+YmshFTJAL7ALMx9z1itpJ44qFMN4AFqkeIvF0RcCSOizF+x1B7kXjiD8TnnAm1sajD9duR80ZRkbiK4d46jOvJ3NDU358DMbB5OG5h+75riCe+yJTTh2UhbW45/pd4IsDNqjkQX/YN2FPxfHDRA5aIiIiIiEg+KIotJOgOO8/63oJ7cnIsUNeLK8ey/bXaPq9TWXUgcGKwQS7ozQRSWPYHuxzrXk154psF+YaXiLylYvYZOH85UEM4x0WeBDxIxZxvhTR/35QnZjMkvRw4nzByOY7C9xuIz/kpVVXqIiqF7kSw3xB/4Akq5uRHRwCR/DQEeD+4u6nY3E554vyCvfGkYs6FdKZXYXwT3ISQVjkY+BFDOlspn11oR7mNBn5DZe2e2tfnzrTELLAro46RTwrzG09ERERERGSgWbFkPY6/BxrjOLfP6w31LwR6ubPcLunzOn5sPkFfe8a6F/V5PSkkI3FcRVFnC+Wzy6MOIyJ9EE98BPPuBsaFvJLD3JXEE/VZ6IrSf+VzanH8CTgg/MXcZ9kY+0PPjW8iha4Sc83EEz/SjSEie2EciuMW4sseoTxxZNRxem3K6RMoT/weczcBE3OypnEozruLiuRCjqraNydrZsex+Jv/I+oQHDFzP3xuJtMBSHqogC4iIiIiIpIvLGAbd+N9fW6Dbe7i3l/sZjBtdmWf1vEtaPv2x9S+fdCpxHl/Iz73lKiDiEgAFbPPAG4gt2+2VvPa9huJcid6fO4pOHcLkMsdY6cylIUDop2vSOb794tsLPpjXtwQI5L3bDqORylPfjnqJHs1LXk0RZ2P4eh7p7T+MKtlR+xhpsw5NJL1+8K4PNOyPzKO7mE3AqURZshLKqCLiIiIiIjki6Ki2wjWxt3DuoO3qqtInojjqEBj0rFPBF4nnhiPc0GLomrfPjiNBf+PeXvOsYi8XWXVgZj3a6LYqWSujnjyqzlfFzI7tPB/Q26L5z1sHuWbv5P7dUXCYvPYtv3uvGlfLJLfhuDs+8QTt+Tt8UflidPw7S9k2qpHmoQi9zBT5xwfcY7ecsANlM/NzW79dypPfBbj7EjWznMqoIuIiIiIiOSLFUvWA48GHBW8jbtxaeAx2EeZdNKIYEPc2UCw9pzOU/v2wWsUcEdkbx6JSO91x74F7B9dAPsPKuYck/Nlu4b9H6IsDDi+TDxZFdn6ItnmXILuzT+OOoZIATmfos47866IXpFM4vg9mXO988H+eG4J5XOPjTpI77gJOP83Oe80E08egeN7OV2zgKiALiIiIiIikk/MBd2BPSezI66XJifHgtUFXAMc+zJqZLB27M6CFfeNx2lb+mSgMTLQHIjnXx91CBHZg/K5E3F8JOIUMXy+n9MVM2eqfjKna76bA34YcQaR7HJ8mnjiA1HHECkgp1HU+SuiPM5kZxVzjsHsLmB41FHeYSzOv5fyeYdEHaSXqohv/krOVjty3ijwFwLBbpIfRFRAFxERERERySeuu55gbdyH0Dns/b2+ephdQGanb3DOLun1teUzxgDJYPOrfbsAxumUzw5+NIGI5IaXvhAY0oeRj2Hu0zg7hVj6MFzsCIwLwd1NsMe9DOcSTEse3YccfbMj9kH69vjZivF5cLNx3lTSbhqOD+NcPZAOPp1Npzwxuw85RPLZtUyf3pefKyKD1YcoT14edQgqTx3XcwP4yKij7Mb+uPSdTD8zX/O90zcpnz0jJyt1pn8GLp6TtQpUsFZ6IiIiIiIiEq5U81riiRag9+3mMju9b+nVtT6f6PteBXcKhyUreLKhbe+XDvsAQXch+LE7+hisb8YWbWdbx5V7vc5xDLggu++XYvbnvV6VHroxwJxRWwpu7+31zYbjGA92OLiZwAF9Ws3FvgHc3aexuWI8jnP/E9r8Q7zW0OaWELnPhTa12YrQ5g7C3Gl9GPMT2md+CRb47/jMCuAWpiZn4lk9cGCweakGHgucpy+M0wI/fjp+yXvSl9Hc3P2Oz7QBv8vs2nO3A2UBZ64B7g84RnrD3FU4Xglnbv4Vyrzh+Tq4TXu9yhgLTMTZ8cBx9O0Gm8lsG3sBcGMfxuaO8TOcS4U0+avhzBsSxzLM3Rza/L49E9rc2dcF7jN7vsQcZvuDtz/OPwC848Gm9GtVZ99hWrKBlQ25eRzclXTXL8BN7scMncCfwS3Gcytx/nOQ3oy58Zg3EdzhmJ0JzKLv9cwj2b79e0B4z9Gypwi8W6k89Sha79sc2ioViQ9iXBTa/AOECugiIiIiIiL5xlGPBSig407jyHmjeGLJ9j1eVpE8EbOj+pUtxseBL/ciU7B278bjrFoS0huSu9Gy+DXg23u9rjz5cZwF+XqaaW/6Tp9z5acnSDVcF2xIbYz4lrPBvgG8N9hYm87UOcezqumRYONyyLEm+J+JDHiphv+KOkLIHBD07PGVtO93+S6K529Z1bCM8tlVOO8RYJ9ez2x2KrD3G6GywQX8uo31xMZ9iub6dxbP39LW9A8On3cy3d0t4Cb0em6PUwNlkd4z/0bam56NOkZ+SN9KqnltoCGVVQeSLvok2JcJuiPVc58k3wvozt1NquG+qGPkBbM2Uo16HpTR3afnhPGqMlzRuZhdDkzsw7pF+PZzWHDiHh9jwxJPVkOg10g7ex3sWoZ0fp/ly7bs4vMbgVZgKfBjDp13AEPTX8f4FDA0+HLu34gnbiXV+FAf8+aOozhzYwLVocxfWTWFNPre7QW1cBcREREREck3fixoG/eRdHXP2/tlAVqw736OjzHl9GF7vGTSSSOAgj01+AAAHndJREFU0wNNq/btA1B9mlTDHYx6+TjgR4GHe3wo+5lEpF8OnTeBIAXujD9B/d5blbff347j64FmNt5DZdXogHmCyzzuFQca41wDrfWde71uxZL14H0h0NzGKCqrgu3WF8mF1uaNpBoW4LyjgJWBxhrHM2XOoeEEE8lDqea1tDX8mB3pQ3tuOtn7Y8a7HUf8Lx/MdrS9qqwdChb8+T0A9md8O4xU09d2Uzx/t6eWvEBb4xfwXQXwaB8W9XD8pA/jIuLmUz7nk1mfdvr0IaSLbiH4c7lBSQV0ERERERGRfNO+ZA24fwQa43vn7vHzk5NjMbLx5sp4hnSes8crxow8laDnxOa6fbvkTktLF6nGy8H9MNhAlwwnkIj02VAbG3iMI9bra7uGXg/24m4++wzwe8yuxLczKOJA2htLaG3eFjhTUN7rYyBoA3fr/ded2u82YM1uPrshc068LQA7C/MOJtV4EK3NhXQMiAw2bUufpIg5wNOBxhV5iXACieSxtc07SDX9EGw28FzwCdyVsCC3tb7uTR8HSgOPM64nNn4eq/rY6WNVw9Nse+1k4Hd9WPt44okP9GndKDj3Y6bODtjFay+27fd9sBOyOucApgK6iIiIiIhIPnJ+wB3ZdmZmJ8BuDLMLCFrU3h1/LzvZ/YDt2+GfOW/fLrkX2+//kGnF2FuVlM8YE1YcEemDrnTwFrFmCajtXTF59b0d4P6I4ymcq8fZFTjmAfuTaiwj1Tif9qZvs6rpXlY0Ph84S18NGdaX1rgn77Vjy5vq05i7C1gLdsebNwl0xd5DqrGYVMPZpJquJtW0mPalhXaOtgxWKxqfx7nLgg2yk8IJI1IAUk1/Je0SwKsBR04jvuzkMCLthsN5Xwo+zH5Le+OlverOsicbHnqd1KzzgT/0IcPl/Vo7t4bjeb9l+pnBjsPYnalzTsfZ57My1yChArqIiIiIiEg+8osWEqSNu2Nf0puqdvt54+L+h3pjLTeHirmH7fJz06cPwRHszn4ztW8fDFrrO3H8OMAIj9iIKaHlEZHgYh0vBB/kDie+5SdUVRX16vLUrItpa5xCW0MdbU3X0Na4lFTjpuDrZlHrfVuAroCjyijqvK7XRfT2mV8i1XgIqabqN28SeGpJH/68RfJIW0MDuJbeD7BdP78UGSyebGjDXPBjt8zODyHNrsWTp4AFfY7+KNte/wTBjinbgwU+3UPPBwt4E7Y7mcqqQnp9MY3t2/vfen7qnIPx3E0E7qYzuKmALiIiIiIiko/al6wBHgs0xu2mjfu02ScAR/c/1FsrYemP7/Iz2/ebA7ZfoNms6PZshJICYNwZ6HrfnxRSEhHpi/YHtwLbgw+0z7Axtop44uuUzy7f87UL+rLbO2wG9GXH+0UUda4mnlxAPHnEni/Ny69bpP8CPfa74vCCiBSI9oaFmDUGGuPsbHJWHPXPCzjAcHYZGx56PasxVt/7Ksa/BRzl8GMfzmqO0LlLiCeD/pnvZIGH49fA/lmLNEiogC4iIiIiIpK3XLCd2Wbn7rJNrnmXZivRW9zHmD59yC5CBG3f/oTatw8imV2kr/R+gKcW7iL554E+jjsE+DbOSxFPPEU8cS0VyWSvd6ZHzvX1654E9n/BniCeWEM88XPic87c9WOoyADkAp2DPjq0HCKFxPGNgAMmMG32tHDCvGutuYEuNxbS1vSPUKK0NzWBWxJw1LxQsoTKfkb5vEP6NDT+wJU4l8hyoEGhQJ6gioiIiIiIDEI+C/H4boAR72HqlpNYxbI3f2dycixmH8x+ON7D9v3OAnbaPb7AgwfOCjSLBbxJQAaCHcDYXl1plr83/huziScfDWnyzaQaC/DNPSGefDjE2S8h1bA8xPl7x7gXx2n9nGUy8DnMPsfG2AuUJxaDfzfbdyzN+g61bDG7B0d/d62VAZeCu5Tt+26mPPlHsLspSv+J1uZtWUgp/eW5u4kng7br3zvnf5C2pmeyPm9h2BHg2nffCJpX/J8QTwa4ETAA519PW9P1ocwdCncu8eQx4UztP0VbUxivXwpHqumvxBPtwF66tuzEj80AWkPLBDBlzqFkHst6L+YHOcKpL/6TIEVx4wSOnDeKJ5b0oaNOZMbi0rdRWTsz0Bny0xKz8LkqxFwDmgroIiIiIiIi+WpVw9PEE48RpP26Z+fCTgX0YXY+xqjshwOwS9i5gF7xl5mYOzDQFD5q3z6YVNYOJb15Qq+vdxbOm9TZ4NgXbHpIs/elVbTkBTshxLnzoyNDUdEtdHdfnfkeyIoDcFwM3sWMHvka5YklePyOra/dnVfF9NEj72D7a9cAE7M04zicXQhcSDq2g/JkE57/O/yOO3ta5Us0jsnaEb07SxeNyP6kBePgANe+HFqKrHDxUP59AJi7L5yJQ7M/WDgtoY1hocxbeBoIUkDHpoaW5A1D3BEBvwVeYOUpf4f7QwoEdA9ppqhzK9Db50lD6OouB8LZFR+e4+je8k3gil5dfcTM/ejiZlQH7rP8vZNbREREREREAILu0J7PzuffGZ/Iapq3m9ezC6GHC96+/cmGtqwmkvzWvXkGQd6L8L0t4YURkT5pvW8zju+HNPtIHOdg/I7RI5+nPHE9lYkctaTdi5bFrwHfDGn24Tg7A3M34YZvpDx5E5VzjwppLZHccszq9bWGHvdF3mA0B7reMSWcIDsxFw844l5Y4IeS5Q2r7+3A0RRojO/y47lFUM6+QjzxgV5d2znsl0BpuIEGNhXQRURERERE8pnzFgUcUca0ZOZN96lzjifI7vXMlpog51Q6hngfe/PXxrkBxgLafT7oOC4KdL1nusFCJB+NevmHEPDN6uDG4LiYNCuIJ++ifHaAXXghSc36BdgdIa8yEmcXkvYfI568j6mz3xvyeiLhiSfGY3ZGr693To/7Im/w3IaAI8aHkuNt7KBgl7vVIQV5xzoEW8dZsK5p+cMBN1Bx6p7/HuLJz+I4JzeRBi4V0EVERERERPJZ29InMR4PNCZtmUK2c5cGGmcsw+wHwcbYxUyfPoSpiWOBkkBj0zr/fFApn3sscGGvrzfWk2rcFF4gEemzlpYuYkW1wD9zsJoDOwvn/ZN44mqqqiJsRbrAZ2jRRbidjkoJlc3D8x4lnvghU05XS2MpQPZdCHCUkPNz8TNFpDB0+S8Gut5ndEhJduKCHSfj2XMhBXmngOsE/DryywFY92+gNrbLz8aTR4Bdk+NMA5IK6CIiIiIiIvnOBWzj7uxcymeMwVEXcKFf0eXdCgQ5c/ZAtu13Bp4Fbd++XO3bB5EpVZNwfj2w6zd6diVoK0YRya3W+zYzNDaD3HUTGQZ8g42xe5icHJujNd/tiSXb6RqaBHdjjlYsAr5ErHMp8UQOdheKZEn5nE+CuyTQGD/WGFIakcIzzN8e6HovF2fH+8HW8O3VkIK8nePlgANGhhMkZ2ZTsenyd/3ukfNGgb8QGJH7SAOPCugiIiIiIiL5znkBd2q7w3HD/wMIcmf9dni9nqcbXgHuCracXQIuWPv2oDcFSOGKJ6uIxf4KlAUaZ37YbZJFpL+eWLKdVGMtuPOBZ3O06lyG2j1U1g7N0XrvtvreDlINHwc7C3LUnjZzjnRT5s1xkTxWWTuU8uT3cO6/A45cR/vSllAyiRQif+j+ga43toWUZGcBi/puQkg53s54T7ABfi7+rIIIvlPf3LeoSJ74tt/rTP8/CHxOfdCjAgYNFdBFRERERETyXdvSJwneJvezAa9fRPuDWwEwfh1w7BlAsLNpu13Qs92lkJRVDacimaQicSdYI47igDM8R3r4faFkE5FsM1INv2VorBzc54BVOVjzffhbrs3BOnuWalpM95DDcXyC3LSzP5KO9A05WEckuPK5E4knP0t6cxvOvkrQ2kPm+aeFkk2kEJkfrIAetLjdJy7gjvKAZ6b3WcAzzZ2Xm53xveXsAbD/CjhqCL4tpPLUcQCUJ+uAjwacYwfOfSzgmEEjwjODREREREREpNfM6nHuvQFGuGALuF+9+cv2WUsof2B9gKJnwLVsBU82qn17YakhntjVv78OnHvtzf8zGwMcBEzFrO+tA839mNX3dvR5vIjk3hNLtgP/BQv+m/iyk4FqsHOBg0NZz+wypiWvY2XDY6HM31uZn1U3ADdQkTwRoxpsPjA5lPUcH6Q88XPaG+8PZX6RN3m3EE/s4lgfexXnpTO/9GOYm4DHRMw/tB+LbcfSP+3HeJGBx6gI9CrL3PrQsrzJPRPoPhfzjgwvy87cEcGu99eGEqM/Rr3yJbbvexxw4l6vfYOjmHT3dUyZ81Wc/SLwmo7P0DXknxR1Bh46GKiALiIiIiIiUgicqwf+I6TZ15Ka+Rdo6PnfBT5uzm/AXRHOck7t2wtPac/Hu1nWN4utpaj7f7I9qYjkygKfFM1AM/A5piWPwrfTwE4FN4PsvR/p8O0qYH6W5uu/toaHgYeBL3NYsoKYnQ6cBpwMWTyb1nEVoAK6hMzN2M3v7/TY7zK3Ufb7qYD9gFXNL/V3FpEBxdncgNeHf6SIoy3Y97slmX7mSFoWv7b3a/tocnIs2G5+Xu1Guij/buZuaeliavJ8nLXg2DfAyGqK3Cxgn0DrOW6hrfEGppyemzb7BUgFdBERERERkUKQalxFPPEEEMZd/DfCAv/tv+VuBL5K4N3lvRBD7dtldwzsMlqb8+1cwl1wS/D5VChTx/x0KPNK+IpiJaHNbWOfD23u8FjPDvHHgO9y5LxRdPknYXYmcDa7uzGn905n0kkj2PDQLnbJRuzJhjagDfhPJp00gjGjZuCTxNmZwLR+zn4KU06fwOp7X+x/UHkb844j3bUx6/NOSm/MyeEGhekJYuO/G3WIXjEuYEjsL6HMvSP2SijzhsW4DXNfD2VuP63tsGVVwzFmB3ol5mx5aHnekO5+HC/m0/sjGkaybVsSuDu0TEPsTGBIgBFbmdi5Oi9/Jq9qeJr4nIvA3UWw1+EHBFzpSfwdnw44ZtBRAV1ERERERKRQmKvHWbYL6IbvbnnX72YK9n8jSAu53mmltXFllueUAcN9k1TjkqhT9I5tZ1Xj01GnkDyzYkkO2qcWsEyb94aej89TmZhGt3s/zs4HghxT8obhjBk5E1iazZhZlynwv/F1X0HF3MMg/X7MnQcc14cZPWJds4GF2YwpgKWfY3Xzs1mfN/x9oYVqE+bX0VpfGAVT517Sz/kezl6lXc+DQjMsdmnAXchGZ9GDoeV5w6rml4gn/gkc3esxzrsKWEwWelW8W20Mtzlg1zR3P83N3dnPkiWppsXE5/w/cJ8NaYUdxLw6Wh/cGtL8A0Zv7xIRERERERGRqDnL/hvlZk2satj1m19mv876epjat8uuGTeQarg66hgikgXxxHgqE3vfZd3auJL2hh+QajwKXA3wauC1zMX7kDAcR1XtSzy593NY25Y+SVvTT0g1Ho9xOrAp8FrO8ufrFumb7fjuHNrvb486iEhemX7mSBxfDTjqCZ5a8kIoed7JuXsCjjiWeDKc41bKN10EVAYaY/69oWTJplGvfInMkTDZ5+yztC59PJS5BxgV0EVERERERApFqnEVkOXWfO5Xu/1Ul3crkN22uDGdfy679FPaZ11KKDtTRCRUlVUHUjH7DMqTVxJP3EE8sRZ4iTR/CDRPquF2cJcHXt8smrM7p5w+gXjyVOKJrxFP1BNPPMWO2Baw+6E21ut52hv/hPHJ4AGcziyVQvYc5lWxqmFZ1EFE8s721/4bmBhskPtdKFl2xewmAj9nt58zNTk5qzkq5h6G834UcNQOhnbeltUcYWhp6cLZh4DNWZ3XuI22puuzOucAphbuIiIiIiIihWURsPfdbb3zKqNH3rHbzz7d8ArxxF3Ah7K0ntq3yzu9AO7TmcJZY9RZRGRvplRNIuaOwcWOATsGOIY0BwPg3vVe+iGUzz2W9qWP9nr+4d317IhdFyiTxz6Bru+LilMPgnTma/Y5Bscx0Lm78+7HU7F5Dm0B2soflL6TjbFOYGjvQ1n4X7dIGMzdg/mXsmpp9lvlixS68uSXwT4acFQa598aRpxdyhz19WegKsCo8Ti7ncqqWbQ2b+t3hsnJseDfBewXcOTtLF+2pd/r50Jb0zPE53y0D+eh786TpIdemoV5Bg3tQBcRERERESkk5mfxjnm7jZbFr+35ErLYxl3t2+Vt/n97dx8cV3Xecfx77q4kvyVjGxcmKSFNA9IKg4HYDXiwwdZuTQiQ2EzskBYo6ZRkSlLIS5uQzDSopGGS/pE0QJIJYYJbYAhxXgZMUC3prkRcxTXUxMWW9q4qTJgwtjF2bIONLVv3nv4hG+rxi/bevXevVv59ZvzfPed57s56V3vPOc9zAPxLRxfPRWTca8nfTjbze4zzBNi7gOvgyOL5yRj/K6FiTGcf4IdLzFT/IP5Ucm23YEe2Yu1TWO7GsBQ42eL5KEu4++7tHcFy6u/j42Mke98iSTBmFeXuaxgsavFc5P9btChLS+GbGPsv4QfbxykVX44/qVNwnH8OPcZwMX6mj9a291YVu7nwpzQG/4mlNeTIAEuE1zdFXnE12PtjmOkgjvk4Qx3hW+WcxrSALiIiIiIiUk9G+0T2xzTbyrHjLezE8vtYoql8uxxrMmR+zLlXN6WdiIhUwm4OP8ZcT67tExVfvj27AKi8/DmA5dWQSYVjMxHum8W05m+r+OrmxRdhmB4qgkn4vkWSYO3HaC3cnHYaIuOIoWXxR9iWeQ5jw/Y9B/Bx7D2xZzWWgS4X6Ikwcg7WrD/SEz3sqWpDa/4GHPssmAsixH6MsvtChHHpiqUfurmdge7fxpLPaUQL6CIiIiIiInUnlpPcg3jFdWNf1h5g7KPVh7OeyrfLCSwmc+gnofoFi0g6/KY+4I3wA81Kcvm/GvOy5kWzILgv/PxsijCmcuXLnwd2hB5nuZdc22cZa4Hg3KvfiZP5Yej5jU32vkWSYbD2QVryH0o7EZHUzJ3bQHNhAblCO7n8bzHOExgujjSXNfcx0BPX5upwMnwWGI4w8iywPyeX76O1cM2Ym2nPnj+Z1vxScoXnsDwGnBE6omUPJvsPEXJNX7X90I39KV73j+JN6vSgHugiIiIiIiL1Jsg+juO3VznLSuC4hrUnZh4CvkxVvdecGEvPx+TiRdM5mKmgR62dFXLm28jll4151Yi9gaHiiyHnTofhEWzwr6e+yGkE8+9gzw0591Ja/nAvZT5TRYa1Z1lMrlB5b+fQgi68Yrgy0GnK7V4PhQQmth6ee2MCEycj0feEHcZzL09u/jEMdQyTy/8SCHt6tBFYSa7tkxjzAzL0stl9+/T07MI5jNilGL7EWCXhj/cmUyc/G3JMSO0BtD0O5u9CDsyAuY9c/i8x9vv4FI8pW93y5+/GBNfBoS8D7ws5t48frA05RiQk+xGwW095iXEuxXI/4f5GbMCwiuZ8G4Puc1WlWHP2PnKF5Eogm+BTlIrPJzZ/rMwycoUPJDd9sIpS8VuJzR+vpsq+/4OpYM5kPzNxKvwZdmovwYGvxTFRJP3uALn83cA3Is4wH2ufInvoDXJtXWA2Y812CHZiOAtrzsSYi8AWsEyp+KfrCZkvUlqzrYoJ0hW5H7oZ4nDjrUmlNdFpAV1ERERERKTeDHZ65PIDwPkRZwjIZh6p+GrPHSSXXw9cFjEeOP74K9++b3ID2UPzEpj5j6lkESjrTEkgdjIsr+L1bBjzuubCVTisA84MNb/hNnJtO/CK/xQxw9ozTAc7N7H5rRlKbO5EJPZa1Fn1xATfE9FOecXL2O9izU1E2lBlrsRyJSNALr8PeBOYgm+nVbE962k2rA7XOzwScz/wt0R7lnoZ1lyGA+Ty+4H9wGQI3hE5HWt7GezdGXm8SEWCTXi9vxvjog3k8tMJv4A2DYenOa9wBf/bXYqWXyrOq24Rbww2E/1zofZmRdhkWjnrVFApa9xwKvv+r2Iv8vEOQrCccl+EyjAx8hZ+k9za+cC1VczyDjDXA9djLG+9TgZi+f9mzcOUu39c/UQp84qrybXdH2JD30EcVqjveXR19iNERERERERERlXVT7yTzZ3h+ppb+29VxCunVlpQamuwewsB1zK6MBaSaaclf0fsOYlIfErF58E+FsNM0xjdaDOtqlnGrIwRE88dxNg4yp9OZfS+q1skM6Y29y1SCc+9B/hehJGzyNhOZhfOiTslkQnOx3JTRZtbE9ceMMm/CRivv/XWMTzyqbSTiE2ofujmDvU9r44W0EVEREREROpRNSe6DStDjznsPAYciBhx/JVvl+QMus+BvQHwQ481fJuWwor4kxKR2Iw0fQ4YD2VQn6Lc01ezaMPOV4CXahbvpOwzeO6v0s5C5BjezDvAPBlh5Nn4toPZV82MPSeRicnHcgtl92dpJ/KWjb17OJxpAwbSTuUYlo1kstfyu96DaacSm0r7oY/2PX+gNklNXFpAFxERERERqUejJ7qjPKTYyxtvhn/AuaV7L/BEhHhgMuOvfLskyyuuBr4UYaSDsQ+TK1wVd0p1xyRZI1akCkMdr+HwcSDNB9LbMNnanijb0r0XYz8G7Ktp3GOY3QTOX5NoDWmRKFb5TJ38CQzPRhh8PsFIB7MXVVeRQiaYQJ9zx3sd7DLKbuWtuGrlxc4dmGwBzDg4FQ9gnyGbzdO/5tQLzfWoVHwZG3ySk/4tYIY43KS+5zHQArqIiIiIiEj9Cn/ywPIor6yLdpLcEqWMe5lS5+ZI8aS+ee63MXw3wshGsL8gl58fe04iEo8Bdy02SGsR/Q2cYBmlNbU/BV8qPo+1HyWdRfSDOGY5g91bUogtMrYNq9+E7FLg5dBjLR/Ez/yS2csb409MZCKwfWT8uUc2qY5PpTXbaHSuxFTVaqx6lgfJnLFkQi6eH1XueRLMiVpnqO95jLSALiIiIiIiUq+inOy2Ecq3H1Ve2IklXO90lW8/vZUWfgHsLyKMnAI8SfOSXNwpiUhMyj1P4rAE2F7DqDsIbIGBnvU1jHmscrEIwSKiLBJGZnZj7TUMdLm1iykSQWnNNjJ8GMzuCKML+LsegnatWYi8bSeWO/CuuIL+3qG0kxnTC537KXWvwNoVET8HorPswXIjZfdW+lcdqmnsNIw0/D3YvtHX+eg/Pqe+5/HRl5GIiIiIiEi9KnVuxlAKMaJ/tD91VO0Bxj4aaojKt5/m2gP2HbgR+E2EwbNw/C4uWPKeuLOqD0alS2X8G3DXkvEvwfAIyZcV78I6lzBYjFIiOl5ezwYy2Q8ADwB+ssFsHwHzRhfuRepAvzuACZYCw+EHm78gt/be2HOSOnTa/x20DbiLkcb3U3bvhfYg7YRCKRdXYc0F1OR7kgBrHqaBHGU33G/VejbUMYxXXIDXPfPtf+4P005rItECuoiIiIiISD0LQpVxf6j6gOYhKl8kUfl2gVfWHSDwPwoMRhh9NiN+B7Ovmhl3WiISk/7e7ZTcm7DOB8E+k0QELMvx3CWUu7YmMH80/Wv+gOd+GswlwH/EH8AMYezNeMWFKtsudadU/DWGW4i2seYz5Ap3xpyRSD3YizGrsCxn6p734rl313Up7nLXVjz30wTB3CMb7Q7HHGEYy4MEmdmUu29ms/tqzPPLaU4L6CIiIiIiIvWs8h5zI2T86nfke+4gUFnpXMtPq44nE8Ng705G7IeBHRFGz8b3n2bOkqlxpyUiMSp3/TdecRFOcAHWfAt4pYrZdgEPYGnDWziHshtms1hted2b8NyrgRYsXwdeqmK2vcBKLFfjzchRKj5M8if7RZJRcn+Ctf8YbbC9h9a2v4k3IZFxwwJbgXXAoxj7eWywgKl7/ohS9wrK7s/YsCHuxeb0DPb8z5GNdn+CMV8A/ovo320BlrVgbudw5hzK7q0MdnoxZivylmzaCYiIiIiIiEgVvO5NXLhg7NO5+ycFbOndG0vMqVPyHNrdNOZ1wbv2xxIvKUOX7qJ13btTi3/W8Guk9bgnM2M1zrbKT3Xv9g9WHXOo+CJzr3tfRe+dE2k4kGwvQ2/GABeGeE2SZqak27sx8C+nYRw8N/Iz6T5A9v3LxsXrAGAy9bGQOtDTD9wJ7V/l/GdaCZx5YOaBnQOcAUwHZgBZsHvB7GG0x2s/DhsJgo1Me/3ZtxcP6qTt9+gGs68Bd9GyuBmcP8NhHpaLwM4Cc/S+G4Ej9213gilh7UYcu5HDTesZ6ohQ9lpOqmF4KbapseLrN1/xGkzQavkZfxnOSEPF128q7IXe6mKWi9/gwgXfjzR2/6QalKw+eCeZhq8nH6dCk/bsSi32u4Jfs2tk/Pwd1Dgj3c/CSf55+CMm9nnNlEO80Dm+fyMlZbSKzHeA75DLn4ENLseY+UAzmPcDZwFTgHcCrwP7ge3Ai8AgxvyGppE+NvbuSekOQvLnEGQrO8TcSHrviaGOnRU9Tzgqjt+FdeL/AHB+ruNK8xK5AAAAAElFTkSuQmCC;" vertex="1" parent="1">
          <mxGeometry x="350" y="50" width="100.65" height="30" as="geometry" />
        </mxCell>
        <mxCell id="9XsZ4Fnl_TqAU3Pvs2_y-46" value="" style="endArrow=none;html=1;rounded=0;fillColor=#dae8fc;strokeColor=#6c8ebf;entryX=0.993;entryY=0.384;entryDx=0;entryDy=0;entryPerimeter=0;" edge="1" parent="1" target="9XsZ4Fnl_TqAU3Pvs2_y-9">
          <mxGeometry width="50" height="50" relative="1" as="geometry">
            <mxPoint x="400" y="280" as="sourcePoint" />
            <mxPoint x="410" y="170" as="targetPoint" />
            <Array as="points" />
          </mxGeometry>
        </mxCell>
        <mxCell id="9XsZ4Fnl_TqAU3Pvs2_y-47" value="" style="endArrow=none;html=1;rounded=0;exitX=1;exitY=0.5;exitDx=0;exitDy=0;fillColor=#dae8fc;strokeColor=#6c8ebf;entryX=0;entryY=0.5;entryDx=0;entryDy=0;" edge="1" parent="1" source="9XsZ4Fnl_TqAU3Pvs2_y-42" target="9XsZ4Fnl_TqAU3Pvs2_y-10">
          <mxGeometry width="50" height="50" relative="1" as="geometry">
            <mxPoint x="410" y="130" as="sourcePoint" />
            <mxPoint x="410" y="170" as="targetPoint" />
          </mxGeometry>
        </mxCell>
        <mxCell id="9XsZ4Fnl_TqAU3Pvs2_y-48" value="" style="endArrow=none;html=1;rounded=0;fillColor=#dae8fc;strokeColor=#6c8ebf;entryX=0;entryY=0.5;entryDx=0;entryDy=0;" edge="1" parent="1" source="9XsZ4Fnl_TqAU3Pvs2_y-42" target="9XsZ4Fnl_TqAU3Pvs2_y-12">
          <mxGeometry width="50" height="50" relative="1" as="geometry">
            <mxPoint x="400.3212903225806" y="170.79999999999995" as="sourcePoint" />
            <mxPoint x="410" y="170" as="targetPoint" />
            <Array as="points">
              <mxPoint x="400" y="370" />
            </Array>
          </mxGeometry>
        </mxCell>
        <mxCell id="9XsZ4Fnl_TqAU3Pvs2_y-49" value="Matchbox" style="text;html=1;strokeColor=none;fillColor=none;align=center;verticalAlign=middle;whiteSpace=wrap;rounded=0;" vertex="1" parent="1">
          <mxGeometry x="188.74" y="316.43" width="60" height="30" as="geometry" />
        </mxCell>
        <mxCell id="9XsZ4Fnl_TqAU3Pvs2_y-50" value="server" style="text;html=1;strokeColor=none;fillColor=none;align=center;verticalAlign=middle;whiteSpace=wrap;rounded=0;" vertex="1" parent="1">
          <mxGeometry x="766.8399999999999" y="355" width="60" height="30" as="geometry" />
        </mxCell>
        <mxCell id="9XsZ4Fnl_TqAU3Pvs2_y-51" value="server" style="text;html=1;strokeColor=none;fillColor=none;align=center;verticalAlign=middle;whiteSpace=wrap;rounded=0;" vertex="1" parent="1">
          <mxGeometry x="646.84" y="355" width="60" height="30" as="geometry" />
        </mxCell>
        <mxCell id="9XsZ4Fnl_TqAU3Pvs2_y-52" value="server" style="text;html=1;strokeColor=none;fillColor=none;align=center;verticalAlign=middle;whiteSpace=wrap;rounded=0;" vertex="1" parent="1">
          <mxGeometry x="526.84" y="355" width="60" height="30" as="geometry" />
        </mxCell>
        <mxCell id="9XsZ4Fnl_TqAU3Pvs2_y-53" value="agent" style="text;html=1;strokeColor=none;fillColor=none;align=center;verticalAlign=middle;whiteSpace=wrap;rounded=0;" vertex="1" parent="1">
          <mxGeometry x="766.8399999999999" y="493" width="60" height="30" as="geometry" />
        </mxCell>
        <mxCell id="9XsZ4Fnl_TqAU3Pvs2_y-54" value="agent" style="text;html=1;strokeColor=none;fillColor=none;align=center;verticalAlign=middle;whiteSpace=wrap;rounded=0;" vertex="1" parent="1">
          <mxGeometry x="648.3" y="493" width="60" height="30" as="geometry" />
        </mxCell>
        <mxCell id="9XsZ4Fnl_TqAU3Pvs2_y-55" value="agent" style="text;html=1;strokeColor=none;fillColor=none;align=center;verticalAlign=middle;whiteSpace=wrap;rounded=0;" vertex="1" parent="1">
          <mxGeometry x="526.8399999999999" y="493" width="60" height="30" as="geometry" />
        </mxCell>
      </root>
    </mxGraphModel>
  </diagram>
</mxfile>
